<?xml version="1.0" encoding="UTF-8"?>
<svg id="_레이어_1" data-name="레이어_1" xmlns="http://www.w3.org/2000/svg" version="1.1" viewBox="0 0 344 344">
  <!-- Generator: Adobe Illustrator 29.7.1, SVG Export Plug-In . SVG Version: 2.1.1 Build 8)  -->
  <path d="M102.65199,198.47701c-3.05-5.88301-10.293-8.18001-16.175-5.129-5.883,3.04999-8.18001,10.293-5.129,16.17499,6.35901,12.26999,18.203,25.71101,33.50401,36.114,15.41399,10.48001,35.05399,18.36301,57.14799,18.36301s41.73398-7.883,57.14798-18.36301c15.30103-10.40298,27.14502-23.84401,33.50403-36.114,3.05096-5.88199.75397-13.125-5.129-16.17499-5.88202-3.05101-13.125-.75401-16.17502,5.129-4.30499,8.304-13.26199,18.85898-25.69601,27.312-12.32397,8.379-27.34698,14.211-43.65198,14.211s-31.32802-5.832-43.65199-14.211c-12.43402-8.45302-21.39102-19.008-25.69601-27.312h0ZM102.65199,198.47701" style="fill: #fff;"/>
  <path d="M172,0C77.008,0,0,77.00803,0,172.00002s77.008,171.99998,172,171.99998,172-77.008,172-171.99998S266.99197,0,172,0h0ZM24,172.00002C24,90.26199,90.26199,24,172,24s148,66.26199,148,148.00002-66.26202,147.99998-148,147.99998S24,253.73801,24,172.00002h0ZM24,172.00002" style="fill: #fff; fill-rule: evenodd;"/>
  <path d="M139.99998,108c0,8.836-7.164,16-15.99998,16s-16.00002-7.164-16.00002-16,7.164-16,16.00002-16,15.99998,7.164,15.99998,16h0ZM139.99998,108" style="fill: #fff;"/>
  <path d="M235.99998,108c0,8.836-7.16399,16-16,16s-15.99998-7.164-15.99998-16,7.16399-16,15.99998-16,16,7.164,16,16h0ZM235.99998,108" style="fill: #fff;"/>
</svg>