<?xml version="1.0" encoding="UTF-8"?>
<svg id="_레이어_1" xmlns="http://www.w3.org/2000/svg" version="1.1" viewBox="0 0 359.60001 286.39999">
  <!-- Generator: Adobe Illustrator 29.7.1, SVG Export Plug-In . SVG Version: 2.1.1 Build 8)  -->
  <path d="M88.4,176.7h36.6c8.39999,0,15.2-6.8,15.2-15.2s-6.8-15.2-15.2-15.2h-36.6c-8.4,0-15.2,6.8-15.2,15.2s6.8,15.2,15.2,15.2Z" style="fill: #0562fe;"/>
  <path d="M289.5,0H70.1C31.4,0,0,31.4,0,70.1v146.3c0,38.60001,31.5,70,70.1,70.10001h219.4c38.60001,0,70-31.5,70.10001-70.10001V70.1c0-38.6-31.39999-70.1-70.10001-70.1ZM30.4,73.1v-4.4h0c.8-21.5,18.2-38.3,39.6-38.3h219.39999c21.39999,0,38.79999,16.8,39.60001,38.2v4.49999s-298.6,0-298.6,0ZM329.10001,216.39999c0,21.8-17.79999,39.60001-39.60001,39.60001H70.1c-21.8,0-39.6-17.8-39.6-39.60001v-112.8h298.70001v112.8h-.10001Z" style="fill: #0562fe;"/>
</svg>