<?xml version="1.0" encoding="UTF-8"?>
<svg id="_레이어_1" xmlns="http://www.w3.org/2000/svg" version="1.1" viewBox="0 0 288.29999 277.10001">
  <!-- Generator: Adobe Illustrator 29.7.1, SVG Export Plug-In . SVG Version: 2.1.1 Build 8)  -->
  <path d="M262.70001,83.3l-63.39999-9.2-28.39999-57.4c-10.89999-22.2-42.60001-22.2-53.6,0l-28.4,57.4-63.4,9.2c-24.5,3.6-34.3,33.7-16.6,50.90001l45.9,44.7-10.8,63.09999c-4.2,24.39999,21.4,43,43.3,31.5l56.7-29.8,56.7,29.8c21.89999,11.5,47.5-7.10001,43.3-31.5l-10.8-63.10001,45.90001-44.7c17.70001-17.3,7.89999-47.4-16.60001-50.9h.19998ZM261.29999,115.9l-50.7,49.4c-3,2.89999-4.39999,7.2-3.7,11.3l12,69.8c.60001,3.5-3,6.10001-6.2,4.5l-62.7-32.90001c-3.7-2-8.2-2-11.89999,0l-62.7,32.89999c-3.1,1.7-6.8-1-6.2-4.5l12-69.8c.7-4.2-.7-8.39999-3.7-11.3l-50.7-49.4c-2.5-2.5-1.2-6.8,2.4-7.3l70.1-10.2c4.2-.6,7.8-3.2,9.6-7l31.3-63.5c1.60001-3.2,6.10001-3.2,7.7,0l31.3,63.5c1.89999,3.8,5.5,6.4,9.60001,7l70.10001,10.2c3.5.5,4.89999,4.8,2.39999,7.3h0l-.00003.00002Z" style="fill: #0562fe;"/>
</svg>