<?xml version="1.0" encoding="UTF-8"?>
<svg id="Layer_1" xmlns="http://www.w3.org/2000/svg" version="1.1" viewBox="0 0 512 512">
  <!-- Generator: Adobe Illustrator 29.7.1, SVG Export Plug-In . SVG Version: 2.1.1 Build 8)  -->
  <path d="M497,192.7c-12.20001-14-29.79999-22.10001-48.39999-22.10001h-1.79999C436.20001,74.8,354.70001,0,256,0S75.8,74.8,65.2,170.7h-1.2c-18.6,0-36.2,8-48.3,22.10001S-2,225.3.6,243.7l22.6,158.39998c9,62.70001,63.40001,109.89999,126.69999,109.89999h212.69998c63.29999,0,117.79999-47.29999,126.70001-109.89999l22.60001-158.39999c2.60001-18.39999-2.89999-37-15-51h0l.10001.00002ZM256,42.7c75.10001,0,137.39999,55.7,147.79999,128H108.2c10.4-72.3,72.7-128,147.8-128ZM469.79999,237.7l-22.60001,158.39998c-6,41.79999-42.29999,73.29999-84.5,73.29999h-212.7c-42.2,0-78.5-31.5-84.5-73.29999l-22.6-158.39999c-.9-6.2.9-12.2,5-17s9.8-7.39999,16.1-7.39999h384.70003c6.29999,0,12,2.60001,16.10001,7.39999,4.10001,4.8,5.89999,10.8,5,17h0l-.00003.00002ZM277.29999,277.29999v128c0,11.79999-9.5,21.29999-21.3,21.29999s-21.3-9.5-21.3-21.29999v-128c0-11.79999,9.5-21.3,21.3-21.3s21.3,9.50002,21.3,21.3ZM384,277.29999v128c0,11.79999-9.5,21.29999-21.29999,21.29999s-21.29999-9.5-21.29999-21.29999v-128c0-11.79999,9.5-21.3,21.29999-21.3s21.29999,9.50002,21.29999,21.3ZM170.7,277.29999v128c0,11.79999-9.5,21.29999-21.3,21.29999s-21.3-9.5-21.3-21.29999v-128c0-11.79999,9.5-21.3,21.3-21.3s21.3,9.50002,21.3,21.3Z" style="fill: #0562fe;"/>
</svg>