<?xml version="1.0" encoding="UTF-8"?>
<svg id="_레이어_1" data-name="레이어_1" xmlns="http://www.w3.org/2000/svg" version="1.1" viewBox="0 0 336 336">
  <!-- Generator: Adobe Illustrator 29.1.0, SVG Export Plug-In . SVG Version: 2.1.0 Build 142)  -->
  <defs>
    <style>
      .st0 {
        fill: #4f4e9f;
      }
    </style>
  </defs>
  <path class="st0" d="M168,0C75.4,0,0,75.4,0,168s75.4,168,168,168,168-75.4,168-168S260.6,0,168,0h0ZM168,307c-76.6,0-139-62.4-139-139S91.4,29,168,29s139,62.4,139,139-62.4,139-139,139h0ZM168,312"/>
  <path class="st0" d="M248.6,146.7l-22.3-12.2c-10.5-5.7-19-14.2-24.8-24.7l-12.2-22.3c-4.3-7.8-12.4-12.6-21.3-12.6s-17,4.8-21.3,12.6l-12.2,22.3c-5.7,10.4-14.3,19-24.8,24.7l-22.3,12.2c-7.8,4.2-12.7,12.4-12.7,21.3s4.8,17.1,12.7,21.3l22.3,12.2c10.5,5.7,19,14.2,24.8,24.7l12.2,22.3c4.3,7.8,12.4,12.6,21.3,12.6s17-4.8,21.3-12.6l12.2-22.3c5.7-10.4,14.3-19,24.8-24.7l22.3-12.2c7.8-4.2,12.7-12.4,12.7-21.3s-4.8-17.1-12.7-21.3h0ZM222.7,168l-11.3,6.2c-15.7,8.5-28.5,21.3-37.1,37l-6.3,11.4-6.3-11.4c-8.6-15.7-21.5-28.5-37.1-37l-11.3-6.2,11.3-6.2c15.7-8.5,28.5-21.3,37.1-37l6.3-11.4,6.3,11.4c8.6,15.7,21.4,28.5,37.1,37l11.3,6.2ZM222.7,168"/>
</svg>