<?xml version="1.0" encoding="UTF-8"?>
<svg id="_레이어_1" data-name="레이어_1" xmlns="http://www.w3.org/2000/svg" version="1.1" viewBox="0 0 359.6 286.4">
  <!-- Generator: Adobe Illustrator 29.1.0, SVG Export Plug-In . SVG Version: 2.1.0 Build 142)  -->
  <defs>
    <style>
      .st0 {
        fill: #4f4e9f;
      }
    </style>
  </defs>
  <path class="st0" d="M88.4,176.7h36.6c8.4,0,15.2-6.8,15.2-15.2s-6.8-15.2-15.2-15.2h-36.6c-8.4,0-15.2,6.8-15.2,15.2s6.8,15.2,15.2,15.2Z"/>
  <path class="st0" d="M289.5,0H70.1C31.4,0,0,31.4,0,70.1v146.3c0,38.6,31.5,70,70.1,70.1h219.4c38.6,0,70-31.5,70.1-70.1V70.1c0-38.6-31.4-70.1-70.1-70.1ZM30.4,73.1v-3.1c0-.4,0-.9,0-1.3h0c.8-21.5,18.2-38.3,39.6-38.3h219.4c21.4,0,38.8,16.8,39.6,38.2v.2c0,.4,0,.8,0,1.2v3.1H30.4ZM329.1,216.4c0,21.8-17.8,39.6-39.6,39.6H70.1c-21.8,0-39.6-17.8-39.6-39.6v-112.8h298.7v112.8Z"/>
</svg>