<?xml version="1.0" encoding="UTF-8"?>
<svg id="_레이어_1" data-name="레이어_1" xmlns="http://www.w3.org/2000/svg" version="1.1" viewBox="0 0 347 347">
  <!-- Generator: Adobe Illustrator 29.1.0, SVG Export Plug-In . SVG Version: 2.1.0 Build 142)  -->
  <defs>
    <style>
      .st0 {
        fill: #4f4e9f;
      }
    </style>
  </defs>
  <path class="st0" d="M260.2,192.6c-7.1-3.7-15.9-.9-19.5,6.2-4.8,9.2-14.1,19-24.9,26.4-13.3,9-27.9,13.8-42.2,13.8s-29-4.8-42.2-13.8c-10.8-7.4-20.1-17.2-24.9-26.4-1.8-3.4-4.8-6-8.5-7.1-3.7-1.2-7.6-.8-11.1.9-3.4,1.8-6,4.8-7.1,8.5-1.2,3.7-.8,7.6.9,11.1,7,13.4,19.5,26.9,34.3,37,12.6,8.6,33,18.8,58.6,18.8s45.9-10.2,58.6-18.8c14.8-10.1,27.3-23.6,34.3-37,3.7-7.1.9-15.9-6.2-19.5Z"/>
  <path class="st0" d="M173.5-1C77.3-1-1,77.3-1,173.5s78.3,174.5,174.5,174.5,174.5-78.3,174.5-174.5S269.7-1,173.5-1ZM173.5,319c-80.2,0-145.5-65.3-145.5-145.5S93.3,28,173.5,28s145.5,65.3,145.5,145.5-65.3,145.5-145.5,145.5Z"/>
  <path class="st0" d="M125.5,128c10.2,0,18.5-8.3,18.5-18.5s-8.3-18.5-18.5-18.5-18.5,8.3-18.5,18.5,8.3,18.5,18.5,18.5Z"/>
  <path class="st0" d="M221.5,128c10.2,0,18.5-8.3,18.5-18.5s-8.3-18.5-18.5-18.5-18.5,8.3-18.5,18.5,8.3,18.5,18.5,18.5Z"/>
</svg>