<?xml version="1.0" encoding="UTF-8"?>
<svg id="Outline" xmlns="http://www.w3.org/2000/svg" version="1.1" viewBox="0 0 512 512">
  <!-- Generator: Adobe Illustrator 29.7.1, SVG Export Plug-In . SVG Version: 2.1.1 Build 8)  -->
  <path d="M149.3,0h-64C38.2,0,0,38.2,0,85.3v64c0,47.09999,38.2,85.3,85.3,85.3h64c47.09999,0,85.3-38.2,85.3-85.3v-64c.09999-47.1-38.10001-85.3-85.3-85.3ZM192,149.3c0,23.60001-19.10001,42.7-42.7,42.7h-64c-23.6,0-42.7-19.10001-42.7-42.7v-64c0-23.6,19.1-42.7,42.7-42.7h64c23.60001,0,42.7,19.1,42.7,42.7v64Z" style="fill: #0562fe;"/>
  <path d="M426.70001,0h-64c-47.10001,0-85.29999,38.2-85.29999,85.3v64c0,47.09999,38.20001,85.3,85.29999,85.3h64c47.10001,0,85.29999-38.2,85.29999-85.3v-64c0-47.1-38.20001-85.3-85.29999-85.3ZM469.29999,149.3c0,23.60001-19.10001,42.7-42.70001,42.7h-64c-23.60001,0-42.70001-19.10001-42.70001-42.7v-64c0-23.6,19.10001-42.7,42.70001-42.7h64c23.60001,0,42.70001,19.1,42.70001,42.7v64Z" style="fill: #0562fe;"/>
  <path d="M149.3,277.29999h-64c-47.1,0-85.3,38.20001-85.3,85.29999v64c0,47.10001,38.2,85.29999,85.3,85.29999h64c47.09999,0,85.3-38.20001,85.3-85.29999v-64c0-47.10001-38.2-85.29999-85.3-85.29999ZM192,426.70001c0,23.60001-19.10001,42.70001-42.7,42.70001h-64c-23.6,0-42.7-19.10001-42.7-42.70001v-64c0-23.60001,19.1-42.70001,42.7-42.70001h64c23.60001,0,42.7,19.10001,42.7,42.70001v64Z" style="fill: #0562fe;"/>
  <path d="M426.70001,277.29999h-64c-47.10001,0-85.29999,38.20001-85.29999,85.29999v64c0,47.10001,38.20001,85.29999,85.29999,85.29999h64c47.10001,0,85.29999-38.20001,85.29999-85.29999v-64c0-47.10001-38.20001-85.29999-85.29999-85.29999ZM469.29999,426.70001c0,23.60001-19.10001,42.70001-42.70001,42.70001h-64c-23.60001,0-42.70001-19.10001-42.70001-42.70001v-64c0-23.60001,19.10001-42.70001,42.70001-42.70001h64c23.60001,0,42.70001,19.10001,42.70001,42.70001v64Z" style="fill: #0562fe;"/>
</svg>