<?xml version="1.0" encoding="UTF-8"?>
<svg id="_레이어_1" xmlns="http://www.w3.org/2000/svg" version="1.1" viewBox="0 0 51.14112 49.15968">
  <!-- Generator: Adobe Illustrator 29.7.1, SVG Export Plug-In . SVG Version: 2.1.1 Build 8)  -->
  <path d="M51.11364,42.02471l-1.33142-14.48407c-.25647-2.64246-.81335-5.39813-3.47473-6.91986l-.99365-4.75757h1.6615c.97498,0,1.78381-.80878,1.78381-1.78369,0-.97498-.80884-1.78375-1.78381-1.78375h-2.3783c-.00952,0-.01831.00275-.02771.00287l-.89954-4.30719C42.78942,3.8532,41.00573,0,33.94225,0h-16.71973C10.15905,0,8.37524,3.8294,7.49572,7.99144l-.90198,4.30945c-.01697-.00049-.03284-.00513-.0498-.00513h-2.3783c-.97485,0-1.78369.80878-1.78369,1.78375,0,.97491.80884,1.78369,1.78369,1.78369h1.68262l-.99243,4.74091c-2.69116,1.51837-3.25549,4.28479-3.49646,6.93652L.02734,42.02471c-.16602,1.80756.42859,3.61505,1.66528,4.97083,1.26013,1.37915,3.0675,2.16412,4.94666,2.16412h4.47144c3.85254,0,4.56628-2.18787,5.06555-3.66272l.47546-1.42657c.54712-1.64148.68994-2.04565,2.83069-2.04565h12.17664c2.14087,0,2.21179.23816,2.83008,2.04565l.47607,1.42657c.47583,1.45105,1.21301,3.66272,5.06567,3.66272h4.47144c1.87842,0,3.68604-.78497,4.94666-2.16412,1.23669-1.35577,1.8313-3.16327,1.66466-4.97083ZM8.73241,19.43071l2.25928-10.70245c.66614-3.11511,1.45056-5.16077,6.23083-5.16077h6.56421v1.59332h-1.78369c-.97485,0-1.78369.80878-1.78369,1.78369,0,.97498.80884,1.78375,1.78369,1.78375h7.13501c.97485,0,1.78369-.80878,1.78369-1.78375,0-.97491-.80884-1.78369-1.78369-1.78369h-1.78381v-1.59332h6.56409c4.78052,0,5.56567,2.04565,6.23157,5.16077l2.23547,10.70245H8.73241ZM46.83312,44.61724c-.5946.64227-1.42725.99878-2.30737.99878h-4.47095c-1.28442,0-1.28442-.0238-1.68872-1.23676l-.49927-1.47424c-.85645-2.52118-1.87891-4.44775-6.20776-4.44775h-12.17664c-4.70911,0-5.58923,2.59253-6.18372,4.49469l-.47571,1.45111c-.40466,1.18915-.40466,1.21295-1.68835,1.21295h-4.47168c-.87964,0-1.73608-.35651-2.30688-.99878-.57068-.61835-.83252-1.40338-.76123-2.23608l1.33203-14.48346c.28564-3.21106.66602-4.87573,5.47021-4.87573h30.39502c4.78052,0,5.16064,1.66467,5.47021,4.87573l1.3313,14.48346c.07153.8327-.1897,1.61774-.7605,2.23608h.00001Z" style="fill: #0562fe;"/>
  <path d="M18.43554,28.94396h-7.13489c-.97485,0-1.78381.80878-1.78381,1.78375s.80896,1.78375,1.78381,1.78375h7.13489c.97498,0,1.78381-.80878,1.78381-1.78375s-.80884-1.78375-1.78381-1.78375Z" style="fill: #0562fe;"/>
  <path d="M39.84045,28.94396h-7.13501c-.97485,0-1.78369.80878-1.78369,1.78375s.80884,1.78375,1.78369,1.78375h7.13501c.97485,0,1.78369-.80878,1.78369-1.78375s-.80884-1.78375-1.78369-1.78375Z" style="fill: #0562fe;"/>
</svg>