<?xml version="1.0" encoding="UTF-8"?>
<svg id="_레이어_1" data-name="레이어_1" xmlns="http://www.w3.org/2000/svg" version="1.1" viewBox="0 0 47 47">
  <!-- Generator: Adobe Illustrator 29.1.0, SVG Export Plug-In . SVG Version: 2.1.0 Build 142)  -->
  <defs>
    <style>
      .st0 {
        fill: #fff;
      }
    </style>
  </defs>
  <path class="st0" d="M31.8,31.5H15.2c-1.4,0-2.5,1.1-2.5,2.5s1.1,2.5,2.5,2.5h16.5c1.4,0,2.5-1.1,2.5-2.5s-1.1-2.5-2.5-2.5Z"/>
  <path class="st0" d="M42.6,11.7L30.6,2.4h0c-4.2-3.2-10-3.2-14.2,0L4.4,11.7C1.6,13.9,0,17.2,0,20.7v14.9c0,6.3,5.2,11.4,11.5,11.4h24c6.3,0,11.5-5.1,11.5-11.4v-14.9c0-3.5-1.6-6.8-4.4-9ZM35.5,42H11.5c-3.6,0-6.5-2.9-6.5-6.4v-14.9c0-2,.9-3.8,2.5-5l12-9.3c2.4-1.8,5.7-1.8,8.1,0l12,9.3c1.6,1.2,2.5,3,2.5,5v14.9c0,3.5-2.9,6.4-6.5,6.4Z"/>
</svg>