<?xml version="1.0" encoding="UTF-8"?>
<svg id="_레이어_1" data-name="레이어_1" xmlns="http://www.w3.org/2000/svg" version="1.1" viewBox="0 0 288.3 277.1">
  <!-- Generator: Adobe Illustrator 29.1.0, SVG Export Plug-In . SVG Version: 2.1.0 Build 142)  -->
  <defs>
    <style>
      .st0 {
        fill: #fff;
      }
    </style>
  </defs>
  <path class="st0" d="M262.7,83.3l-63.4-9.2-28.4-57.4c-10.9-22.2-42.6-22.2-53.6,0l-28.4,57.4-63.4,9.2c-24.5,3.6-34.3,33.7-16.6,50.9l45.9,44.7-10.8,63.1c-4.2,24.4,21.4,43,43.3,31.5l56.7-29.8,56.7,29.8c21.9,11.5,47.5-7.1,43.3-31.5l-10.8-63.1,45.9-44.7c17.7-17.3,7.9-47.4-16.6-50.9h0ZM261.3,115.9l-50.7,49.4c-3,2.9-4.4,7.2-3.7,11.3l12,69.8c.6,3.5-3,6.1-6.2,4.5l-62.7-32.9c-3.7-2-8.2-2-11.9,0l-62.7,32.9c-3.1,1.7-6.8-1-6.2-4.5l12-69.8c.7-4.2-.7-8.4-3.7-11.3l-50.7-49.4c-2.5-2.5-1.2-6.8,2.4-7.3l70.1-10.2c4.2-.6,7.8-3.2,9.6-7l31.3-63.5c1.6-3.2,6.1-3.2,7.7,0l31.3,63.5c1.9,3.8,5.5,6.4,9.6,7l70.1,10.2c3.5.5,4.9,4.8,2.4,7.3h0ZM261.3,115.9"/>
</svg>