<?xml version="1.0" encoding="UTF-8"?>
<svg id="_레이어_1" data-name="레이어_1" xmlns="http://www.w3.org/2000/svg" version="1.1" viewBox="0 0 24.4 24.4">
  <!-- Generator: Adobe Illustrator 29.1.0, SVG Export Plug-In . SVG Version: 2.1.0 Build 142)  -->
  <defs>
    <style>
      .st0 {
        fill: #4f4e9f;
        fill-rule: evenodd;
      }
    </style>
  </defs>
  <path class="st0" d="M0,10.4c0-2.5,2-4.6,4.6-4.6h15.2c2.5,0,4.6,2,4.6,4.6v3.9c0,2.5-2,4.6-4.6,4.6H4.6c-2.5,0-4.6-2-4.6-4.6v-3.9ZM4.6,7.6c-1.5,0-2.7,1.2-2.7,2.7v3.9c0,1.5,1.2,2.7,2.7,2.7h15.2c1.5,0,2.7-1.2,2.7-2.7v-3.9c0-1.5-1.2-2.7-2.7-2.7H4.6ZM4.6,7.6"/>
  <path class="st0" d="M4.4,20.2h15.6c.8,0,1.6.4,2.2,1,.6.6.9,1.4.9,2.2s-.4.9-.9.9-.9-.4-.9-.9-.1-.6-.4-.9c-.2-.2-.6-.4-.9-.4H4.4c-.3,0-.7.1-.9.4h0c-.3.2-.4.6-.4.9,0,.5-.4.9-.9.9s-.9-.4-.9-.9c0-.9.4-1.7,1-2.2.6-.6,1.4-.9,2.2-.9h0ZM4.4,20.2"/>
  <path class="st0" d="M2.2,0c.5,0,.9.4.9.9s.1.7.4.9h0c.2.3.6.4.9.4h15.5c.4,0,.7-.2.9-.4h0c.2-.3.4-.6.4-1,0-.5.4-.9.9-.9s.9.4.9.9c0,.8-.3,1.7-.9,2.3-.6.6-1.4,1-2.2,1H4.4c-.8,0-1.6-.4-2.2-1-.6-.6-.9-1.4-.9-2.3s.4-.9.9-.9h0ZM2.2,0"/>
</svg>