<?xml version="1.0" encoding="UTF-8"?>
<svg id="_레이어_1" data-name="레이어_1" xmlns="http://www.w3.org/2000/svg" version="1.1" viewBox="0 0 330.1 363">
  <!-- Generator: Adobe Illustrator 29.1.0, SVG Export Plug-In . SVG Version: 2.1.0 Build 142)  -->
  <defs>
    <style>
      .st0 {
        fill: #4f4e9f;
      }
    </style>
  </defs>
  <path class="st0" d="M165.1,121.5c-33.1,0-60,26.9-60,60s26.9,60,60,60,60-26.9,60-60-26.9-60-60-60h0ZM129.1,181.5c0-19.9,16.1-36,36-36s36,16.1,36,36-16.1,36-36,36-36-16.1-36-36h0ZM129.1,181.5"/>
  <path class="st0" d="M219.7,41.2c-15.7-55-93.6-55-109.3,0-4.9,17-22.4,27.1-39.5,22.8C15.4,50.2-23.5,117.6,16.3,158.7c12.3,12.7,12.3,32.9,0,45.6-39.8,41.1-.8,108.5,54.6,94.6,17.2-4.3,34.7,5.8,39.5,22.8,15.7,55,93.6,55,109.3,0,4.9-17,22.4-27.1,39.5-22.8,55.4,13.9,94.4-53.6,54.6-94.6-12.3-12.7-12.3-32.9,0-45.6,39.8-41.1.8-108.5-54.6-94.6-17.2,4.3-34.7-5.8-39.5-22.8h0ZM133.5,47.8c9.1-31.8,54.1-31.8,63.1,0,8.4,29.5,38.7,47,68.5,39.5,32-8,54.5,30.9,31.6,54.7-21.3,22-21.3,57,0,79,23,23.7.5,62.7-31.6,54.7-29.7-7.5-60,10-68.5,39.5-9.1,31.7-54.1,31.7-63.1,0-8.4-29.5-38.7-47-68.4-39.5-32,8-54.5-30.9-31.6-54.7,21.3-22,21.3-57,0-79-23-23.7-.5-62.7,31.6-54.7,29.7,7.5,60-10,68.4-39.5h0ZM133.5,47.8"/>
</svg>