<?xml version="1.0" encoding="UTF-8"?>
<svg id="_레이어_1" xmlns="http://www.w3.org/2000/svg" version="1.1" viewBox="0 0 384 324">
  <!-- Generator: Adobe Illustrator 29.7.1, SVG Export Plug-In . SVG Version: 2.1.1 Build 8)  -->
  <path d="M328.5,324c-30.60001,0-55.5-24.89999-55.5-55.5v-130.5c0-30.6,24.89999-55.5,55.5-55.5s55.5,24.9,55.5,55.5v130.5c0,30.60001-24.89999,55.5-55.5,55.5h0ZM328.5,112.5c-14.10001,0-25.5,11.4-25.5,25.5v130.5c0,14.10001,11.39999,25.5,25.5,25.5s25.5-11.39999,25.5-25.5v-130.5c0-14.1-11.39999-25.5-25.5-25.5h0ZM55.5,324c-30.6,0-55.5-24.89999-55.5-55.5v-40.5c0-30.60001,24.9-55.5,55.5-55.5s55.5,24.89999,55.5,55.5v40.5c0,30.60001-24.9,55.5-55.5,55.5h0ZM55.5,202.5c-14.1,0-25.5,11.39999-25.5,25.5v40.5c0,14.10001,11.4,25.5,25.5,25.5s25.5-11.39999,25.5-25.5v-40.5c0-14.10001-11.4-25.5-25.5-25.5h0ZM192,324c-30.60001,0-55.5-24.89999-55.5-55.5V55.5c0-30.6,24.89999-55.5,55.5-55.5s55.5,24.9,55.5,55.5v213c0,30.60001-24.89999,55.5-55.5,55.5h0ZM192,30c-14.10001,0-25.5,11.4-25.5,25.5v213c0,14.10001,11.39999,25.5,25.5,25.5s25.5-11.39999,25.5-25.5V55.5c0-14.1-11.39999-25.5-25.5-25.5h0Z" style="fill: #0562fe;"/>
</svg>