<?xml version="1.0" encoding="UTF-8"?>
<svg id="_레이어_1" data-name="레이어_1" xmlns="http://www.w3.org/2000/svg" version="1.1" viewBox="0 0 12.2 9.4">
  <!-- Generator: Adobe Illustrator 29.1.0, SVG Export Plug-In . SVG Version: 2.1.0 Build 142)  -->
  <defs>
    <style>
      .st0 {
        fill: #4f4e9f;
      }
    </style>
  </defs>
  <path class="st0" d="M7.8,0H3.1C0,0,0,1.5,0,4.7s0,4.7,3.1,4.7h4.7c2.2,0,4.4-3,4.4-4.7S10,0,7.8,0ZM7.8,8.2H3.1c-1.9,0-2-.1-2-3.6s0-3.6,2-3.6h4.7c1.6,0,3.3,2.5,3.3,3.6s-1.7,3.6-3.3,3.6Z"/>
  <path class="st0" d="M7.6,6c0,.4-.3.8-.8.8s-.8-.3-.8-.8.3-.8.8-.8.8.3.8.8h0ZM7.6,6"/>
  <path class="st0" d="M5,3.4c0,.4-.3.8-.8.8s-.8-.3-.8-.8.3-.7.8-.7.8.3.8.7h0ZM5,3.4"/>
  <path class="st0" d="M6.6,2.8l-3,3c-.2.2-.2.6,0,.8.2.2.6.2.8,0l3-3c.5-.5-.3-1.3-.8-.8h0ZM6.6,2.8"/>
</svg>