<?xml version="1.0" encoding="UTF-8"?>
<svg id="_레이어_1" xmlns="http://www.w3.org/2000/svg" version="1.1" viewBox="0 0 336 336">
  <!-- Generator: Adobe Illustrator 29.7.1, SVG Export Plug-In . SVG Version: 2.1.1 Build 8)  -->
  <path d="M168,0C75.4,0,0,75.4,0,168s75.4,168,168,168,168-75.39999,168-168S260.60001,0,168,0h0ZM168,307c-76.6,0-139-62.39999-139-139S91.4,29,168,29s139,62.4,139,139-62.39999,139-139,139h0Z" style="fill: #0562fe;"/>
  <path d="M248.60001,146.7l-22.3-12.2c-10.5-5.7-19-14.2-24.8-24.7l-12.2-22.3c-4.3-7.8-12.39999-12.6-21.3-12.6s-17,4.8-21.3,12.6l-12.2,22.3c-5.7,10.4-14.3,19-24.8,24.7l-22.3,12.2c-7.8,4.2-12.7,12.39999-12.7,21.3s4.8,17.10001,12.7,21.3l22.3,12.2c10.5,5.7,19,14.2,24.8,24.7l12.2,22.3c4.3,7.79999,12.39999,12.60001,21.3,12.60001s17-4.79999,21.3-12.60001l12.2-22.3c5.7-10.39999,14.3-19,24.8-24.7l22.3-12.2c7.79999-4.2,12.70001-12.39999,12.70001-21.3s-4.79999-17.10001-12.7-21.3h-.00002ZM222.7,168l-11.3,6.2c-15.7,8.5-28.5,21.3-37.10001,37l-6.3,11.39999-6.3-11.39999c-8.60001-15.7-21.5-28.5-37.1-37l-11.3-6.2,11.3-6.2c15.7-8.5,28.49999-21.3,37.1-37l6.3-11.4,6.3,11.4c8.60001,15.7,21.39999,28.5,37.10001,37l11.3,6.2Z" style="fill: #0562fe;"/>
</svg>