<?xml version="1.0" encoding="UTF-8"?>
<svg id="_레이어_1" xmlns="http://www.w3.org/2000/svg" version="1.1" viewBox="0 0 14.6 14.6">
  <!-- Generator: Adobe Illustrator 29.7.1, SVG Export Plug-In . SVG Version: 2.1.1 Build 8)  -->
  <path d="M14.2,3.4c-.6-1.1-1.7-1.9-3.7-2.7C8.4-.1,6.1-.6,4.5,1.4c-.2.2-.2.6,0,.8s.6.2.8,0c1-1.2,2.3-1.3,4.8-.4,1.7.6,2.7,1.3,3.1,2.1.4.9.3,2.1-.3,3.9-.2.4-.3.8-.5,1.2-.1.3,0,.6.2.8h.3c.2,0,.4-.1.5-.3.2-.4.4-.9.6-1.4.8-2.1.8-3.6.3-4.8h0l-.1.1Z" style="fill: #0562fe;"/>
  <path d="M5.8,3C1.5,3,0,4.5,0,8.8s1.6,5.8,5.8,5.8,5.8-1.6,5.8-5.8-1.5-5.8-5.8-5.8h0ZM1.1,8.8c0-3.6,1.1-4.7,4.7-4.7s4.6,1,4.7,4.1c-3.1,0-5.9,2-7.1,4.8v.1c-1.7-.5-2.3-1.8-2.3-4.4h0v.1ZM5.8,13.5h-1.3c1.1-2.4,3.4-4,6-4-.1,3.1-1.3,4.1-4.7,4.1h0v-.1Z" style="fill: #0562fe;"/>
  <path d="M5,6.9c0,.5-.4.9-.9.9s-.9-.4-.9-.9.4-.9.9-.9.9.4.9.9h0Z" style="fill: #0562fe;"/>
</svg>