<?xml version="1.0" encoding="UTF-8"?>
<svg id="_레이어_1" xmlns="http://www.w3.org/2000/svg" version="1.1" viewBox="0 0 330.10001 363">
  <!-- Generator: Adobe Illustrator 29.7.1, SVG Export Plug-In . SVG Version: 2.1.1 Build 8)  -->
  <path d="M165.10001,121.5c-33.10001,0-60,26.89999-60,60s26.89999,60,60,60,60-26.89999,60-60-26.89999-60-60-60h0ZM129.10001,181.5c0-19.89999,16.10001-36,36-36s36,16.10001,36,36-16.10001,36-36,36-36-16.10001-36-36h0Z" style="fill: #0562fe;"/>
  <path d="M219.7,41.2c-15.7-55-93.6-55-109.3,0-4.9,17-22.4,27.1-39.5,22.8C15.4,50.2-23.5,117.6,16.3,158.7c12.3,12.7,12.3,32.90001,0,45.59999-39.8,41.10001-.8,108.5,54.59999,94.60001,17.2-4.29999,34.7,5.79999,39.5,22.79999,15.7,55,93.60001,55,109.3,0,4.89999-17,22.39999-27.10001,39.50002-22.79999,55.39999,13.89999,94.39999-53.60001,54.60001-94.60001-12.29999-12.7-12.29999-32.89999,0-45.60001,39.79999-41.1.79999-108.5-54.60001-94.6-17.2,4.3-34.7-5.8-39.5-22.8h0l-.00002-.09998ZM133.5,47.8c9.10001-31.8,54.10001-31.8,63.10001,0,8.39999,29.5,38.7,47,68.5,39.5,32-8,54.5,30.9,31.60001,54.7-21.29999,22-21.29999,57,0,79,23,23.7.5,62.70001-31.60001,54.70001-29.7-7.5-60,10-68.5,39.5-9.10001,31.70001-54.10001,31.70001-63.10001,0-8.4-29.5-38.7-47-68.4-39.5-32,8-54.5-30.89999-31.6-54.7,21.3-22,21.3-57,0-79-23-23.7-.5-62.7,31.6-54.7,29.7,7.5,60-10,68.4-39.5h0v-.00002Z" style="fill: #0562fe;"/>
</svg>