<?xml version="1.0" encoding="UTF-8"?>
<svg id="_레이어_1" xmlns="http://www.w3.org/2000/svg" version="1.1" viewBox="0 0 347 347">
  <!-- Generator: Adobe Illustrator 29.7.1, SVG Export Plug-In . SVG Version: 2.1.1 Build 8)  -->
  <path d="M260.20001,192.60001c-7.10001-3.7-15.89999-.89999-19.5,6.2-4.8,9.2-14.10001,19-24.89999,26.39999-13.3,9-27.89999,13.8-42.2,13.8s-29-4.8-42.2-13.8c-10.8-7.39999-20.1-17.2-24.9-26.39999-1.8-3.39999-4.8-6-8.5-7.10001-3.7-1.2-7.6-.8-11.1.89999-3.4,1.8-6,4.8-7.1,8.5-1.2,3.7-.8,7.60001.9,11.10001,7,13.39999,19.5,26.89999,34.3,37,12.6,8.59999,33,18.8,58.60001,18.8s45.89999-10.20001,58.60001-18.8c14.8-10.10001,27.29999-23.60001,34.29999-37,3.70001-7.10001.89999-15.89999-6.20001-19.5l-.10001-.09999Z" style="fill: #0562fe;"/>
  <path d="M173.5-1C77.3-1-1,77.3-1,173.5s78.3,174.5,174.5,174.5,174.5-78.29999,174.5-174.5S269.70001-1,173.5-1ZM173.5,319c-80.2,0-145.5-65.3-145.5-145.5S93.3,28,173.5,28s145.5,65.3,145.5,145.5-65.3,145.5-145.5,145.5Z" style="fill: #0562fe;"/>
  <path d="M125.5,128c10.2,0,18.5-8.3,18.5-18.5s-8.3-18.5-18.5-18.5-18.5,8.3-18.5,18.5,8.3,18.5,18.5,18.5Z" style="fill: #0562fe;"/>
  <path d="M221.5,128c10.2,0,18.5-8.3,18.5-18.5s-8.3-18.5-18.5-18.5-18.5,8.3-18.5,18.5,8.3,18.5,18.5,18.5Z" style="fill: #0562fe;"/>
</svg>