<?xml version="1.0" encoding="UTF-8"?>
<svg id="Layer_1" xmlns="http://www.w3.org/2000/svg" version="1.1" viewBox="0 0 200 200">
  <!-- Generator: Adobe Illustrator 29.7.1, SVG Export Plug-In . SVG Version: 2.1.1 Build 8)  -->
  <path d="M144.65,128.14392c-1.15897,0-2.08995.94055-2.08995,2.09013,0,1.15897.93098,2.08995,2.08995,2.08995,1.14946,0,2.08995-.93098,2.08995-2.08995,0-1.14958-.94049-2.09013-2.08995-2.09013Z" style="fill: #fff;"/>
  <path d="M53.83002,128.14392c-1.14958,0-2.09007.94055-2.09007,2.09013,0,1.15897.94049,2.08995,2.09007,2.08995,1.15897,0,2.08995-.93098,2.08995-2.08995,0-1.14958-.93098-2.09013-2.08995-2.09013Z" style="fill: #fff;"/>
  <path d="M166.79456,22.56062H33.20544c-1.5739,0-2.85,1.27563-2.85,2.85v126.92056c0,1.57437,1.2761,2.85,2.85,2.85h8.2842v19.4082c0,1.57437,1.2761,2.85,2.85,2.85h22.2582c1.5739,0,2.85-1.27563,2.85-2.85v-19.4082h61.1043v19.4082c0,1.57437,1.2761,2.85,2.85,2.85h22.2582c1.5739,0,2.85-1.27563,2.85-2.85v-19.4082h8.2842c1.5739,0,2.85-1.27563,2.85-2.85V25.41062c0-1.57437-1.2761-2.85-2.85-2.85ZM163.94456,107.68918c-2.322-1.71595-5.18186-2.7439-8.2842-2.7439h-8.27446v-32.775c0-7.71133-6.27288-13.98466-13.98374-13.98466h-30.55215v-29.925h61.09456v79.42856ZM58.32339,104.94529v-32.775c0-4.56816,3.71187-8.28466,8.27446-8.28466h66.8043c4.5677,0,8.28374,3.71651,8.28374,8.28466v32.775H58.32339ZM97.15,28.26062v29.925h-30.55215c-7.70576,0-13.97446,6.27334-13.97446,13.98466v32.775h-8.28374c-3.10234,0-5.9622,1.02793-8.2842,2.7439V28.26062h61.09456ZM63.74785,171.73938h-16.55821v-16.5582h16.5582s0,16.5582,0,16.5582ZM152.81035,171.73938h-16.5582v-16.5582h16.5582v16.5582ZM163.94456,149.48118H36.05544v-30.55215c0-4.56724,3.7165-8.28374,8.2842-8.28374h111.32071c4.5677,0,8.2842,3.7165,8.2842,8.28374v30.55215Z" style="fill: #fff;"/>
  <path d="M122.26794,127.1942h-44.53589c-1.5739,0-2.85,1.27563-2.85,2.85s1.2761,2.85,2.85,2.85h44.53589c1.5739,0,2.85-1.27563,2.85-2.85s-1.2761-2.85-2.85-2.85Z" style="fill: #fff;"/>
</svg>