<?xml version="1.0" encoding="UTF-8"?>
<svg id="Layer_1" xmlns="http://www.w3.org/2000/svg" version="1.1" viewBox="0 0 200 200">
  <!-- Generator: Adobe Illustrator 29.7.1, SVG Export Plug-In . SVG Version: 2.1.1 Build 8)  -->
  <path d="M156.37988,115.64941h-12.5293c-1.10449,0-2,.89551-2,2s.89551,2,2,2h10.5293v2.94727c0,1.10449.89551,2,2,2s2-.89551,2-2v-4.94727c0-1.10449-.89551-2-2-2Z" style="fill: #fff;"/>
  <path d="M195.25781,113.4331v-.00049l-8.82617-7.83838c-.67383-.59302-1.22388-1.29907-1.6377-2.09961l-3.67432-10.328-6.56494-18.45862c-.02734-.07666-.05957-.15137-.0957-.22412-1.7207-3.43994-5.17676-5.57666-9.01953-5.57666h-37.0293v-14.35498c0-4.18506-3.40527-7.58984-7.58984-7.58984h-2.68066c-1.29785,0-2.52026.32874-3.58984.90552v-17.81665c0-3.92578-3.19434-7.11963-7.12012-7.11963h-38.58984c-3.92578,0-7.12012,3.19385-7.12012,7.11963v41.71631H20.00977c-3.92578,0-7.12012,3.19385-7.12012,7.12012v41.70801h-4.37012c-4.18457,0-7.58984,3.40479-7.58984,7.58984v16.58105c0,4.14941,3.37402,7.5249,7.52051,7.5249h10.89697c-.17896,1.11133-.29736,2.24268-.29736,3.40381,0,11.78516,9.58691,21.37305,21.37012,21.37305s21.37012-9.58789,21.37012-21.37305c0-1.16113-.11841-2.29248-.29736-3.40381h43.10791c.02148,0,.04199-.00049.06348-.00098h21.74609c.00342,0,.00635-.00098.00977-.00098h16.74805c-.1792,1.11194-.29785,2.24402-.29785,3.40576,0,11.78516,9.58691,21.37305,21.37012,21.37305s21.37012-9.58789,21.37012-21.37305c0-1.16174-.11865-2.29382-.29785-3.40576h7.59766c3.39648,0,6.16016-2.76367,6.16016-6.16113v-24.1958c0-3.24854-1.38965-6.34668-3.8125-8.49951h-.00003ZM82.61034,26.93164h11.0498v14.64404c0,.67188-.54785,1.21875-1.2207,1.21875h-8.60938c-.67285,0-1.21973-.54688-1.21973-1.21875v-14.64404h.00002ZM65.71973,30.05127c0-1.72021,1.39941-3.11963,3.12012-3.11963h9.77051v14.64404c0,2.87744,2.3418,5.21875,5.21973,5.21875h8.60938c2.87891,0,5.2207-2.34131,5.2207-5.21875v-14.64404h9.76953c1.7207,0,3.12012,1.39941,3.12012,3.11963v41.70898h-44.83008s0-41.70898,0-41.70898ZM93.66016,75.76758v14.64404c0,.67188-.54785,1.21875-1.2207,1.21875h-8.60938c-.67285,0-1.21973-.54688-1.21973-1.21875v-14.64404h11.04981ZM65.71973,75.76758h12.89062v14.64404c0,2.87744,2.3418,5.21875,5.21973,5.21875h8.60938c2.87891,0,5.2207-2.34131,5.2207-5.21875v-14.64404h12.88965v44.82812h-44.83008v-44.82812ZM33.76953,75.76758h11.06055v14.64404c0,.67188-.54688,1.21875-1.21973,1.21875h-8.62012c-.67285,0-1.2207-.54688-1.2207-1.21875v-14.64404ZM16.88965,78.88769c0-1.72021,1.39941-3.12012,3.12012-3.12012h9.75977v14.64404c0,2.87744,2.3418,5.21875,5.2207,5.21875h8.62012c2.87793,0,5.21973-2.34131,5.21973-5.21875v-14.64404h12.88965v44.82812H16.88965s0-41.70801,0-41.708ZM40.41992,173.06836c-9.57812,0-17.37012-7.79346-17.37012-17.37305,0-1.72876.26172-3.396.73389-4.97302.06689-.22473.14697-.44299.22266-.66333.09717-.28186.19629-.56262.30713-.83777.08667-.21509.17969-.42639.27466-.63684.12085-.26819.24854-.53235.38257-.79309.10645-.20691.21313-.41357.32739-.61548.1394-.24658.28979-.48596.44092-.72498.12866-.20337.25269-.41028.38965-.60754.13916-.20142.29175-.39197.43921-.58704.3728-.49194.76636-.9657,1.18726-1.4137.06714-.07178.13013-.14746.19849-.21826.25977-.26721.53223-.521.80811-.771.0835-.07593.16553-.15356.25073-.22803.28931-.25195.58716-.49377.89209-.72632.06934-.05298.13965-.10498.20972-.15698.33008-.2439.66577-.47949,1.01221-.69971.01392-.00879.02832-.01697.04199-.02576,1.10815-.70044,2.29785-1.27356,3.54395-1.71179.0686-.02405.13574-.052.20483-.0752.3208-.10828.64819-.19934.97583-.28894.18994-.05139.37988-.10254.57251-.14758.27954-.06616.56177-.125.8457-.17749.27588-.05005.55493-.09082.83521-.12781.22803-.03052.45532-.06458.68555-.08594.48779-.04443.98047-.07178,1.47876-.07483.03662-.00024.07251-.00464.10913-.00464s.07251.00439.10913.00464c.49829.00305.99097.0304,1.47876.07483.23022.02136.45752.05542.68555.08594.28027.03699.55933.07776.83521.12781.28394.05249.56616.11133.8457.17749.19263.04504.38257.09619.57251.14758.32788.08948.65503.18066.97559.28894.06958.02319.13672.05127.20581.07544,1.24585.43823,2.4353,1.01123,3.54321,1.71155.01367.00879.02808.01697.04199.02576.34644.22021.68213.45581,1.01221.69971.07007.052.14038.104.20972.15698.30493.23254.60278.47437.89209.72632.08521.07446.16724.1521.25073.22803.27588.25.54834.50378.80811.771.06836.0708.13135.14648.19849.21826.42017.44727.81323.92017,1.18555,1.41113.14795.19604.30151.3877.44141.59009.13647.1969.26025.40332.38867.60632.15112.23926.30176.47888.44141.72571.11426.2019.22119.40869.32764.61584.13379.26038.26147.52405.38208.79187.09497.21094.18848.42285.27515.63843.11084.27478.20972.55505.30664.83643.07593.22058.15576.43896.2229.66394.47217,1.57703.73389,3.24426.73389,4.97302,0,9.57959-7.79199,17.37305-17.37012,17.37305l-.00006.00002ZM124.41016,148.29053h-28.48047c-.02148,0-.04199.00049-.06348.00098h-35.40137c-.0625-.1687-.13916-.32935-.20581-.49585-.09497-.23779-.19043-.47437-.2937-.70801-.16724-.3783-.34912-.74756-.53711-1.11328-.1001-.19507-.19263-.39404-.29834-.58569-.2854-.51489-.5896-1.01697-.91455-1.50366-.15283-.22998-.32178-.44727-.4834-.6709-.19141-.26416-.38257-.5282-.58545-.78271-.21191-.2666-.43286-.5238-.65674-.77979-.16064-.18298-.32422-.36279-.49072-.53992-.26367-.28137-.52979-.55859-.80811-.82556-.09351-.08936-.19189-.17334-.28711-.26111-1.06738-.98767-2.23315-1.86462-3.48438-2.62036-.06592-.03992-.1311-.08105-.19751-.12024-.41138-.24219-.83008-.47046-1.25806-.68555-.08105-.04053-.16309-.07825-.24463-.11792-1.22168-.59399-2.50537-1.07275-3.84277-1.42688-.25-.06677-.49854-.13586-.75146-.19373-.30884-.0697-.62061-.12915-.93433-.1853-.3584-.06519-.71899-.1189-1.08228-.16565-.25439-.0321-.50684-.0675-.76392-.0907-.60767-.05566-1.21948-.09033-1.83716-.09302-.02954,0-.05786-.00439-.0874-.00439s-.05786.00439-.0874.00439c-.61768.00269-1.22949.03735-1.83716.09302-.25708.02319-.50952.05859-.76392.0907-.36328.04675-.72388.10046-1.08228.16565-.31372.05615-.62549.1156-.93433.1853-.25293.05786-.50146.12695-.75098.1936-1.3374.35425-2.62109.83276-3.84277,1.42676-.08179.03979-.16431.07764-.24536.11841-.42798.21484-.84644.44299-1.25732.68518-.06689.03943-.13208.08069-.19849.12073-1.25098.75562-2.4165,1.63245-3.48389,2.62-.09521.08777-.1936.17175-.28711.26111-.27832.26697-.54443.54419-.80811.82556-.1665.17712-.32983.35681-.49048.53967-.22412.25623-.44531.51367-.65723.78052-.20264.25391-.39331.51746-.58423.78101-.16211.224-.33105.44177-.48462.67212-.32495.48669-.62891.98877-.91431,1.50366-.10571.19165-.19824.39062-.29834.58569-.18799.36572-.36987.73499-.53711,1.11328-.10327.23364-.19873.47021-.2937.70801-.06665.1665-.14331.32715-.20581.49585h-11.92477c-1.94141,0-3.52051-1.58105-3.52051-3.5249v-16.58105c0-1.97949,1.61035-3.58984,3.58984-3.58984h6.36035c.00342,0,.00635.00098.00977.00098h97.66016c.00342,0,.00635-.00098.00977-.00098h11.85059v23.69482l-.00002-.00002ZM124.41016,70.90723v49.68408h-9.86035V54.55225c0-1.97949,1.61035-3.58984,3.58984-3.58984h2.68066c1.97949,0,3.58984,1.61035,3.58984,3.58984v16.35498h.00002ZM174.53906,86.60352l1.58203,4.44678,4.39551,12.3584h-37.02637c-.19824,0-.36035-.1582-.36035-.35303v-16.1001c0-.19434.16211-.35205.36035-.35205,0,0,31.04883,0,31.04883,0ZM164.24023,173.06836c-9.57812,0-17.37012-7.79346-17.37012-17.37305,0-1.73608.26318-3.41064.73926-4.99377.06006-.20032.13184-.3949.19873-.5918.10498-.30798.21362-.61414.33521-.91418.07935-.19592.16406-.38855.25024-.58057.13013-.29004.26807-.57568.41333-.85706.09741-.18835.19482-.37683.29858-.56079.15332-.27185.31836-.53589.4856-.79846.11499-.18018.22485-.36426.34595-.53955.17651-.25586.36816-.49976.55762-.74536.30127-.38904.61694-.76465.94873-1.12573.11572-.12634.22607-.25732.34546-.38013.23975-.24609.4917-.47974.74536-.71118.10645-.09753.21167-.19653.32056-.2915.27246-.23645.55249-.46362.83862-.68286.09155-.07007.18408-.13867.27686-.20715.31104-.22864.62695-.45068.95239-.65845.0459-.0293.09351-.05603.13965-.08484,1.05591-.6604,2.1853-1.20508,3.36597-1.62891.11279-.04041.22314-.08569.33716-.12378.29517-.09888.59595-.18225.89697-.2655.22021-.06042.44067-.11951.66431-.17126.25488-.05981.51196-.11353.77051-.16162.3103-.05713.62402-.10376.93994-.14404.19629-.02539.39136-.05505.58911-.07373.53198-.04932,1.06909-.08179,1.61401-.08179s1.08203.03247,1.61401.08179c.19775.01868.39282.04834.58911.07373.31592.04028.62964.08691.93994.14404.25854.0481.51562.10181.77051.16162.22363.05176.44409.11084.66431.17126.30103.08337.60205.1665.89697.2655.11377.03796.22388.08325.33643.12354,1.1814.42407,2.31128.96899,3.36816,1.62988.04541.02856.09229.05493.13745.08374.32617.20825.64282.43066.95435.65991.0918.06763.18335.1355.27393.20483.28735.22009.56836.448.8418.68555.10718.09326.21021.19043.31494.28625.25562.23315.50952.46851.75122.71667.11279.11621.21704.23999.32642.35938.34521.37463.67285.76538.98511,1.17017.18164.23645.36621.47046.53564.71631.12549.18103.23877.37085.35742.55701.16235.25574.32324.51257.47241.7771.10767.1908.20874.38586.30933.58118.14038.27246.27393.54858.3999.8291.09058.20142.17969.40344.2627.60913.11548.28577.21875.57751.31909.87061.07202.21094.14868.41943.21289.63428.47388,1.5796.73608,3.24976.73608,4.98145,0,9.57959-7.79199,17.37305-17.37012,17.37305v-.00003ZM195.07031,146.12842c0,1.19141-.96875,2.16113-2.16016,2.16113h-8.625c-.06421-.17371-.14331-.33911-.21191-.5105-.09131-.22815-.18311-.4552-.28174-.67932-.17432-.39514-.36377-.78064-.56055-1.16187-.09253-.17932-.17725-.36267-.27466-.53906-.28931-.52295-.5979-1.03259-.92798-1.52625-.13892-.20801-.29199-.40454-.43774-.60742-.20752-.28796-.41602-.57471-.63696-.85132-.20068-.25195-.40967-.49512-.62109-.73767-.17603-.20081-.35498-.39783-.53809-.5918-.25-.26624-.50244-.52917-.76562-.78235-.12109-.11584-.24805-.22473-.37158-.33765-1.03442-.94922-2.15967-1.79504-3.36523-2.52783-.09375-.05688-.18604-.11523-.28076-.17078-.39111-.22974-.78906-.44666-1.1958-.65173-.11206-.0564-.22583-.10889-.33887-.16345-1.17578-.56702-2.40796-1.02783-3.69043-1.37341-.29004-.07898-.57959-.15845-.87354-.22522-.28394-.0636-.57031-.11804-.8584-.17029-.39111-.0719-.78516-.13098-1.18213-.18091-.22607-.02795-.45044-.05969-.67847-.08057-.64575-.06006-1.29614-.09985-1.95337-.09985s-1.30713.03979-1.95288.09985c-.22876.02087-.45337.05273-.67993.08069-.396.04993-.78955.10876-1.17969.18054-.28906.05237-.57617.10693-.86084.17078-.29224.06628-.57983.14539-.86792.22375-1.28638.34644-2.52197.80859-3.70093,1.37744-.10986.05322-.2207.10413-.32959.15918-.40869.20581-.80835.42383-1.20166.65454-.09229.0542-.18237.11108-.27368.16663-1.20825.73401-2.33594,1.58154-3.37231,2.53259-.12256.1123-.24854.22021-.36865.33521-.26318.25317-.51514.51562-.76514.78174-.18408.19507-.36426.39331-.54102.59521-.20996.24097-.41797.48267-.61719.73291-.2251.28149-.43701.573-.64795.86609-.14185.19763-.29126.38879-.42627.59131-.33252.49695-.64331,1.00989-.93408,1.53638-.0918.16614-.17139.33875-.25879.50745-.20361.39331-.39893.7915-.57861,1.19946-.09424.21399-.18164.43066-.26904.64807-.07129.17761-.15308.34924-.21973.52942h-15.78418v-75.38231h37.0293c2.28027,0,4.33496,1.24805,5.38965,3.26465l2.2876,6.43164h-29.62646c-2.4043,0-4.36035,1.95215-4.36035,4.35205v16.1001c0,2.40039,1.95605,4.35303,4.36035,4.35303h39.15137c.35303.41821.72705.81873,1.14062,1.18262l8.81934,7.83203c1.56836,1.39453,2.46875,3.40234,2.46875,5.50928v24.1958Z" style="fill: #fff;"/>
  <path d="M164.24023,146.03223c-5.32617,0-9.66016,4.33545-9.66016,9.66405s4.33398,9.66406,9.66016,9.66406c5.33203,0,9.66992-4.33545,9.66992-9.66406s-4.33789-9.66406-9.66992-9.66405ZM164.24023,161.36035c-3.12109,0-5.66016-2.54102-5.66016-5.66406s2.53906-5.66406,5.66016-5.66406c3.12598,0,5.66992,2.54102,5.66992,5.66406s-2.54395,5.66406-5.66992,5.66406Z" style="fill: #fff;"/>
  <path d="M40.41992,146.03223c-5.32617,0-9.66016,4.33545-9.66016,9.66405s4.33398,9.66406,9.66016,9.66406c5.33203,0,9.66992-4.33545,9.66992-9.66406s-4.33789-9.66406-9.66992-9.66405ZM40.41992,161.36035c-3.12109,0-5.66016-2.54102-5.66016-5.66406s2.53906-5.66406,5.66016-5.66406c3.12598,0,5.66992,2.54102,5.66992,5.66406s-2.54395,5.66406-5.66992,5.66406Z" style="fill: #fff;"/>
</svg>