<?xml version="1.0" encoding="UTF-8"?>
<svg id="Layer_1" xmlns="http://www.w3.org/2000/svg" version="1.1" viewBox="0 0 200 200">
  <!-- Generator: Adobe Illustrator 29.7.1, SVG Export Plug-In . SVG Version: 2.1.1 Build 8)  -->
  <path d="M192.18247,133.94279c.00023-.01919.00557-.03705.00557-.05636,0-.05346-.01276-.10333-.01577-.15603-.61787-12.5846-4.07415-24.95745-10.10488-36.01076-1.45933-2.68949-4.26851-4.36035-7.33096-4.36035h-43.32891v-15.21855c0-1.57437-1.27563-2.85-2.85-2.85h-18.80239c4.87061-14.30358,2.7171-28.43355-6.08501-39.81094-.00093,0-.00093-.00093-.00186-.00185-8.12231-10.48246-20.87217-16.74096-34.1063-16.74096-13.23784,0-25.98491,6.2585-34.09795,16.7419-8.80745,11.37194-10.96536,25.49878-6.09661,39.80259H10.56733c-1.57437,0-2.85,1.27563-2.85,2.85v89.14785c0,1.57437,1.27563,2.85,2.85,2.85h19.81595c1.31901,6.3482,6.95104,11.13374,13.68084,11.13374,4.54474,0,8.57806-2.1894,11.13374-5.55817,2.55591,3.36878,6.58924,5.55817,11.13467,5.55817,6.73071,0,12.36415-4.7812,13.68779-11.12493l48.53813-.00881h16.74607c1.32017,6.3482,6.95638,11.13374,13.69104,11.13374,6.73396,0,12.36995-4.78554,13.69011-11.13374h16.747c1.57437,0,2.85-1.27563,2.85-2.85v-29.46948c0-1.29059-.04036-2.57951-.1002-3.86703h0ZM174.73643,99.05927c.97041,0,1.85918.52881,2.32397,1.38418,5.1473,9.43378,8.28281,19.89421,9.21936,30.59296h-32.53796v-12.55874c0-1.57437-1.27563-2.85-2.85-2.85s-2.85,1.27563-2.85,2.85v12.55874h-16.63428v-31.97715s43.32891,0,43.32891,0ZM39.97094,38.96807c7.0415-9.09922,18.10381-14.53111,29.59102-14.53111,11.4835,0,22.54858,5.43188,29.59937,14.53111,7.63154,9.86275,9.45546,22.17935,5.13687,34.68057-3.17749,9.21147-9.2959,17.49614-15.21206,25.50713-1.7998,2.4353-3.65991,4.95503-5.40776,7.45991l-14.11177,20.23203c-4.02915-5.77051-8.05181-11.54009-12.07446-17.3106l-2.0373-2.92236c-1.74878-2.50674-3.61167-5.02739-5.41241-7.46548-5.91523-8.01006-12.03179-16.29194-15.21577-25.50156-4.32046-12.50215-2.49282-24.81782,5.14429-34.67964ZM13.41733,80.98145h18.24529c3.61677,7.77163,8.77543,14.75689,13.79495,21.55405,1.77847,2.40747,3.61724,4.89751,5.32148,7.34023l2.0373,2.92144c4.67949,6.71216,9.35991,13.42525,14.07465,20.17543.10298.14194.20596.29316.30151.43604.5186.77559,1.38418,1.24873,2.31748,1.26543.01762.00093.03433.00093.05195.00093.91381,0,1.7729-.43789,2.31006-1.18008l16.4812-23.61826c1.70332-2.4418,3.54116-4.92905,5.31777-7.33467,5.01927-6.79687,10.17725-13.78109,13.79124-21.55127h18.24529v83.43949l-45.68257.00789c-1.31646-6.35347-6.95522-11.14348-13.69243-11.14348-4.54543,0-8.57876,2.1894-11.13466,5.55835-2.55568-3.36895-6.589-5.55835-11.13374-5.55835-6.72978,0-12.36206,4.78572-13.68106,11.13467H13.41733v-83.44785.00003h0ZM44.06411,175.56304c-4.56259,0-8.27446-3.7165-8.27446-8.28374,0-4.56816,3.71187-8.28467,8.27446-8.28467,4.56724,0,8.28374,3.7165,8.28374,8.28467,0,4.56724-3.7165,8.28374-8.28374,8.28374ZM66.33252,175.56304c-4.56816,0-8.28466-3.7165-8.28466-8.28374,0-4.56816,3.7165-8.28467,8.28466-8.28467,4.56724,0,8.28374,3.7165,8.28374,8.28467,0,4.56724-3.7165,8.28374-8.28374,8.28374ZM158.99556,175.56304c-4.54752,0-8.24802-3.68363-8.28142-8.22245.00046-.02087.00603-.0403.00603-.06129s-.00557-.04041-.00603-.06129c.0334-4.53975,3.7339-8.22338,8.28142-8.22338,4.56724,0,8.28374,3.7165,8.28374,8.28467,0,4.56724-3.7165,8.28374-8.28374,8.28374ZM186.58267,164.4293h-13.897c-1.31993-6.34895-6.95615-11.13467-13.69011-11.13467-6.73489,0-12.37111,4.78572-13.69104,11.13467h-13.897v-27.69287h55.15822c.00487.35782.01693.71534.01693,1.07339v26.61948Z" style="fill: #fff;"/>
  <path d="M69.56196,81.38037c10.78027,0,19.55107-8.7708,19.55107-19.55107s-8.7708-19.55107-19.55107-19.55107-19.55107,8.7708-19.55107,19.55107,8.7708,19.55107,19.55107,19.55107ZM69.56196,47.97822c7.63711,0,13.85107,6.21397,13.85107,13.85108s-6.21397,13.85107-13.85107,13.85107-13.85107-6.21397-13.85107-13.85107,6.21397-13.85107,13.85107-13.85108Z" style="fill: #fff;"/>
</svg>