<?xml version="1.0" encoding="UTF-8"?>
<svg id="_레이어_1" data-name="레이어_1" xmlns="http://www.w3.org/2000/svg" version="1.1" viewBox="0 0 80.2 128">
  <!-- Generator: Adobe Illustrator 29.1.0, SVG Export Plug-In . SVG Version: 2.1.0 Build 142)  -->
  <defs>
    <style>
      .st0 {
        fill: #fff;
        fill-rule: evenodd;
      }
    </style>
  </defs>
  <path class="st0" d="M75.3,100.5c1.5,1.5,2.7,3.2,3.6,5.2.8,1.9,1.3,4.1,1.3,6.2,0,2.1-.4,4.2-1.2,6.2-.8,2-2,3.8-3.5,5.3-1.5,1.5-3.3,2.7-5.3,3.5-2,.8-4.1,1.2-6.2,1.2-2.1,0-4.2-.5-6.2-1.3-2-.8-3.7-2.1-5.2-3.6L4.7,75.1c-3-3-4.7-7.1-4.7-11.3s1.7-8.3,4.7-11.3L52.7,4.5C55.7,1.6,59.7,0,63.9,0c4.2,0,8.2,1.7,11.2,4.7,3,3,4.6,7,4.7,11.2,0,4.2-1.6,8.2-4.5,11.3l-36.7,36.7,36.7,36.7Z"/>
  <path class="st0" d="M75.3,100.5"/>
</svg>