<?xml version="1.0" encoding="UTF-8"?>
<svg id="_레이어_1" data-name="레이어_1" xmlns="http://www.w3.org/2000/svg" version="1.1" viewBox="0 0 557.2 738">
  <!-- Generator: Adobe Illustrator 29.1.0, SVG Export Plug-In . SVG Version: 2.1.0 Build 142)  -->
  <defs>
    <style>
      .st0 {
        fill: #65ceba;
      }

      .st1 {
        fill: #e0e0e0;
      }

      .st2 {
        fill: #f2f2f2;
      }

      .st3 {
        fill: #eaeaea;
      }

      .st4 {
        fill: #f7f7f7;
      }
    </style>
  </defs>
  <path class="st2" d="M1.5,715.4c-2.4-2.2-2-5.2.9-6.6l16.5-8.2c2.9-1.4,6.6-4.9,8.3-7.7l5.5-9.2c1.7-2.8,5.7-5.2,8.9-5.3l62.3-2.9c3.2-.2,7.8,1.5,10.2,3.7l20.6,18.7c2.4,2.2,2.7,6,.6,8.5l-16.8,20.6c-2,2.5-6.4,4.8-9.6,5l-76.6,6c-3.2.3-7.8-1.3-10.2-3.5l-20.6-19Z"/>
  <path class="st2" d="M554.9,213.3c-2.9-1.3-7.1-2.3-9.3-2.1-2.2.1-5.2,1.8-6.6,3.7s-.4,4.8,2.4,6.5l.5.3c2.8,1.7,7.2,1.5,9.9-.3l3.5-2.4c2.7-1.8,2.5-4.4-.4-5.7Z"/>
  <path class="st2" d="M523.8,185c-3.2,0-8.5.6-11.6,1.3l-4.3.9c-3.2.7-6.6,3.8-7.7,6.8l-1.1,3.3c-1.1,3.1.5,6.7,3.4,8,0,0,6.7,3,7.1,3s15-7.3,15-7.3c2.9-1.4,5.6-5.2,6-8.5l.2-1.7c.4-3.2-1.9-5.8-5.2-5.8h-1.9Z"/>
  <g>
    <polygon class="st0" points="435.7 523 435.8 522.9 435.7 523 435.7 523"/>
    <path class="st0" d="M457,497c0,0,0-.2,0-.2l6.9-28.5h0l-6.9,28.5c0,0,0,.2,0,.2Z"/>
    <path class="st0" d="M456.9,497.3c0,0-.1.2-.2.3,0,0,.1-.2.2-.3Z"/>
    <path class="st2" d="M370.7,240.2h-1.4c0,.1-20.9,16-20.9,16v17.1l-15.9,1.5-14.4-12.1-58.2,36.2,13.5,16.5-8.8,35.6,23.5,12.6-17.4,25v.9c0,0,1.9,25.6,1.9,25.6l.7-.3,31.8,41.5,66.2,15,38.2-7.4,10-11.8,44.3,16.3,14.6-60.6c.4-1.5-.9-2.8-2.4-2.7l-14.3,1.9c-1.4.2-2.7-1.1-2.4-2.5l9.8-57.4c0-.2,0-.4,0-.6l-2.5-22.2c0-.5,0-.9.3-1.3l8.7-15c.2-.4.3-.8.3-1.2l-3.2-56.5c0-.3-.1-.7-.3-1l-2.6-4.5-91.3,1.1-8-5.7Z"/>
    <path class="st0" d="M431.9,527.6l-3.6,4.6c2-2.5,5.3-6.7,7.4-9.2l-3.7,4.5Z"/>
    <path class="st0" d="M435.8,522.9l20.9-25.3s0,0,.1-.1c0,0,0,0-.1.1l-20.9,25.3Z"/>
  </g>
  <path class="st1" d="M419.6,452l-10,11.8-38.2,7.4-36.1-8.2-30.1-6.8-31.8-41.5-.7.3-37.8,15.3-13.5,31.5,7.4,23.2-13.1,19.8,4.6,4.9,7.1,30.3,7,29.8-2.9.5,8-1.4c1.2-.2,2.4.7,2.5,2l2,24.7c0,.9.7,1.6,1.5,1.9l20,6c1.1.3,2.3-.3,2.7-1.4l8.7-29c.4-1.2,1.6-1.8,2.8-1.4l46.1,15.9c.7.2,1.5.1,2.1-.4l10.4-8.5c.9-.7,1.1-2,.4-2.9l-10-13.8c-1.1-1.5,0-3.5,1.9-3.4l21.2,1.3c1.6,0,2.8-1.6,2.1-3.1l-7-14.6c-.9-1.9,1.2-3.9,3-2.8l48.9,27.7c.9.5,2.1.3,2.8-.5l20.1-25.8,10.2-13,24.7-29.9c.2-.3.4-.6.4-.9l6.9-28.5-44.3-16.3Z"/>
  <path class="st2" d="M235.3,597.8l-6.8-24.6c-.3-1.2.5-2.5,1.7-2.7l4.1-.7-7-29.8-7.1-30.3-4.6-4.9-13.6-14.5-7.4,10.6-40.3-2.1-7.1-20.9-34.4-13.2-8.2,22.6-22.9,1.2-12.2-12.8-11.2,14.8-3,17.2,7.7,9.8c.4.5.6,1.2.4,1.8l-4.3,19.3-3.3,14.8c0,.3-.2.6-.4.9l-16.6,21.4c-.3.3-.4.8-.4,1.2l-1.7,24.7c0,.5-.3,1-.6,1.4l-22.9,22.4c-.9.9-.9,2.5.2,3.3l11.3,8.8c.7.5,1.6.6,2.4.2l23.1-12.7c1-.6,2.3-.2,2.9.8l14.8,23.9c.5.8,1.5,1.2,2.5.9l53.6-16.8c.8-.2,1.3-.9,1.5-1.7l4.8-24.8c.1-.8.7-1.4,1.4-1.6l26-8.5c2-.7,3.7,1.7,2.4,3.4l-12.6,15.9c-.8.9-.6,2.3.4,3.1l23,17.5c.8.6,2,.6,2.8-.2l23.7-22.6c.8-.8.9-2.1.2-2.9l-12.7-15.5c-.5-.6-.6-1.3-.4-2l2.8-9.1c.4-1.4,2.1-1.9,3.2-1.2.1,0,.2.1.3.2l24.4,22.9c.6.6,1.5.7,2.3.4l16.6-6.4c1-.4,1.6-1.5,1.3-2.6Z"/>
  <path class="st3" d="M207.5,389.4l-12.1-11.8h-1.8c0,0-24.4,1.5-24.4,1.5l-8.2-12.9-21.8-.3-17.6,18.5-10.9-.4c-.1,0-.2.2-.4.2l-7.1,3.2c-1.1.5-1.6,1.7-1.1,2.8l9,20.6c.1.2.2.4.4.6l7.3,7.7c1.4,1.5.2,3.9-1.8,3.6l-11.8-1.5c-.6,0-1.3.1-1.8.6l-21.8,20.8c-1.2,1.1-.7,3.2.9,3.6l16.6,4.9c1.9.6,2.1,3.3.2,4.1l-21.1,9.2c-.3.1-.6.4-.9.7l-8,10.5,12.2,12.8,22.9-1.2,8.2-22.6,34.4,13.2,7.1,20.9,40.3,2.1,7.4-10.6,13.6,14.5,13.1-19.8-7.4-23.2,13.5-31.5,37.8-15.3-1.8-25.6h-63.3Z"/>
  <path class="st3" d="M464.1,234.4c-.2-.4-.3-.9-.3-1.4l1.8-12.9c0-.5,0-1-.3-1.4l-17.8-29.6-16.3-25.7c-.3-.5-.4-1.1-.3-1.6l2.2-10.2c.1-.6,0-1.3-.4-1.8l-23.6-30.1c-.1-.2-.2-.3-.3-.5l-10.1-23.9c0-.1-.1-.3-.2-.4l-14.5-20.1c-.3-.4-.4-.8-.4-1.2l-.3-10.1c0-.2,0-.5-.1-.7L360.1,1.4c-.3-.8-1.1-1.4-2-1.4h-10.6c-1,0-1.9.7-2.1,1.6l-4.7,18.7c-.1.5-.5,1-.9,1.3l-22.6,15.1c-.4.2-.8.4-1.2.4h-117l53.8,50.9,2.6,10.6-15,4.4v33.2l34.7,20.9-12.8,55.9v.5c-.1,0,69-1.5,69-1.5l39.4,28.1,8,5.7,91.3-1.1-5.9-10.3Z"/>
  <path class="st2" d="M177.2,38.1l-31.7,55.5c-.4.7-1.1,1.1-1.8,1.1l-37,1.1c-.9,0-1.7.6-2,1.5l-12.9,39.3c-.3.8,0,1.6.5,2.2l42.6,42.1c1.5,1.4.3,3.9-1.7,3.7l-14.1-1.5c-1-.1-2,.5-2.3,1.6l-4.5,15.7c-.2.7,0,1.4.4,1.9l24.2,30.3c.6.7.6,1.5.3,2.2l48.6,3.6,13.8,14.8,62.8-40.4,12.8-55.9-34.7-20.9v-33.2l15-4.4-2.6-10.6-53.8-50.9h-19.9c-.8,0-1.5.4-1.9,1.1Z"/>
  <path class="st4" d="M199.6,253.3l-13.8-14.8-48.6-3.6c-.3.8-1.1,1.3-2.1,1.3h0c-.3,0-.6-.1-.9-.2l-26.2-13.8c-.5-.3-1.1-.3-1.6-.2l-46.4,13.5c-.8.2-1.4.9-1.5,1.7l-5.8,31.3c-.2,1.2.5,2.3,1.7,2.5l34.9,6.9c.9.2,1.6.9,1.7,1.8l7.3,46.9c0,.3,0,.6,0,.9l-7.8,29.6c-.2.7,0,1.5.5,2l20.1,21.6c.9,1,.7,2.5-.3,3.2l10.9.4,17.6-18.5,21.8.3,8.2,12.9,24.4-1.4v-20.7l-7.6-13.2,22.9-33.8-8.8-30.6,9.4-15.3-10-10.8Z"/>
  <polygon class="st1" points="262.2 213.5 262.4 213 199.6 253.3 209.6 264.1 200.2 279.4 209 310 186.1 343.8 193.7 357 193.7 377.7 195.5 377.6 207.5 389.4 270.8 389.4 270.8 388.5 288.1 363.5 264.6 350.8 273.4 315.3 259.9 298.8 318.1 262.6 332.5 274.7 348.4 273.2 348.4 256.1 369.3 240.3 370.7 240.2 331.4 212 262.2 213.5"/>
</svg>