<?xml version="1.0" encoding="UTF-8"?>
<svg id="_레이어_1" data-name="레이어_1" xmlns="http://www.w3.org/2000/svg" version="1.1" viewBox="0 0 154.1 128.7">
  <!-- Generator: Adobe Illustrator 29.1.0, SVG Export Plug-In . SVG Version: 2.1.0 Build 142)  -->
  <defs>
    <style>
      .st0, .st1 {
        fill: #fff;
      }

      .st1 {
        fill-rule: evenodd;
      }
    </style>
  </defs>
  <path class="st0" d="M98.3,0h-59.1C0,0,0,23.6,0,64.4s0,64.4,39.2,64.4h59.1c28.3,0,55.8-42.5,55.8-64.4S126.5,0,98.3,0ZM98.3,114.5h-59.1c-24,0-24.9-6.7-24.9-50.1s.9-50.1,24.9-50.1h59.1c20.2,0,41.6,36.3,41.6,50.1s-21.3,50.1-41.6,50.1Z"/>
  <path class="st1" d="M48.1,42c2.8-2.8,7.3-2.8,10.1,0l11.8,11.8,11.8-11.8c2.8-2.8,7.3-2.8,10.1,0,2.8,2.8,2.8,7.3,0,10.1l-11.8,11.8,11.8,11.8c2.8,2.8,2.8,7.3,0,10.1s-7.3,2.8-10.1,0l-11.8-11.8-11.8,11.8c-2.8,2.8-7.3,2.8-10.1,0-2.8-2.8-2.8-7.3,0-10.1l11.8-11.8-11.8-11.8c-2.8-2.8-2.8-7.3,0-10.1h0ZM48.1,42"/>
</svg>