<?xml version="1.0" encoding="UTF-8"?>
<svg id="_레이어_1" xmlns="http://www.w3.org/2000/svg" version="1.1" viewBox="0 0 371.6 275.2">
  <!-- Generator: Adobe Illustrator 29.1.0, SVG Export Plug-In . SVG Version: 2.1.0 Build 142)  -->
  <defs>
    <style>
      .st0 {
        fill: #222;
      }
    </style>
  </defs>
  <path class="st0" d="M180.8,275.2c-12.6,0-26.6-4.5-40.5-13.3l-46.7-29.3c-3.2-1.9-6.9-3-10.6-3h-23C21.3,229.6,0,208.3,0,169.6v-64C0,66.9,21.3,45.6,60,45.6h22.9c3.7,0,7.4-1.1,10.6-3l46.7-29.3c23.4-14.6,46.1-17.3,64-7.4,17.9,9.9,27.7,30.6,27.7,58.2v146.7c0,27.5-9.9,48.3-27.7,58.2-7,4.2-15,6.1-23.4,6.1h0ZM63,73.4c-23.9,0-34,10.1-34,34v60.5c0,23.9,10.1,34,34,34h21.6c7.9,0,15.4,2.1,22.1,6.4l44.2,27.7c14.5,9.1,28.3,11.5,37.5,6.4s14.5-18,14.5-35.1V68.3c0-17.2-5.3-30.1-14.5-35.1-9.2-5.1-23-2.9-37.5,6.4l-44.3,27.5c-6.5,4.2-14.2,6.4-21.9,6.4h-21.7Z"/>
  <path class="st0" d="M280,213.7c-2.6,0-5-.8-7.2-2.4-5.3-4-6.4-11.5-2.4-16.8,25.1-33.4,25.1-80.2,0-113.6-4-5.3-2.9-12.8,2.4-16.8,5.3-4,12.8-2.9,16.8,2.4,31.4,41.9,31.4,100.5,0,142.4-2.4,3.2-5.9,4.8-9.6,4.8h0Z"/>
  <path class="st0" d="M325.1,253.7c-2.6,0-5-.8-7.2-2.4-5.3-4-6.4-11.5-2.4-16.8,42.7-57,42.7-136.6,0-193.6-4-5.3-2.9-12.8,2.4-16.8s12.8-2.9,16.8,2.4c49.1,65.4,49.1,157,0,222.4-2.2,3.2-5.9,4.8-9.6,4.8h0Z"/>
</svg>