<?xml version="1.0" encoding="UTF-8"?>
<svg id="_레이어_1" data-name="레이어_1" xmlns="http://www.w3.org/2000/svg" version="1.1" viewBox="0 0 154.1 128.7">
  <!-- Generator: Adobe Illustrator 29.1.0, SVG Export Plug-In . SVG Version: 2.1.0 Build 142)  -->
  <defs>
    <style>
      .st0, .st1 {
        fill: #fff;
      }

      .st1 {
        fill-rule: evenodd;
      }
    </style>
  </defs>
  <path class="st0" d="M98.3,0h-59.1C0,0,0,23.6,0,64.4s0,64.4,39.2,64.4h59.1c28.3,0,55.8-42.5,55.8-64.4S126.5,0,98.3,0ZM98.3,114.5h-59.1c-24,0-24.9-6.7-24.9-50.1s.9-50.1,24.9-50.1h59.1c20.2,0,41.6,36.3,41.6,50.1s-21.3,50.1-41.6,50.1Z"/>
  <path class="st1" d="M102.4,40.3c2.9,2.7,3.1,7.3.4,10.3l-34,36.4c-1.3,1.5-3.2,2.3-5.2,2.3-2,0-3.8-.8-5.3-2.1l-19.4-19.4c-2.8-2.8-2.8-7.5,0-10.3,2.8-2.8,7.5-2.8,10.3,0l14.1,14.1,28.9-30.9c2.7-2.9,7.3-3.1,10.3-.3h0ZM102.4,40.3"/>
</svg>