<?xml version="1.0" encoding="UTF-8"?>
<svg id="_레이어_1" data-name="레이어_1" xmlns="http://www.w3.org/2000/svg" version="1.1" viewBox="0 0 344 344">
  <!-- Generator: Adobe Illustrator 29.1.0, SVG Export Plug-In . SVG Version: 2.1.0 Build 142)  -->
  <defs>
    <style>
      .st0, .st1 {
        fill: #fff;
      }

      .st1 {
        fill-rule: evenodd;
      }
    </style>
  </defs>
  <g>
    <path class="st0" d="M102.7,198.5c-3.1-5.9-10.3-8.2-16.2-5.1-5.9,3-8.2,10.3-5.1,16.2,6.4,12.3,18.2,25.7,33.5,36.1,15.4,10.5,35.1,18.4,57.1,18.4s41.7-7.9,57.1-18.4c15.3-10.4,27.1-23.8,33.5-36.1,3.1-5.9.8-13.1-5.1-16.2-5.9-3.1-13.1-.8-16.2,5.1-4.3,8.3-13.3,18.9-25.7,27.3-12.3,8.4-27.3,14.2-43.7,14.2s-31.3-5.8-43.7-14.2c-12.4-8.5-21.4-19-25.7-27.3h0ZM102.7,198.5"/>
    <path class="st1" d="M172,0C77,0,0,77,0,172s77,172,172,172,172-77,172-172S267,0,172,0h0ZM24,172C24,90.3,90.3,24,172,24s148,66.3,148,148-66.3,148-148,148S24,253.7,24,172h0ZM24,172"/>
  </g>
  <path class="st0" d="M140,108c0,8.8-7.2,16-16,16s-16-7.2-16-16,7.2-16,16-16,16,7.2,16,16h0ZM140,108"/>
  <path class="st0" d="M236,108c0,8.8-7.2,16-16,16s-16-7.2-16-16,7.2-16,16-16,16,7.2,16,16h0ZM236,108"/>
</svg>