<?xml version="1.0" encoding="UTF-8"?>
<svg id="_레이어_1" data-name="레이어_1" xmlns="http://www.w3.org/2000/svg" version="1.1" viewBox="0 0 14.6 14.6">
  <!-- Generator: Adobe Illustrator 29.2.0, SVG Export Plug-In . SVG Version: 2.1.0 Build 108)  -->
  <defs>
    <style>
      .st0 {
        fill: #222;
        fill-rule: evenodd;
      }
    </style>
  </defs>
  <path class="st0" d="M9.5,1.4c-1.4-.3-2.9-.3-4.3,0-1.9.4-3.3,1.9-3.8,3.8-.3,1.4-.3,2.9,0,4.3.4,1.9,1.9,3.3,3.8,3.8,1.4.3,2.9.3,4.3,0,1.9-.4,3.3-1.9,3.8-3.8.3-1.4.3-2.9,0-4.3-.4-1.9-1.9-3.3-3.8-3.8h0ZM4.9.3c1.6-.4,3.2-.4,4.8,0,2.3.5,4.1,2.3,4.6,4.6.4,1.6.4,3.2,0,4.8-.5,2.3-2.3,4.1-4.6,4.6-1.6.4-3.2.4-4.8,0-2.3-.5-4.1-2.3-4.6-4.6C0,8.1,0,6.5.3,4.9.8,2.6,2.6.8,4.9.3h0ZM6.5,4.2c.2.2.2.6,0,.8l-1.6,1.6c-.2.2-.6.2-.8,0l-.8-.8c-.2-.2-.2-.6,0-.8.2-.2.6-.2.8,0l.4.4,1.2-1.2c.2-.2.6-.2.8,0h0ZM7.5,5.8c0-.3.2-.6.6-.6h2.7c.3,0,.6.3.6.6s-.3.6-.6.6h-2.7c-.3,0-.6-.3-.6-.6h0ZM6.5,8.1c.2.2.2.6,0,.8l-1.6,1.6c-.2.2-.6.2-.8,0l-.8-.8c-.2-.2-.2-.6,0-.8.2-.2.6-.2.8,0l.4.4,1.2-1.2c.2-.2.6-.2.8,0h0ZM7.5,9.7c0-.3.2-.6.6-.6h2.7c.3,0,.6.3.6.6s-.3.6-.6.6h-2.7c-.3,0-.6-.2-.6-.6h0ZM7.5,9.7"/>
</svg>