<?xml version="1.0" encoding="UTF-8"?>
<svg id="_레이어_1" data-name="레이어_1" xmlns="http://www.w3.org/2000/svg" version="1.1" viewBox="0 0 288 320">
  <!-- Generator: Adobe Illustrator 29.2.0, SVG Export Plug-In . SVG Version: 2.1.0 Build 108)  -->
  <defs>
    <style>
      .st0 {
        fill: #232323;
        fill-rule: evenodd;
      }
    </style>
  </defs>
  <path class="st0" d="M144,23.7c-67,0-123.5,48.7-118.9,109.3.7,8.7,1.6,16.3,3,22.3,6.8,30.3,28.1,60.4,52.1,85.9,23.8,25.3,49.1,45,62.2,54.6,1,.8,2.3.8,3.3,0,13.1-9.6,38.4-29.3,62.2-54.6,24-25.5,45.3-55.6,52.1-85.9,1.3-6,2.3-13.6,3-22.3,4.6-60.6-51.9-109.3-118.9-109.3h0ZM.3,134.7C-5.5,57.3,66,0,144,0s149.5,57.3,143.7,134.7c-.7,9.3-1.8,18-3.5,25.5-8.1,36.3-32.8,70.2-57.8,96.8-25.2,26.8-51.8,47.6-65.6,57.6-10,7.3-23.6,7.3-33.5,0-13.7-10-40.4-30.8-65.6-57.6-25-26.6-49.7-60.5-57.8-96.8-1.7-7.5-2.8-16.2-3.5-25.5H.3ZM.3,134.7"/>
  <path class="st0" d="M144,118.3c-11.4,0-20.7,8.8-20.7,19.7s9.3,19.7,20.7,19.7,20.7-8.8,20.7-19.7-9.3-19.7-20.7-19.7h0ZM98.5,138.1c0-24,20.4-43.4,45.5-43.4s45.5,19.4,45.5,43.4-20.4,43.4-45.5,43.4-45.5-19.4-45.5-43.4h0ZM98.5,138.1"/>
</svg>