<?xml version="1.0" encoding="UTF-8"?>
<svg id="_레이어_1" data-name="레이어_1" xmlns="http://www.w3.org/2000/svg" version="1.1" viewBox="0 0 384.00791 341.65789">
  <!-- Generator: Adobe Illustrator 29.3.0, SVG Export Plug-In . SVG Version: 2.1.0 Build 146)  -->
  <path d="M3.1055,154.33176C.65948,143.61676-.34751,132.62476.1055,121.64777,3.20248,59.76575,57.1555,3.33576,112.9725.14777c13.05099-.64001,26.06599,1.82098,37.98,7.18399,7.09001,3.19901,13.75801,7.26199,19.85199,12.09799,12.371,9.98801,30.03502,9.98801,42.40602,0C229.82348,6.34375,249.4875-.88723,271.03451.12476c55.82495,3.21899,109.76996,59.64801,112.86795,121.5.45303,10.98-.55499,21.96899-3,32.68401,0,0-4.836,19.75-12.07495,32.75299-16.582,32.34001-43.63605,59.325-67.746,81.286-8.57401,7.77701-16.39005,14.586-24.27701,21.13202-15.422,12.81299-31.19499,24.69199-52.84799,40.98099-19.77702,14.92599-44.12901,14.93301-63.90601,0-32.063-24.09-51.91402-39.172-77.12901-62.121-24.11301-21.961-51.16798-48.94601-67.74998-81.28499,0-.00801-8.28503-17.64101-12.06601-32.72301h0ZM3.1055,154.33176" style="fill: #e03757;"/>
  <path d="M213.21051,19.39777c-12.371,9.98898-30.03502,9.98898-42.40602,0-6.09398-4.82401-12.76198-8.875-19.85199-12.06601C139.04249,1.96475,126.0305-.50824,112.9805.12476,57.16349,3.31177,3.21048,59.74176.11248,121.62476c-.45297,10.98.55499,21.96899,3,32.68401,3.75,15.105,12.06702,32.73799,12.07501,32.75299,16.582,32.34001,43.63599,59.325,67.746,81.286,3.847,3.5,7.56999,6.81601,11.25,10.004,113.55099-2.168,204.93301-94.87498,204.93301-208.93399.01196-22.664-3.668-45.17999-10.89001-66.66-5.63702-1.422-11.39099-2.31299-17.19199-2.664-21.54701-1.01199-41.21103,6.21802-57.82401,19.30402h0ZM213.21051,19.39777" style="fill: #f04760;"/>
  <metadata>
    <sfw xmlns="http://ns.adobe.com/SaveForWeb/1.0/">
      <slices/>
      <sliceSourceBounds x="113.99" y="225.17" width="384.01" height="341.66" bottomLeftOrigin="true"/>
    </sfw>
  </metadata>
</svg>