<?xml version="1.0" encoding="UTF-8"?>
<svg id="_레이어_1" xmlns="http://www.w3.org/2000/svg" version="1.1" viewBox="0 0 44.8 57.8">
  <!-- Generator: Adobe Illustrator 29.1.0, SVG Export Plug-In . SVG Version: 2.1.0 Build 142)  -->
  <defs>
    <style>
      .st0 {
        fill: #222;
      }
    </style>
  </defs>
  <path class="st0" d="M43.5,25.7l-1.6-2.8c-1-1.8-1-4.2,0-6l1.6-2.8c1.6-2.9,1.7-6.3.2-9.2C42.2,1.9,39.2,0,36,0H2.9c-1.6,0-2.9,1.3-2.9,2.9v51.9c0,1.6,1.3,2.9,2.9,2.9s2.9-1.3,2.9-2.9v-15h30.1c3.2,0,6.2-1.9,7.7-4.9,1.5-2.9,1.4-6.4-.2-9.3h0ZM38.4,11.2l-1.6,2.8c-2.1,3.7-2.1,8.2,0,11.9l1.6,2.8c.6,1.1.7,2.5,0,3.7-.6,1.1-1.5,1.7-2.5,1.7H5.9V5.9h30.1c1,0,2,.6,2.5,1.7.6,1.2.6,2.5,0,3.7h0Z"/>
</svg>