<?xml version="1.0" encoding="UTF-8"?>
<svg id="Layer_1" xmlns="http://www.w3.org/2000/svg" version="1.1" xmlns:xlink="http://www.w3.org/1999/xlink" viewBox="0 0 507.9 651.8">
  <!-- Generator: Adobe Illustrator 29.1.0, SVG Export Plug-In . SVG Version: 2.1.0 Build 142)  -->
  <defs>
    <style>
      .st0 {
        fill: url(#linear-gradient2);
      }

      .st1 {
        fill: #fff;
      }

      .st2 {
        fill: url(#linear-gradient1);
      }

      .st3 {
        fill: url(#linear-gradient3);
      }

      .st4 {
        fill: #dc5a25;
      }

      .st5 {
        fill: url(#linear-gradient);
      }
    </style>
    <linearGradient id="linear-gradient" x1="248.2" y1="299.9" x2="248.2" y2="606.1" gradientUnits="userSpaceOnUse">
      <stop offset=".8" stop-color="#ef1b38"/>
      <stop offset="1" stop-color="#f7546f"/>
    </linearGradient>
    <linearGradient id="linear-gradient1" x1="248.2" y1="308.3" x2="248.2" y2="591.7" gradientUnits="userSpaceOnUse">
      <stop offset="0" stop-color="#bababa"/>
      <stop offset="1" stop-color="#fff"/>
    </linearGradient>
    <linearGradient id="linear-gradient2" x1="378.1" y1="-9.3" x2="119.7" y2="538.6" gradientUnits="userSpaceOnUse">
      <stop offset="0" stop-color="#fcd048"/>
      <stop offset="1" stop-color="#f27326"/>
    </linearGradient>
    <linearGradient id="linear-gradient3" x1="-2115.8" y1="2567.3" x2="-1769.4" y2="2567.3" gradientTransform="translate(-269.8 -2853) rotate(-45)" xlink:href="#linear-gradient2"/>
  </defs>
  <g>
    <polygon class="st5" points="443.5 368.4 443.5 559.7 365.4 596.5 347.6 604.9 287.3 633.4 248.2 651.8 209.1 633.4 148.8 604.9 131 596.5 52.9 559.7 52.9 368.4 443.5 368.4"/>
    <polygon class="st2" points="347.6 368.4 347.6 604.9 287.3 633.4 248.2 651.8 209.1 633.4 148.8 604.9 148.8 368.4 347.6 368.4"/>
  </g>
  <circle class="st0" cx="253.9" cy="253.9" r="253.9"/>
  <circle class="st4" cx="253.9" cy="253.9" r="189.3" transform="translate(-105.2 253.9) rotate(-45)"/>
  <circle class="st3" cx="253.9" cy="253.9" r="173.2"/>
  <path class="st1" d="M265,174.5l19.9,31.3c1.8,2.8,4.6,4.9,7.8,5.7l35.9,9.2c9.3,2.4,13,13.7,6.8,21.1l-23.7,28.6c-2.1,2.6-3.2,5.9-3,9.2l2.4,37c.6,9.6-9,16.6-17.9,13l-34.5-13.7c-3.1-1.2-6.6-1.2-9.7,0l-34.5,13.7c-8.9,3.5-18.5-3.4-17.9-13l2.4-37c.2-3.3-.9-6.6-3-9.2l-23.7-28.6c-6.1-7.4-2.5-18.7,6.8-21.1l35.9-9.2c3.2-.8,6-2.9,7.8-5.7l19.9-31.3c5.1-8.1,17-8.1,22.1,0Z"/>
</svg>