<?xml version="1.0" encoding="UTF-8"?>
<svg id="_레이어_1" data-name="레이어_1" xmlns="http://www.w3.org/2000/svg" version="1.1" viewBox="0 0 320 320">
  <!-- Generator: Adobe Illustrator 29.3.0, SVG Export Plug-In . SVG Version: 2.1.0 Build 146)  -->
  <path d="M160,123.078c-35.13301,0-83.22301,2.746-112.77301,4.688-9.53899.625-17.09401,7.83899-18.125,17.144-2.13699,19.26199-4.485,44.97299-4.485,64.32001,0,19.34799,2.34801,45.05899,4.485,64.32098,1.03099,9.30402,8.58601,16.51901,18.125,17.14401,29.55,1.94199,77.64,4.68799,112.77301,4.68799s83.22299-2.746,112.76996-4.68799c9.54605-.625,17.09702-7.84,18.12805-17.14401,2.13699-19.26199,4.48495-44.97299,4.48495-64.32098,0-19.34702-2.34796-45.05801-4.48495-64.32001-1.03104-9.30501-8.58603-16.519-18.12805-17.144-29.54697-1.942-77.63696-4.688-112.76996-4.688h0ZM45.61298,103.203c29.55901-1.94101,78.367-4.742,114.38702-4.742s84.828,2.80099,114.38699,4.742c21.246,1.395,38.61301,17.633,40.97601,38.996,2.14899,19.36299,4.63699,46.22699,4.63699,67.03101s-2.48801,47.668-4.63699,67.03198c-2.36301,21.367-19.73001,37.60101-40.97601,38.996-29.55899,1.94101-78.367,4.742-114.38699,4.742s-84.82802-2.80099-114.38702-4.742c-21.24597-1.39499-38.61298-17.629-40.97598-38.996-2.14902-19.36398-4.63699-46.22699-4.63699-67.03198s2.48798-47.66402,4.63699-67.03101c2.36301-21.36301,19.73001-37.601,40.97598-38.996h0ZM45.61298,103.203" style="fill: #fff; fill-rule: evenodd;"/>
  <path d="M160,73.84799c-25.60901,0-60.03102,1.203-83.20302,2.15201-9.375.38699-16.60599,6.953-17.73799,15.26999-.95,6.97601-1.621,13.95302-1.621,19.50002,0,6.79599-5.51199,12.308-12.30899,12.308s-12.30901-5.51201-12.30901-12.308c0-7.188.84399-15.438,1.84799-22.825,2.875-21.10098,20.828-35.707,41.12102-36.539,23.19098-.953,58.05498-2.17599,84.211-2.17599s61.01999,1.22299,84.211,2.17599c20.29297.832,38.24597,15.43802,41.121,36.539,1.00397,7.38699,1.84799,15.63699,1.84799,22.825,0,6.79599-5.51199,12.308-12.30899,12.308s-12.30502-5.51201-12.30502-12.308c0-5.547-.67499-12.524-1.62497-19.50002-1.13205-8.31699-8.36304-14.883-17.73804-15.26999-23.17198-.94901-57.59399-2.15201-83.20297-2.15201h0ZM160,73.84799" style="fill: #fff; fill-rule: evenodd;"/>
  <path d="M160,24.617c-15.28102,0-35.105.85199-50.91402,1.69199-9.547.50702-16.92999,7.586-17.76199,16.457-.62502,6.65601-1.06599,13.332-1.06599,18.77301,0,6.797-5.51201,12.30899-12.30901,12.30899s-12.308-5.51199-12.308-12.30899c0-6.56201.519-14.10901,1.175-21.078C68.85199,18.797,86.69897,2.84799,107.78099,1.72702c15.879-.84402,36.246-1.72702,52.21901-1.72702s36.34.883,52.22299,1.72702c21.078,1.12097,38.92502,17.06998,40.961,38.73398.65601,6.96899,1.17502,14.51599,1.17502,21.078,0,6.797-5.51102,12.30899-12.30801,12.30899s-12.30899-5.51199-12.30899-12.30899c0-5.44101-.44101-12.117-1.06604-18.77301-.83597-8.871-8.21498-15.94998-17.76196-16.457-15.80902-.84-35.633-1.69199-50.914-1.69199h0ZM160,24.617" style="fill: #fff; fill-rule: evenodd;"/>
  <path d="M202.66798,185.43401c4.078,5.44099,2.97701,13.15599-2.465,17.23398l-43.758,32.82002c-4.375,3.28198-10.39401,3.28198-14.76901,0l-21.88298-16.41c-5.43802-4.078-6.53902-11.79301-2.461-17.22998,4.07799-5.44202,11.79298-6.54303,17.23398-2.46503l14.49301,10.87498,36.375-27.28497c5.44101-4.078,13.15601-2.97301,17.23399,2.461h0ZM202.66798,185.43401" style="fill: #fff; fill-rule: evenodd;"/>
  <metadata>
    <sfw xmlns="http://ns.adobe.com/SaveForWeb/1.0/">
      <slices/>
      <sliceSourceBounds x="146" y="236" width="320" height="320" bottomLeftOrigin="true"/>
    </sfw>
  </metadata>
</svg>