<?xml version="1.0" encoding="UTF-8"?>
<svg id="_레이어_1" data-name="레이어_1" xmlns="http://www.w3.org/2000/svg" version="1.1" viewBox="0 0 248.19872 384.00003">
  <!-- Generator: Adobe Illustrator 29.3.0, SVG Export Plug-In . SVG Version: 2.1.0 Build 146)  -->
  <path d="M230.87675,135.44901h-86.60101l28.21399-116.40601c2.34802-9.69901-5.00299-19.043-14.98398-19.043H61.65474c-7.118,0-13.30499,4.867-14.985,11.78101L.43974,202.57401c-2.34801,9.69899,5.004,19.043,14.976,19.043h83.30499l-34.172,141.02399c-2.64101,10.88202,5.60202,21.35904,16.80099,21.35904h10.85902c5.85999,0,11.317-2.96902,14.50398-7.88303l138.67598-213.98001c7.45703-11.508-.80096-26.68799-14.50397-26.68799h-.008ZM230.87675,135.44901" style="fill: #faab48;"/>
  <path d="M173.68173,135.44901h-29.399l28.207-116.40601c2.34802-9.69901-5.00299-19.043-14.98398-19.043H61.65474c-7.118,0-13.30499,4.867-14.985,11.78101L1.41574,198.55499c7.26601.77301,14.645,1.17201,22.125,1.17201,59.063,0,112.356-24.67601,150.14099-64.28601v.00801ZM173.68173,135.44901" style="fill: #f8c358;"/>
  <metadata>
    <sfw xmlns="http://ns.adobe.com/SaveForWeb/1.0/">
      <slices/>
      <sliceSourceBounds x="180.99" y="204" width="248.2" height="384" bottomLeftOrigin="true"/>
    </sfw>
  </metadata>
</svg>