<?xml version="1.0" encoding="UTF-8"?>
<svg id="_레이어_1" data-name="레이어_1" xmlns="http://www.w3.org/2000/svg" version="1.1" viewBox="0 0 335.91704 384.00378">
  <!-- Generator: Adobe Illustrator 29.3.0, SVG Export Plug-In . SVG Version: 2.1.0 Build 146)  -->
  <g>
    <path d="M307.91492,308.42999c-93.30498,2.85901-186.61398,2.85901-279.92998,0-22.80898-.75-36.47301-27.89899-22.07399-44.93399,10.06601-11.965,20.25398-24.02702,30.56198-36.19501,2.07101-2.45299,3.18401-5.571,3.13701-8.78099-.80099-35.25,3.61299-138.68401,7.22301-153.75002,5.55-25.95798,29.789-51.59799,55.5-57.75C117.93395,3.539,139.09795.05899,167.94994,0c28.851.05899,50.02301,3.53101,65.64803,7.02701,25.67999,6.13699,49.918,31.77798,55.5,57.75,3.60596,15.06699,8.01596,118.53899,7.22299,153.74998-.04703,3.21101,1.06598,6.328,3.13297,8.78203,10.29703,12.15996,20.48404,24.22598,30.57001,36.19498,14.37103,16.996.70703,44.14401-22.10901,44.92599h0ZM307.91492,308.42999" style="fill: #f9973e;"/>
    <path d="M201.33994,382.50003c5.68401-1.10202,11.17601-6.29303,12.43401-11.96103,1.90199-9.59,1.90199-19.453,0-29.043-1.258-5.668-6.75-10.85901-12.43401-12-3.46399-.69501-27-1.55099-33.39-1.5-6.39098-.07401-29.918.75-33.38298,1.5-5.68402,1.10599-11.18402,6.293-12.43402,12-1.90999,9.58603-1.90999,19.457,0,29.043,1.25,5.668,6.75,10.85901,12.43402,11.96103,3.46498.69897,26.99998,1.55096,33.38298,1.5,6.39.06598,29.91-.75,33.39-1.5h0ZM201.33994,382.50003" style="fill: #34344f;"/>
  </g>
  <path d="M8.34394,260.60901c18.832,5.42599,38.33601,8.172,57.938,8.15298,115.21901,0,208.62498-93.40298,208.62498-208.621.00403-8.965-.57001-17.918-1.71899-26.81299-10.5-12.75-24.82401-22.77701-39.58997-26.30099C217.97295,3.53101,196.80094.05899,167.94994,0c-28.85199.05899-50.01599,3.539-65.649,7.02701-25.67099,6.13699-49.90999,31.77798-55.46098,57.75-3.60899,15.082-8.02701,118.547-7.222,153.74998.03899,3.21101-1.07401,6.328-3.14502,8.78203-9.468,11.17897-18.84698,22.28098-28.129,33.29999h0ZM8.34394,260.60901" style="fill: #fca84c;"/>
  <metadata>
    <sfw xmlns="http://ns.adobe.com/SaveForWeb/1.0/">
      <slices/>
      <sliceSourceBounds x="137.14" y="204" width="335.92" height="384" bottomLeftOrigin="true"/>
    </sfw>
  </metadata>
</svg>