<?xml version="1.0" encoding="UTF-8"?>
<svg id="_레이어_1" data-name="레이어_1" xmlns="http://www.w3.org/2000/svg" version="1.1" viewBox="0 0 383.99426 384.008">
  <!-- Generator: Adobe Illustrator 29.3.0, SVG Export Plug-In . SVG Version: 2.1.0 Build 146)  -->
  <g>
    <path d="M370.91949,162.5995c-6.01999-5.73799-12.05902-11.52699-18.10999-17.36299-8.379-8.07101-13.254-18.97701-13.672-30.188-.30801-8.10101-.66-16.19901-1.05801-24.30801-1.23099-23.25-21.55499-43.57498-44.80499-44.80499-8.10104-.39899-16.19901-.758-24.30899-1.05899-11.21002-.418-22.11702-5.30099-30.18703-13.672-5.836-6.04999-11.625-12.08902-17.36299-18.11301-16.55899-17.42999-42.26999-17.42999-58.828,0-5.739,6.02399-11.528,12.06302-17.364,18.11301-8.06999,8.379-18.976,13.254-30.187,13.672-8.10201.30899-16.19901.66-24.30901,1.05899-23.25,1.23001-43.57399,21.55499-44.804,44.80499-.39899,8.10101-.758,16.19901-1.05899,24.30801-.418,11.211-5.30099,22.11699-13.672,30.188-6.05103,5.836-12.09,11.625-18.11301,17.36299-17.42999,16.55901-17.42999,42.269,0,58.828,6.02301,5.73799,12.06198,11.52699,18.11301,17.36298,8.379,8.07104,13.254,18.97702,13.672,30.18802.30899,8.10101.66,16.19901,1.05899,24.30801,1.23001,23.25,21.554,43.57498,44.804,44.80499,8.10201.39899,16.207.758,24.30901,1.05899,11.211.418,22.117,5.30099,30.187,13.672,5.836,6.05002,11.625,12.08902,17.364,18.11301,16.55801,17.42999,42.26901,17.42999,58.828,0,5.73799-6.02399,11.52699-12.06299,17.36299-18.11301,8.07001-8.379,18.97701-13.254,30.18703-13.672,8.10199-.30899,16.19995-.66,24.30899-1.05899,23.25-1.23001,43.57401-21.55499,44.80499-44.80499.39801-8.10101.75797-16.19901,1.05801-24.30801.418-11.211,5.30099-22.11697,13.672-30.18802,6.05096-5.83598,12.09-11.62498,18.10999-17.36298,17.43301-16.55901,17.43301-42.269,0-58.828h0ZM370.91949,162.5995" style="fill: #e03757;"/>
    <path d="M162.57948,13.08751c-5.73799,6.01999-11.528,12.05899-17.364,18.10999-8.06999,8.37802-18.976,13.254-30.18698,13.67502-8.10201.30499-16.19901.65698-24.30901,1.05499-23.25,1.23099-43.57399,21.55499-44.804,44.80499-.39899,8.10101-.758,16.203-1.05899,24.30801-.418,11.211-5.30103,22.118-13.672,30.18799-6.05103,5.83601-12.09,11.625-18.10904,17.36301-17.43396,16.55899-17.43396,42.27,0,58.828,6.01904,5.739,12.05801,11.52802,18.10904,17.364,8.379,8.06999,13.254,18.976,13.672,30.187.30899,8.10199.66,16.19901,1.05899,24.30899.03101.51501.07401,1.035.121,1.55002,14.60899,3.26199,29.80499,4.98898,45.39799,4.98898,114.59,0,207.485-92.89499,207.485-207.48898,0-15.94501-1.80499-31.46802-5.21103-46.37802-.14896-.008-.293-.03198-.44196-.03998-8.10104-.39401-16.19901-.75702-24.30804-1.05402-11.21097-.422-22.11697-5.30499-30.18796-13.672-5.83601-6.05499-11.625-12.09399-17.36302-18.11301-16.55898-17.42999-42.27-17.42999-58.828,0v.01501ZM162.57948,13.08751" style="fill: #f04760;"/>
  </g>
  <path d="M276.4975,205.3255c-8.07803-8.519-17.81299-12.765-28.989-12.765-11.175,0-20.85101,4.312-28.99602,12.78101-8.144,8.47299-12.14,18.75-12.043,30.871.09001,12.246,4.17603,22.633,12.10602,31.09399,7.93298,8.461,17.40601,12.73401,28.535,12.711,11.30499-.01999,20.93396-4.28101,28.97296-12.69501,8.039-8.418,12.24203-18.78897,12.38205-31.20699.14096-12.024-3.83905-22.27798-11.96802-30.79001h0ZM257.86447,248.8105c-2.77298,3.26898-6.24597,4.914-10.43797,4.922-4.367,0-7.89801-1.62097-10.66-4.758-2.75801-3.19901-4.14401-7.37901-4.15199-12.664-.008-4.961,1.42999-9.008,4.258-12.13699,2.82799-3.19501,6.38998-4.76201,10.61301-4.769,4.164,0,7.65601,1.621,10.47696,4.74599,2.76105,3.18701,4.125,7.23001,4.10504,12.12099-.03101,5.086-1.43399,9.269-4.21103,12.53902h.008ZM257.86447,248.8105" style="fill: #fff;"/>
  <path d="M166.11049,115.96251c-7.73-8.32401-17.008-12.26898-28.02701-11.93301-10.94998.33902-20.65698,4.90601-29.12898,13.418-8.46899,8.51501-13.00401,18.578-13.403,30.30801-.40601,11.85199,3.39099,21.80499,11.286,29.942,7.89801,8.12799,17.589,12.22202,28.94499,12.285,11.543,0,21.32802-4.125,29.39799-12.43001,8.078-8.30099,12.19601-18.65201,12.36801-31.043.17099-12-3.64499-22.21503-11.438-30.539v-.008ZM146.77449,159.20151c-2.82001,3.246-6.34401,4.882-10.55901,4.92099-4.40199.03601-7.933-1.52299-10.64799-4.562-2.715-3.09799-4.008-7.15599-3.86299-12.31999.133-4.84801,1.71098-8.82901,4.62498-11.957,2.92601-3.188,6.51201-4.80901,10.69501-4.899,4.188-.09,7.606,1.39099,10.27699,4.492,2.668,3.10599,3.95401,7.082,3.856,11.918-.106,5.028-1.55498,9.168-4.383,12.414v-.007ZM146.77449,159.20151" style="fill: #fff;"/>
  <path d="M238.51651,105.62251h-.17902c-4.14899,0-7.95001,2.164-10.35201,5.89499-29.50398,46.047-60.48801,92.293-88.629,136.93402-3.832,6.082-2.11301,14.55798,3.76599,19.01099,5.89001,4.457,13.64401,3.164,17.453-2.961,28.02702-44.918,58.90602-91.23001,88.28102-137.13599,5.883-9.12201-.22301-21.74301-10.332-21.74301h-.008ZM238.51651,105.62251" style="fill: #fff;"/>
  <metadata>
    <sfw xmlns="http://ns.adobe.com/SaveForWeb/1.0/">
      <slices/>
      <sliceSourceBounds x="114.1" y="204.01" width="383.99" height="384.01" bottomLeftOrigin="true"/>
    </sfw>
  </metadata>
</svg>