<?xml version="1.0" encoding="UTF-8"?>
<svg id="_레이어_1" data-name="레이어_1" xmlns="http://www.w3.org/2000/svg" version="1.1" viewBox="0 0 312 344">
  <!-- Generator: Adobe Illustrator 29.1.0, SVG Export Plug-In . SVG Version: 2.1.0 Build 142)  -->
  <defs>
    <style>
      .st0, .st1 {
        fill: #fff;
      }

      .st1 {
        fill-rule: evenodd;
      }
    </style>
  </defs>
  <path class="st1" d="M108,0c6.6,0,12,5.4,12,12v20.2c10.7-.2,22.6-.2,35.8-.2h.4c13.2,0,25.1,0,35.8.2V12c0-6.6,5.4-12,12-12s12,5.4,12,12v21c24.2,1.5,42.8,5.4,58.1,16.6,7.8,5.7,14.7,12.5,20.4,20.4,9.4,12.9,13.6,28,15.6,46.7,2,18.3,2,41.3,2,70.7v.9c0,18.6,0,34.5-.5,48.2-1,30-4.3,52-17.1,69.7-5.7,7.8-12.5,14.7-20.4,20.4-17.7,12.8-39.7,16.1-69.7,17.1-13.7.5-29.7.5-48.2.5h-.9c-29.4,0-52.4,0-70.7-2-18.6-2-33.8-6.2-46.7-15.6-7.8-5.7-14.7-12.5-20.4-20.4-9.4-12.9-13.6-28-15.6-46.7-2-18.3-2-41.3-2-70.7v-1.4c0-29.4,0-52.4,2-70.7,2-18.6,6.2-33.8,15.6-46.7,5.7-7.8,12.5-14.7,20.4-20.4,15.3-11.1,33.9-15,58.1-16.6V12c0-6.6,5.4-12,12-12h0ZM96,57.1c-21.8,1.5-34.4,4.9-44,11.9-5.8,4.2-10.9,9.3-15,15-5.9,8.1-9.3,18.5-11.1,35.1-1.8,16.8-1.8,38.6-1.8,68.8s0,52,1.8,68.8c1.8,16.6,5.2,27,11.1,35.1,4.2,5.8,9.3,10.9,15,15,8.1,5.9,18.5,9.3,35.1,11.1,16.8,1.8,38.6,1.8,68.8,1.8s25.5,0,36-.2c0-7.6.3-13.2,1.1-18.2,6.2-39.4,37.1-70.2,76.5-76.5,5-.8,10.6-1,18.2-1.1.2-10.6.2-22.5.2-36,0-30.3,0-52-1.8-68.8-1.8-16.6-5.2-27-11.1-35.1-4.2-5.8-9.3-10.9-15-15-9.6-7-22.2-10.4-44-11.9v2.9c0,6.6-5.4,12-12,12s-12-5.4-12-12v-3.8c-10.6-.2-22.4-.2-36-.2s-25.4,0-36,.2v3.8c0,6.6-5.4,12-12,12s-12-5.4-12-12v-2.9ZM286.9,248c-6.5,0-10.3.3-13.6.8-29.1,4.6-51.9,27.4-56.5,56.5-.5,3.3-.7,7.1-.8,13.6,21.8-1.5,34.3-4.9,43.9-11.9,5.8-4.2,10.9-9.3,15-15,7-9.6,10.4-22.2,11.9-43.9h0ZM286.9,248"/>
  <path class="st0" d="M92,124c0,8.8-7.2,16-16,16s-16-7.2-16-16,7.2-16,16-16,16,7.2,16,16h0ZM92,124"/>
  <path class="st0" d="M92,188c0,8.8-7.2,16-16,16s-16-7.2-16-16,7.2-16,16-16,16,7.2,16,16h0ZM92,188"/>
  <path class="st0" d="M172,124c0,8.8-7.2,16-16,16s-16-7.2-16-16,7.2-16,16-16,16,7.2,16,16h0ZM172,124"/>
  <path class="st0" d="M172,188c0,8.8-7.2,16-16,16s-16-7.2-16-16,7.2-16,16-16,16,7.2,16,16h0ZM172,188"/>
  <path class="st0" d="M172,252c0,8.8-7.2,16-16,16s-16-7.2-16-16,7.2-16,16-16,16,7.2,16,16h0ZM172,252"/>
  <path class="st0" d="M252,124c0,8.8-7.2,16-16,16s-16-7.2-16-16,7.2-16,16-16,16,7.2,16,16h0ZM252,124"/>
  <path class="st0" d="M252,188c0,8.8-7.2,16-16,16s-16-7.2-16-16,7.2-16,16-16,16,7.2,16,16h0ZM252,188"/>
  <path class="st0" d="M92,252c0,8.8-7.2,16-16,16s-16-7.2-16-16,7.2-16,16-16,16,7.2,16,16h0ZM92,252"/>
</svg>