<?xml version="1.0" encoding="UTF-8"?>
<svg id="_레이어_1" data-name="레이어_1" xmlns="http://www.w3.org/2000/svg" version="1.1" viewBox="0 0 14.6 14.6">
  <!-- Generator: Adobe Illustrator 29.1.0, SVG Export Plug-In . SVG Version: 2.1.0 Build 142)  -->
  <defs>
    <style>
      .st0 {
        fill: #fff;
        fill-rule: evenodd;
      }
    </style>
  </defs>
  <path class="st0" d="M9.5,1.4c-1.4-.3-2.9-.3-4.3,0-1.9.4-3.3,1.9-3.8,3.8-.3,1.4-.3,2.9,0,4.3,0,.4.2.7.4,1.1l1-1c1.4-1.4,3.8-1.4,5.2,0l.9.9h.1c1.1-1.2,2.9-1.3,4-.2,0-.2.2-.5.2-.7.3-1.4.3-2.9,0-4.3-.4-1.9-1.9-3.3-3.8-3.8h0ZM13.7,11.4c.3-.5.5-1.1.6-1.6.4-1.6.4-3.2,0-4.8-.5-2.3-2.3-4.1-4.6-4.6C8.1,0,6.5,0,4.9.3,2.6.8.8,2.6.3,4.9c-.4,1.6-.4,3.2,0,4.8.5,2.3,2.3,4.1,4.6,4.6,1.6.4,3.2.4,4.8,0,1.6-.4,3-1.4,3.8-2.7,0,0,.1-.2.2-.3h0ZM12.5,11.2h0c-.7-.8-1.9-.9-2.6-.2h-.1c0,.1,1.4,1.5,1.4,1.5.6-.4,1-.8,1.4-1.3h0ZM10,13.1l-2.8-2.8c-1-1-2.6-1-3.6,0l-1.2,1.2c.7.9,1.7,1.5,2.8,1.8,1.4.3,2.9.3,4.3,0,.2,0,.3,0,.5-.1h0ZM10,13.1"/>
  <g>
    <path class="st0" d="M7.6,7.5c-.3-.3-.3-.7,0-.9l2.5-2.5c.3-.3.7-.3.9,0s.3.7,0,.9l-2.5,2.5c-.3.3-.7.3-.9,0h0ZM7.6,7.5"/>
    <path class="st0" d="M11.1,7.5c-.3.3-.7.3-.9,0l-2.5-2.5c-.3-.3-.3-.7,0-.9s.7-.3.9,0l2.5,2.5c.3.3.3.7,0,.9h0ZM11.1,7.5"/>
  </g>
</svg>