<?xml version="1.0" encoding="UTF-8"?>
<svg id="Layer_1" xmlns="http://www.w3.org/2000/svg" version="1.1" xmlns:xlink="http://www.w3.org/1999/xlink" viewBox="0 0 475.1 397.9">
  <!-- Generator: Adobe Illustrator 29.1.0, SVG Export Plug-In . SVG Version: 2.1.0 Build 142)  -->
  <defs>
    <style>
      .st0 {
        fill: url(#linear-gradient2);
      }

      .st1 {
        mask: url(#mask-1);
      }

      .st2 {
        fill: url(#linear-gradient1);
      }

      .st2, .st3 {
        mix-blend-mode: multiply;
      }

      .st4 {
        fill: #fff;
      }

      .st5 {
        mask: url(#mask);
      }

      .st6 {
        fill: none;
      }

      .st7 {
        mask: url(#mask-2);
      }

      .st8 {
        fill: url(#linear-gradient4);
      }

      .st9 {
        filter: url(#luminosity-noclip2);
      }

      .st3 {
        fill: url(#linear-gradient3);
      }

      .st10 {
        fill: url(#linear-gradient);
      }

      .st11 {
        clip-path: url(#clippath);
      }

      .st12 {
        mask: url(#mask-3);
      }

      .st13 {
        filter: url(#luminosity-noclip);
      }
    </style>
    <linearGradient id="linear-gradient" x1="399.8" y1="428.8" x2="20.9" y2="10.8" gradientUnits="userSpaceOnUse">
      <stop offset="0" stop-color="#ba3dd3"/>
      <stop offset="1" stop-color="#8e02d3"/>
    </linearGradient>
    <clipPath id="clippath">
      <path class="st6" d="M271.9,311.6l-64.3,15.5c-8,1.9-15.1-5.2-13.2-13.2l15.5-64.4c.8-3.4,2.6-6.5,5.1-9L402,53.3c7.8-7.8,20.4-7.8,28.2,0l37.9,37.9c7.8,7.8,7.8,20.4,0,28.2l-187.2,187.2c-2.5,2.5-5.6,4.2-9,5Z"/>
    </clipPath>
    <filter id="luminosity-noclip" x="194" y="47.5" width="279.9" height="279.9" color-interpolation-filters="sRGB" filterUnits="userSpaceOnUse">
      <feFlood flood-color="#fff" result="bg"/>
      <feBlend in="SourceGraphic" in2="bg"/>
    </filter>
    <filter id="luminosity-noclip1" x="194" y="-7830.7" width="279.9" height="32766" color-interpolation-filters="sRGB" filterUnits="userSpaceOnUse">
      <feFlood flood-color="#fff" result="bg"/>
      <feBlend in="SourceGraphic" in2="bg"/>
    </filter>
    <mask id="mask-1" x="194" y="-7830.7" width="279.9" height="32766" maskUnits="userSpaceOnUse"/>
    <linearGradient id="linear-gradient1" x1="892.3" y1="3092" x2="798.9" y2="3092" gradientTransform="translate(1911.7 -2586.1) rotate(45)" gradientUnits="userSpaceOnUse">
      <stop offset="0" stop-color="#e6e6e6"/>
      <stop offset="1" stop-color="#999"/>
    </linearGradient>
    <mask id="mask" x="194" y="47.5" width="279.9" height="279.9" maskUnits="userSpaceOnUse">
      <g class="st13">
        <g class="st1">
          <path class="st2" d="M271.9,311.6l-64.3,15.5c-8,1.9-15.1-5.2-13.2-13.2l15.5-64.4c.8-3.4,2.6-6.5,5.1-9L402,53.3c7.8-7.8,20.4-7.8,28.2,0l37.9,37.9c7.8,7.8,7.8,20.4,0,28.2l-187.2,187.2c-2.5,2.5-5.6,4.2-9,5Z"/>
        </g>
      </g>
    </mask>
    <linearGradient id="linear-gradient2" x1="892.3" y1="3092" x2="798.9" y2="3092" gradientTransform="translate(1911.7 -2586.1) rotate(45)" gradientUnits="userSpaceOnUse">
      <stop offset="0" stop-color="#d3ffff"/>
      <stop offset="1" stop-color="#b0dbdb"/>
    </linearGradient>
    <filter id="luminosity-noclip2" x="192.8" y="46.3" width="282.2" height="282.3" color-interpolation-filters="sRGB" filterUnits="userSpaceOnUse">
      <feFlood flood-color="#fff" result="bg"/>
      <feBlend in="SourceGraphic" in2="bg"/>
    </filter>
    <filter id="luminosity-noclip3" x="192.8" y="-7830.7" width="282.2" height="32766" color-interpolation-filters="sRGB" filterUnits="userSpaceOnUse">
      <feFlood flood-color="#fff" result="bg"/>
      <feBlend in="SourceGraphic" in2="bg"/>
    </filter>
    <mask id="mask-3" x="192.8" y="-7830.7" width="282.2" height="32766" maskUnits="userSpaceOnUse"/>
    <linearGradient id="linear-gradient3" x1="797.7" y1="3092" x2="893.4" y2="3092" gradientTransform="translate(1911.7 -2586.1) rotate(45)" gradientUnits="userSpaceOnUse">
      <stop offset="0" stop-color="#b3b3b3"/>
      <stop offset="1" stop-color="#666"/>
    </linearGradient>
    <mask id="mask-2" x="192.8" y="46.3" width="282.2" height="282.3" maskUnits="userSpaceOnUse">
      <g class="st9">
        <g class="st12">
          <path class="st3" d="M204.9,328.6c-3.2,0-6.2-1.2-8.5-3.6-3-3-4.2-7.3-3.2-11.4l15.5-64.4c.9-3.6,2.7-6.9,5.4-9.6L401.2,52.5c8.2-8.2,21.6-8.2,29.9,0l37.9,37.9c8.2,8.2,8.2,21.6,0,29.9l-187.2,187.2c-2.6,2.6-5.9,4.5-9.6,5.4l-64.3,15.5c-1,.2-1.9.3-2.9.3ZM416.1,48.7c-4.8,0-9.6,1.8-13.3,5.5l-187.2,187.2c-2.3,2.3-4,5.3-4.7,8.5l-15.5,64.4c-.8,3.3.2,6.8,2.6,9.2,2.4,2.4,5.9,3.4,9.2,2.6l64.3-15.5c3.2-.8,6.1-2.4,8.4-4.7l187.2-187.2c7.3-7.3,7.3-19.2,0-26.5l-37.9-37.9c-3.7-3.7-8.5-5.5-13.3-5.5Z"/>
        </g>
      </g>
    </mask>
    <linearGradient id="linear-gradient4" x1="797.7" y1="3092" x2="893.4" y2="3092" gradientTransform="translate(1911.7 -2586.1) rotate(45)" gradientUnits="userSpaceOnUse">
      <stop offset="0" stop-color="#c5ffff"/>
      <stop offset="1" stop-color="#d5ffff"/>
    </linearGradient>
  </defs>
  <rect class="st10" width="382.9" height="397.9" rx="52.5" ry="52.5"/>
  <g class="st11">
    <image width="407" height="423" transform="translate(-.3 -12.9)" xlink:href="icon_dvcer-1.png"/>
  </g>
  <g>
    <g class="st5">
      <path class="st0" d="M271.9,311.6l-64.3,15.5c-8,1.9-15.1-5.2-13.2-13.2l15.5-64.4c.8-3.4,2.6-6.5,5.1-9L402,53.3c7.8-7.8,20.4-7.8,28.2,0l37.9,37.9c7.8,7.8,7.8,20.4,0,28.2l-187.2,187.2c-2.5,2.5-5.6,4.2-9,5Z"/>
    </g>
    <g class="st7">
      <path class="st8" d="M204.9,328.6c-3.2,0-6.2-1.2-8.5-3.6-3-3-4.2-7.3-3.2-11.4l15.5-64.4c.9-3.6,2.7-6.9,5.4-9.6L401.2,52.5c8.2-8.2,21.6-8.2,29.9,0l37.9,37.9c8.2,8.2,8.2,21.6,0,29.9l-187.2,187.2c-2.6,2.6-5.9,4.5-9.6,5.4l-64.3,15.5c-1,.2-1.9.3-2.9.3ZM416.1,48.7c-4.8,0-9.6,1.8-13.3,5.5l-187.2,187.2c-2.3,2.3-4,5.3-4.7,8.5l-15.5,64.4c-.8,3.3.2,6.8,2.6,9.2,2.4,2.4,5.9,3.4,9.2,2.6l64.3-15.5c3.2-.8,6.1-2.4,8.4-4.7l187.2-187.2c7.3-7.3,7.3-19.2,0-26.5l-37.9-37.9c-3.7-3.7-8.5-5.5-13.3-5.5Z"/>
    </g>
  </g>
  <path class="st4" d="M221.7,89.6H62.7c-7,0-12.7-5.7-12.7-12.7h0c0-7,5.7-12.7,12.7-12.7h159c7,0,12.7,5.7,12.7,12.7h0c0,7-5.7,12.7-12.7,12.7Z"/>
  <path class="st4" d="M157,145.3H62.7c-7,0-12.7-5.7-12.7-12.7h0c0-7,5.7-12.7,12.7-12.7h94.3c7,0,12.7,5.7,12.7,12.7h0c0,7-5.7,12.7-12.7,12.7Z"/>
</svg>