<?xml version="1.0" encoding="UTF-8"?>
<svg id="_레이어_1" xmlns="http://www.w3.org/2000/svg" version="1.1" viewBox="0 0 14.6 14.6">
  <!-- Generator: Adobe Illustrator 29.1.0, SVG Export Plug-In . SVG Version: 2.1.0 Build 142)  -->
  <defs>
    <style>
      .st0 {
        fill: #222;
      }
    </style>
  </defs>
  <path class="st0" d="M4.1,8.1c0,.3-.3.6-.6.6h-.8c-.3,0-.6-.3-.6-.6s.3-.6.6-.6h.8c.3,0,.6.3.6.6h0ZM4.3,5.2h-1.5c-.3,0-.6.3-.6.6s.3.6.6.6h1.5c.3,0,.6-.3.6-.6s-.3-.6-.6-.6h0ZM2.8,4.1h3.8c.3,0,.6-.3.6-.6s-.3-.6-.6-.6h-3.8c-.3,0-.6.3-.6.6s.3.6.6.6h0ZM10.7,6.9l-1.7,1.2-.7-.5c-.2-.2-.6,0-.8,0-.2.2,0,.6,0,.8l1,.8c.1,0,.2.1.3.1s.2,0,.3-.1l2-1.5c.2-.2.3-.5.1-.8-.2-.2-.5-.3-.8,0h.2ZM14.5,12.2c-.1.1-.3.2-.4.2s-.3,0-.4-.2l-1.1-1.1c-.3.3-.6.5-1,.7v.7c0,1.1-.9,2.1-2.1,2.1H2.1c-1.1,0-2.1-.9-2.1-2.1V2.1C0,.9.9,0,2.1,0h7.5c1.1,0,2.1.9,2.1,2.1v2.2c1.3.7,2.2,2.2,2.2,3.8s-.2,1.5-.6,2.2l1.2,1.2c.2.2.2.6,0,.8h0ZM10.5,12.3c-.3,0-.6.1-.9.1-2.4,0-4.3-1.9-4.3-4.3s1.9-4.3,4.3-4.3.6,0,.9,0v-1.8c0-.5-.4-.9-.9-.9H2.1c-.5,0-.9.4-.9.9v10.5c0,.5.4.9.9.9h7.5c.5,0,.9-.4.9-.9v-.3ZM12.8,8.1c0-1.8-1.4-3.2-3.2-3.2s-3.2,1.4-3.2,3.2,1.4,3.2,3.2,3.2,3.2-1.4,3.2-3.2h0Z"/>
</svg>