<?xml version="1.0" encoding="UTF-8"?>
<svg id="_레이어_1" data-name="레이어_1" xmlns="http://www.w3.org/2000/svg" version="1.1" viewBox="0 0 56.25558 53.21452">
  <!-- Generator: Adobe Illustrator 29.2.1, SVG Export Plug-In . SVG Version: 2.1.0 Build 116)  -->
  <path d="M50.17345,22.50382v-14.143c0-4.61022-3.75059-8.36082-8.36082-8.36082H8.36094C3.75059,0,0,3.75059,0,8.36082v36.49288c0,4.61022,3.75059,8.36082,8.36094,8.36082h27.36957c.28374,0,.55547-.06076.79058-.15814.74604.09738,1.48811.15814,2.25048.15814,9.64624,0,17.48401-7.83789,17.48401-17.48401,0-5.29154-2.35987-10.01116-6.08213-13.22669h0ZM19.76282,4.55751h10.6478v6.84437c0,.41367-.3487.76237-.76225.76237h-9.12319c-.41367,0-.76237-.3487-.76237-.76237v-6.84437ZM8.36094,48.65701c-2.09234,0-3.80343-1.71109-3.80343-3.80331V8.36082c0-2.09222,1.71109-3.80331,3.80343-3.80331h6.84437v6.84437c0,2.93155,2.38833,5.31988,5.31988,5.31988h9.12319c2.93143,0,5.31976-2.38833,5.31976-5.31988v-6.84437h6.84449c2.09222,0,3.80331,1.71109,3.80331,3.80331v11.27641c-2.10843-.90022-4.41966-1.39085-6.84437-1.39085-9.64624,0-17.48413,7.83789-17.48413,17.48413,0,5.13328,2.23006,9.72321,5.74555,12.9265H8.36094ZM38.77157,48.65701c-7.12823,0-12.92662-5.79839-12.92662-12.9265s5.79839-12.92662,12.92662-12.92662,12.9265,5.79839,12.9265,12.92662-5.79839,12.9265-12.9265,12.9265h0ZM41.05026,29.64838v6.08213c0,1.25288-1.02581,2.27869-2.27869,2.27869-1.253,0-2.27882-1.02581-2.27882-2.27869v-6.08213c0-1.253,1.02581-2.27882,2.27882-2.27882,1.25288,0,2.27869,1.02581,2.27869,2.27882h0ZM40.89225,41.81263c0,1.17171-.94897,2.12055-2.12068,2.12055-1.17195,0-2.12068-.94885-2.12068-2.12055,0-1.17195.94872-2.12068,2.12068-2.12068,1.17171,0,2.12068.94872,2.12068,2.12068h0ZM40.89225,41.81263" fill="#fff"/>
</svg>