<?xml version="1.0" encoding="UTF-8"?>
<svg id="_레이어_1" data-name="레이어_1" xmlns="http://www.w3.org/2000/svg" version="1.1" viewBox="0 0 14.6 14.6">
  <!-- Generator: Adobe Illustrator 29.1.0, SVG Export Plug-In . SVG Version: 2.1.0 Build 142)  -->
  <defs>
    <style>
      .st0 {
        fill: #222;
      }
    </style>
  </defs>
  <path class="st0" d="M13.4,5.7c-.3-.2-.6-.4-.7-.6,0-.2,0-.6,0-1,.1-.7.2-1.4-.3-1.9-.5-.5-1.3-.4-1.9-.3-.3,0-.8.1-1,0-.2,0-.4-.4-.6-.7-.4-.6-.9-1.2-1.6-1.2s-1.2.6-1.6,1.2c-.2.3-.4.6-.6.7-.2,0-.6,0-1,0-.7,0-1.4-.2-1.9.3-.5.5-.4,1.3-.3,1.9,0,.3.1.8,0,1,0,.2-.4.4-.7.6-.6.4-1.2.9-1.2,1.6s.6,1.2,1.2,1.6c.3.2.6.4.7.6,0,.2,0,.6,0,1-.1.7-.2,1.4.3,1.9.5.5,1.3.4,1.9.3.3,0,.8-.1,1,0,.2,0,.4.4.6.7.4.6.9,1.2,1.6,1.2s1.2-.6,1.6-1.2c.2-.3.4-.6.6-.7.2,0,.6,0,1,0,.7.1,1.4.2,1.9-.3.5-.5.4-1.3.3-1.9,0-.3-.1-.8,0-1,0-.2.4-.4.7-.6.6-.4,1.2-.9,1.2-1.6s-.6-1.2-1.2-1.6h0ZM12.7,8c-.4.3-.9.6-1.1,1.1-.2.5-.1,1,0,1.6,0,.3.1.9,0,1-.1.1-.7,0-1,0-.5,0-1.1-.2-1.6,0-.5.2-.8.6-1.1,1.1-.2.3-.5.7-.7.7s-.5-.5-.7-.7c-.3-.4-.6-.9-1.1-1.1-.2,0-.4-.1-.7-.1s-.6,0-.9,0c-.3,0-.9.1-1,0-.1-.1,0-.7,0-1,0-.5.2-1.1,0-1.6-.2-.5-.6-.8-1.1-1.1-.3-.2-.7-.5-.7-.7s.5-.5.7-.7c.4-.3.9-.6,1.1-1.1.2-.5.1-1,0-1.6,0-.3-.1-.9,0-1,.1-.1.7,0,1,0,.5,0,1.1.2,1.6,0,.5-.2.8-.6,1.1-1.1.2-.3.5-.7.7-.7s.5.5.7.7c.3.4.6.9,1.1,1.1.5.2,1,.1,1.6,0,.3,0,.9-.1,1,0,.1.1,0,.7,0,1,0,.5-.2,1.1,0,1.6.2.5.6.8,1.1,1.1.3.2.7.5.7.7s-.5.5-.7.7h0ZM5,5.8c0-.4.3-.8.8-.8s.8.3.8.8-.3.8-.8.8-.8-.3-.8-.8h0ZM9.8,5.1c.2.2.2.6,0,.8l-4.3,4.1c-.1.1-.3.2-.4.2s-.3,0-.4-.2c-.2-.2-.2-.6,0-.8l4.3-4.1c.2-.2.6-.2.8,0h0ZM9.5,9.5c0,.4-.3.8-.8.8s-.8-.3-.8-.8.3-.8.8-.8.8.3.8.8h0ZM9.5,9.5"/>
</svg>