<?xml version="1.0" encoding="UTF-8"?>
<svg id="_레이어_1" xmlns="http://www.w3.org/2000/svg" version="1.1" viewBox="0 0 384 384">
  <!-- Generator: Adobe Illustrator 29.1.0, SVG Export Plug-In . SVG Version: 2.1.0 Build 142)  -->
  <defs>
    <style>
      .st0 {
        fill: #222;
      }
    </style>
  </defs>
  <path class="st0" d="M379.6,358.4l-57.4-57.3c-5.9-5.9-15.4-5.9-21.2,0-61.9,61.9-162.6,61.9-224.5,0-61.9-61.9-61.9-162.6,0-224.5,61.9-61.9,162.6-61.9,224.5,0,43,43,57.7,107.8,37.5,165.2-2.8,7.8,1.4,16.4,9.2,19.1,7.8,2.8,16.4-1.4,19.1-9.2,11.7-33.1,13.9-68.8,6.4-103.1-7.7-35.3-25.3-67.5-51-93.2C286.6,19.6,239.2,0,188.8,0S90.9,19.6,55.3,55.3C19.6,90.9,0,138.4,0,188.8s19.6,97.8,55.3,133.5c35.7,35.7,83.1,55.3,133.5,55.3h0c45.4,0,88.3-15.9,122.5-45.1l47.2,47.1c2.9,2.9,6.8,4.4,10.6,4.4s7.7-1.5,10.6-4.4c5.9-5.9,5.9-15.4,0-21.2h-.1Z"/>
</svg>