<?xml version="1.0" encoding="UTF-8"?>
<svg id="_레이어_1" data-name="레이어_1" xmlns="http://www.w3.org/2000/svg" version="1.1" viewBox="0 0 44.1 41.7">
  <!-- Generator: Adobe Illustrator 29.1.0, SVG Export Plug-In . SVG Version: 2.1.0 Build 142)  -->
  <defs>
    <style>
      .st0 {
        fill: #222;
      }
    </style>
  </defs>
  <path class="st0" d="M44.1,28c0,7.6-6.1,13.7-13.7,13.7H6.6c-3.6,0-6.6-2.9-6.6-6.6V6.6C0,2.9,2.9,0,6.6,0h26.2c3.6,0,6.6,2.9,6.6,6.6v11.1c2.9,2.5,4.8,6.2,4.8,10.4h0ZM15.5,8.9c0,.3.3.6.6.6h7.2c.3,0,.6-.3.6-.6V3.6h-8.4v5.4ZM21.2,38.2c-2.8-2.5-4.5-6.1-4.5-10.1,0-7.6,6.1-13.7,13.7-13.7s3.7.4,5.4,1.1V6.6c0-1.6-1.3-3-3-3h-5.4v5.4c0,2.3-1.9,4.2-4.2,4.2h-7.2c-2.3,0-4.2-1.9-4.2-4.2V3.6h-5.4c-1.6,0-3,1.3-3,3v28.6c0,1.6,1.3,3,3,3h14.6ZM40.5,28c0-5.6-4.5-10.1-10.1-10.1s-10.1,4.5-10.1,10.1,4.5,10.1,10.1,10.1,10.1-4.5,10.1-10.1h0ZM40.5,28"/>
  <path class="st0" d="M32.2,24.6v1.6s1.6,0,1.6,0c1,0,1.8.8,1.8,1.8,0,.5-.2.9-.5,1.3s-.8.5-1.3.5h-1.6s0,1.6,0,1.6c0,.5-.2.9-.5,1.3s-.8.5-1.3.5c-1,0-1.8-.8-1.8-1.8v-1.6s-1.6,0-1.6,0c-1,0-1.8-.8-1.8-1.8,0-1,.8-1.8,1.8-1.8h1.6s0-1.6,0-1.6c0-1,.8-1.8,1.8-1.8,1,0,1.8.8,1.8,1.8h0Z"/>
</svg>