<?xml version="1.0" encoding="UTF-8"?>
<svg id="_레이어_1" data-name="레이어_1" xmlns="http://www.w3.org/2000/svg" version="1.1" viewBox="0 0 14.6 14.6">
  <!-- Generator: Adobe Illustrator 29.2.0, SVG Export Plug-In . SVG Version: 2.1.0 Build 108)  -->
  <defs>
    <style>
      .st0 {
        fill: #222;
        fill-rule: evenodd;
      }
    </style>
  </defs>
  <path class="st0" d="M10.6.7c.4-.4,1-.7,1.6-.7,1.3,0,2.3,1,2.3,2.3s-.2,1.2-.7,1.6l-2.7,2.7c-1.2,1.2-2.8,2.1-4.5,2.6h-.5c-.6.3-1.1-.2-.9-.8v-.5c.6-1.7,1.4-3.3,2.7-4.5l2.7-2.7ZM11.6,1.3c0,.3.1.8.5,1.1.4.4.8.5,1.1.5.1-.2.2-.4.2-.6,0-.7-.5-1.2-1.2-1.2s-.5,0-.6.2h0ZM12.4,3.9c-.4-.2-.7-.4-1-.7-.3-.3-.5-.6-.7-1l-1.9,1.9c-1.1,1.1-1.9,2.5-2.2,4,1.5-.4,2.9-1.2,4-2.2l1.9-1.9ZM12.4,3.9"/>
  <path class="st0" d="M7.3,1.1c-.7,0-1.4,0-2.2.2-1.9.4-3.3,1.9-3.8,3.8-.3,1.4-.3,2.9,0,4.3.4,1.9,1.9,3.3,3.8,3.8,1.4.3,2.9.3,4.3,0,1.9-.4,3.3-1.9,3.8-3.8.2-.7.2-1.4.2-2.2s.2-.6.6-.6.6.2.6.6c0,.8,0,1.6-.3,2.4-.5,2.3-2.3,4.1-4.6,4.6-1.6.4-3.2.4-4.8,0-2.3-.5-4.1-2.3-4.6-4.6C0,8.1,0,6.5.3,4.9.8,2.6,2.6.8,4.9.3c.8-.2,1.6-.3,2.4-.3s.6.2.6.6-.2.6-.6.6h0ZM7.3,1.1"/>
</svg>