<?xml version="1.0" encoding="UTF-8"?>
<svg id="_레이어_1" data-name="레이어_1" xmlns="http://www.w3.org/2000/svg" version="1.1" viewBox="0 0 44.11584 41.73102">
  <!-- Generator: Adobe Illustrator 29.2.1, SVG Export Plug-In . SVG Version: 2.1.0 Build 116)  -->
  <path d="M34.0551,26.90066l-1.11613,1.11934,1.11613,1.11924c.69635.69314.69635,1.83791,0,2.53105-.34662.34982-.80445.52148-1.26548.52148s-.91905-.17166-1.26557-.52148l-1.11924-1.11613-1.11934,1.11613c-.34662.34982-.80445.52148-1.26548.52148s-.91905-.17166-1.26557-.52148c-.69635-.69314-.69635-1.83791,0-2.53105l1.11613-1.11924-1.11613-1.11934c-.69635-.69314-.69635-1.83791,0-2.53105.69314-.69635,1.83791-.69635,2.53105,0l1.11934,1.11613,1.11924-1.11613c.70595-.69635,1.83791-.69635,2.53105,0,.69635.69314.69635,1.83791,0,2.53105h0ZM44.11584,28.02c0,7.56452-6.1464,13.71102-13.71102,13.71102H6.55668c-3.61545,0-6.55668-2.94123-6.55668-6.55659V6.55659C0,2.94123,2.94123,0,6.55668,0h26.23294c3.61536,0,6.55659,2.94123,6.55659,6.55659v11.09099c2.91901,2.52164,4.76963,6.22277,4.76963,10.37242h0ZM15.49808,8.9414c0,.3244.27345.59785.59785.59785h7.15444c.3243,0,.59776-.27345.59776-.59785V3.57402h-8.35005v5.36738ZM21.19937,38.15701c-2.75686-2.51203-4.50568-6.11147-4.50568-10.13701,0-7.56462,6.1465-13.71112,13.71112-13.71112,1.90147,0,3.71395.38476,5.36738,1.09071V6.55659c0-1.64072-1.34185-2.98257-2.98257-2.98257h-5.36748v5.36738c0,2.29893-1.87294,4.17187-4.17177,4.17187h-7.15444c-2.29893,0-4.17187-1.87294-4.17187-4.17187V3.57402h-5.36738c-1.64082,0-2.98267,1.34185-2.98267,2.98257v28.61785c0,1.64072,1.34185,2.98257,2.98267,2.98257h14.64269ZM40.54182,28.02c0-5.58999-4.54712-10.1371-10.13701-10.1371s-10.1371,4.54712-10.1371,10.1371,4.54712,10.13701,10.1371,10.13701,10.13701-4.54712,10.13701-10.13701h0ZM40.54182,28.02" fill="#fff"/>
</svg>