<?xml version="1.0" encoding="UTF-8"?>
<svg id="_레이어_1" xmlns="http://www.w3.org/2000/svg" version="1.1" viewBox="0 0 13.6 13.6">
  <!-- Generator: Adobe Illustrator 29.1.0, SVG Export Plug-In . SVG Version: 2.1.0 Build 142)  -->
  <defs>
    <style>
      .st0 {
        fill: #222;
        fill-rule: evenodd;
      }
    </style>
  </defs>
  <path class="st0" d="M8.5,1.3c-1.3-.3-2.6-.3-3.8,0-1.7.4-2.9,1.7-3.3,3.3-.3,1.3-.3,2.6,0,3.8.4,1.7,1.7,2.9,3.3,3.3,1.3.3,2.6.3,3.8,0,1.7-.4,2.9-1.7,3.3-3.3.3-1.3.3-2.6,0-3.8-.4-1.7-1.7-2.9-3.3-3.3h0ZM4.4.2c1.5-.2,2.9-.2,4.4,0,2.1.5,3.7,2.1,4.2,4.2.3,1.4.3,2.9,0,4.4-.2.8-.6,1.6-1.1,2.3l1.6,1.6c.2.2.2.6,0,.8s-.6.2-.8,0l-1.6-1.6c-.6.5-1.4.9-2.3,1.1-1.4.3-2.9.3-4.4,0-2.1-.5-3.7-2.1-4.2-4.2-.2-1.5-.2-2.9,0-4.4C.7,2.4,2.4.7,4.4.2h0ZM6.6,4.1c.3,0,.6.3.6.6v1.4h1.4c.3,0,.6.3.6.6s-.3.6-.6.6h-1.4v1.4c0,.3-.2.6-.6.6s-.6-.3-.6-.6v-1.4h-1.4c-.3,0-.6-.2-.6-.6s.3-.6.6-.6h1.4v-1.4c0-.3.3-.6.6-.6h0Z"/>
</svg>