<?xml version="1.0" encoding="UTF-8"?>
<svg id="_레이어_1" data-name="레이어_1" xmlns="http://www.w3.org/2000/svg" version="1.1" viewBox="0 0 383.99958 366.52046">
  <!-- Generator: Adobe Illustrator 29.3.0, SVG Export Plug-In . SVG Version: 2.1.0 Build 146)  -->
  <path d="M127.00279,341.46119c28.769,10.55899,75.496,27.05902,144.07002,24.85999,8.383-.27798,16.76199-.59799,25.13696-.95697,30.49603-1.39102,58.246-25.50003,65.25-56.02802,7.785-34.582,15-68.94501,21.48804-103.054,7.29697-38.30501-24.35104-73.88301-64.664-74.688-25.625-.36301-51.25003-.61301-76.875-.75,0,0,12.09-24.367,11.422-65.02301C251.77981,16.99717,215.95179-.02282,200.3778.00019c-15.68401-.04602-23.606,8.25-23.84401,49.03598-.082,34.867-30.32401,63.75003-54.144,81.035,0,0-14.774,8.67201-41.317,8.67201v172.86699s16.80901,19.18301,45.92999,29.85101h0ZM127.00279,341.46119" style="fill: #f5b48b;"/>
  <path d="M122.38979,130.07117s-14.774,8.67201-41.317,8.67201v172.86699s16.80901,19.18301,45.92999,29.85101c28.769,10.55899,75.496,27.05902,144.07002,24.85999,8.383-.27798,16.76199-.59799,25.13696-.95697,30.49603-1.39102,58.246-25.50003,65.25-56.02802,7.785-34.582,15-68.94501,21.48804-103.054,7.29697-38.30501-24.35104-73.88301-64.664-74.688-25.625-.36301-51.25003-.61301-76.875-.75l-119.01901-.77301ZM122.38979,130.07117" style="fill: #ffc49b;"/>
  <path d="M9.23681,322.25419c3.19598,17.19598,21,31.86798,41.99998,34.297,6.91.793,13.832,1.535,20.76199,2.21899,16.64801,1.64099,30.18001-9,29.64101-23.05499-2.621-64.30002-3.575-128.593-2.868-192.886.14499-14.07501-14.17101-25.00398-31.35501-23.83199-7.125.46799-14.25401.98798-21.39101,1.55798-21.58597,1.746-39.20297,15.75-41.461,32.84399-7.42899,56.34-5.72998,112.23001,4.67203,168.85501h0ZM9.23681,322.25419" style="fill: #4193d2;"/>
  <path d="M98.66279,214.23917c-.19501-23.81299-.164-47.62097.09799-71.42999.14001-14.078-14.17599-25.00803-31.35999-23.836-7.125.46899-14.25401.98799-21.39,1.55899-21.586,1.75-39.203,15.75-41.461,32.843-5.40601,41.02-5.996,82.532-1.76199,123.692,37.18399-11.60901,70.38699-33.371,95.87498-62.828h0ZM98.66279,214.23917" style="fill: #48a4df;"/>
  <metadata>
    <sfw xmlns="http://ns.adobe.com/SaveForWeb/1.0/">
      <slices/>
      <sliceSourceBounds x="114" y="212.75" width="384" height="366.52" bottomLeftOrigin="true"/>
    </sfw>
  </metadata>
</svg>