<?xml version="1.0" encoding="UTF-8"?>
<svg id="_레이어_1" data-name="레이어_1" xmlns="http://www.w3.org/2000/svg" version="1.1" viewBox="0 0 72.8 76.8">
  <!-- Generator: Adobe Illustrator 29.1.0, SVG Export Plug-In . SVG Version: 2.1.0 Build 142)  -->
  <defs>
    <style>
      .st0 {
        fill: #fff;
        fill-rule: evenodd;
      }
    </style>
  </defs>
  <path class="st0" d="M44.7,6.9c-5.5-1.3-11.2-1.3-16.7,0l-.9.2c-9.9,2.4-17.8,10.5-20.2,21-1.4,5.9-1.3,12.1,0,18,2.5,10.9,9.9,19.9,19.6,24.1l.5.2-1.1,2.7,1.1-2.7c3,1.3,6.6-.2,7.9-3.6.9-2.4,3.2-4.1,5.9-4.1h4.2c9.9,0,18.7-7.1,21-17.5,1.2-5.3,1.2-10.9,0-16.2l-.4-1.5c-2.3-10.2-9.9-17.9-19.4-20.2l-1.5-.4ZM26.6,1.2c6.4-1.5,13.1-1.5,19.5,0l1.5.4c11.8,2.8,21,12.4,23.8,24.6l.3,1.5c1.4,6.2,1.4,12.7,0,18.8-3,12.9-14,22.1-26.8,22.1h-4.2c0,0-.3,0-.4.3-2.4,6.3-9.4,9.6-15.7,6.9l-.5-.2c-11.6-5-20.1-15.5-23.1-28.2-1.6-6.8-1.6-13.9,0-20.7C4.1,14.2,13.5,4.3,25.8,1.4l.9-.2ZM20.5,26.8c0-1.6,1.3-3,3-3h23.8c1.6,0,3,1.3,3,3s-1.3,3-3,3h-23.8c-1.6,0-3-1.3-3-3h0ZM20.5,40.4c0-1.6,1.3-3,3-3h15.1c1.6,0,3,1.3,3,3s-1.3,3-3,3h-15.1c-1.6,0-3-1.3-3-3h0ZM20.5,40.4"/>
</svg>