<?xml version="1.0" encoding="UTF-8"?>
<svg id="_레이어_1" xmlns="http://www.w3.org/2000/svg" version="1.1" viewBox="0 0 128 160.4">
  <!-- Generator: Adobe Illustrator 29.1.0, SVG Export Plug-In . SVG Version: 2.1.0 Build 142)  -->
  <defs>
    <style>
      .st0 {
        fill: #e2e2e2;
        fill-rule: evenodd;
      }
    </style>
  </defs>
  <path class="st0" d="M100.5,85.1c1.5-1.5,3.2-2.7,5.2-3.6,1.9-.8,4.1-1.3,6.2-1.3s4.2.4,6.2,1.2c2,.8,3.8,2,5.3,3.5s2.7,3.3,3.5,5.3,1.2,4.1,1.2,6.2-.5,4.2-1.3,6.2-2.1,3.7-3.6,5.2l-48,48c-3,3-7.1,4.7-11.3,4.7s-8.3-1.7-11.3-4.7L4.5,107.7c-2.9-3-4.5-7.1-4.5-11.3s1.7-8.2,4.7-11.2c3-3,7-4.6,11.2-4.7,4.2,0,8.2,1.6,11.3,4.5l36.7,36.7,36.7-36.7h-.1Z"/>
  <path class="st0" d="M100.5,85.1"/>
  <path class="st0" d="M100.5,4.9c1.5-1.5,3.2-2.7,5.2-3.6,1.9-.8,4-1.3,6.2-1.3s4.2.4,6.2,1.2c2,.8,3.8,2,5.3,3.5,1.5,1.5,2.7,3.3,3.5,5.3s1.2,4.1,1.2,6.2-.5,4.2-1.3,6.2-2.1,3.7-3.6,5.2l-48,48c-3,3-7.1,4.7-11.3,4.7s-8.3-1.7-11.3-4.7L4.5,27.5C1.6,24.5,0,20.4,0,16.3S1.7,8.1,4.7,5.1C7.7,2.1,11.7.4,15.9.4s8.2,1.6,11.3,4.5l36.7,36.7L100.5,4.9Z"/>
  <path class="st0" d="M100.5,4.9"/>
</svg>