<?xml version="1.0" encoding="UTF-8"?>
<svg id="_xF91C_迹_x5F_1" xmlns="http://www.w3.org/2000/svg" version="1.1" viewBox="0 0 157.2206 157.2206">
  <!-- Generator: Adobe Illustrator 29.7.1, SVG Export Plug-In . SVG Version: 2.1.1 Build 8)  -->
  <circle cx="78.6103" cy="78.6103" r="78.6103" style="fill: #0562fe;"/>
  <path d="M69.72625,92.05165c-.6675-9.333-1.2456-15.8183-1.69189-19.4169l-5.38771-35.3204c-.3554-2.8437-.5351-5.1533-.5351-6.8862,0-2.8862.7592-5.687,2.2275-8.2637,1.4697-2.5761,3.5191-4.6211,6.0991-6.1318,2.5835-1.5532,5.2998-2.2651,8.0616-2.2651,2.80561,0,5.5224.7563,8.1484,2.3095,2.6728,1.5127,4.7207,3.6001,6.2363,6.2207,1.4678,2.6216,2.2246,5.3755,2.2246,8.3081,0,2.2671-.3125,5.1534-.8896,8.7085-2.8506,16.8833-4.7647,29.7207-5.74509,38.5635-.44541,4.3535-.80081,9.0635-1.02351,14.1738h-.0459v.3985c0,4.8418-3.9629,8.7969-8.8164,8.7969-4.8086,0-8.7734-3.9551-8.7734-8.7969v-.3985h-.0889ZM78.58855,111.24215c4.542,0,8.3731,1.6006,11.5332,4.7099,3.2061,3.1553,4.80861,6.9307,4.80861,11.375,0,4.4405-1.60251,8.2178-4.80861,11.417-3.1601,3.1114-6.9912,4.709-11.5332,4.709s-8.3711-1.5976-11.53319-4.709c-3.16111-3.1992-4.76411-6.9765-4.76411-11.417,0-4.4443,1.603-8.2197,4.76411-11.375,3.16209-3.1093,6.99119-4.7099,11.53319-4.7099Z" style="fill: #fff; fill-rule: evenodd;"/>
</svg>