<?xml version="1.0" encoding="UTF-8"?>
<svg id="_레이어_1" data-name="레이어_1" xmlns="http://www.w3.org/2000/svg" version="1.1" xmlns:xlink="http://www.w3.org/1999/xlink" viewBox="0 0 296 264">
  <!-- Generator: Adobe Illustrator 29.1.0, SVG Export Plug-In . SVG Version: 2.1.0 Build 142)  -->
  <defs>
    <style>
      .st0 {
        fill: none;
      }

      .st1 {
        fill-rule: evenodd;
      }

      .st2 {
        clip-path: url(#clippath);
      }
    </style>
    <clipPath id="clippath">
      <rect class="st0" width="296" height="264"/>
    </clipPath>
  </defs>
  <path class="st1" d="M108,0c33.1,0,60,26.9,60,60s-26.9,60-60,60-60-26.9-60-60S74.9,0,108,0h0ZM144,60c0-19.9-16.1-36-36-36s-36,16.1-36,36,16.1,36,36,36,36-16.1,36-36h0ZM144,60"/>
  <path class="st1" d="M156,144c33.1,0,60,26.9,60,60s-26.9,60-60,60H60c-33.1,0-60-26.9-60-60s26.9-60,60-60h96ZM192,204c0-19.9-16.1-36-36-36H60c-19.9,0-36,16.1-36,36s16.1,36,36,36h96c19.9,0,36-16.1,36-36h0ZM192,204"/>
  <g class="st2">
    <path d="M176,102.2c2.5-4.1,7.3-6.2,12-6.2,19.9,0,36-16.1,36-36s-16.1-36-36-36-9.5-2.2-12-6.2c-.1-.2-.2-.4-.3-.5-4.2-6.6-2.1-16,5.7-16.9,2.2-.2,4.4-.4,6.6-.4,33.1,0,60,26.9,60,60s-26.9,60-60,60-4.5-.1-6.6-.4c-7.8-.9-9.9-10.2-5.7-16.9.1-.2.2-.4.3-.5h0ZM176,102.2"/>
    <path d="M224.7,229.1c1.8-3,5-5.1,8.6-5.1h2.8c19.9,0,36-16.1,36-36s-16.1-36-36-36h-2.8c-3.5,0-6.7-2-8.6-5.1-4.4-7.4.4-18.9,9-18.9h2.3c33.1,0,60,26.9,60,60s-26.9,60-60,60h-2.3c-8.6,0-13.4-11.5-9-18.9h0ZM224.7,229.1"/>
  </g>
</svg>