<?xml version="1.0" encoding="UTF-8"?>
<svg id="Isolation_Mode" xmlns="http://www.w3.org/2000/svg" version="1.1" viewBox="0 0 316.4 332">
  <!-- Generator: Adobe Illustrator 29.1.0, SVG Export Plug-In . SVG Version: 2.1.0 Build 142)  -->
  <defs>
    <style>
      .st0 {
        fill: #fff;
      }
    </style>
  </defs>
  <path class="st0" d="M126,0C83,0,48,35,48,78s35,78,78,78,78-35,78-78S169,0,126,0ZM126,128c-27.6,0-50-22.4-50-50s22.4-50,50-50,50,22.4,50,50-22.4,50-50,50Z"/>
  <path class="st0" d="M78,204h86.4c7.7,0,14-6.3,14-14s-6.3-14-14-14h-86.4C35,176,0,211,0,254s35,78,78,78h86.4c7.7,0,14-6.3,14-14s-6.3-14-14-14h-86.4c-27.6,0-50-22.4-50-50s22.4-50,50-50Z"/>
  <path class="st0" d="M249.7,187.4c-36.8,0-66.6,29.8-66.6,66.6s29.8,66.6,66.6,66.6,66.6-29.8,66.6-66.6-29.8-66.6-66.6-66.6ZM277.3,300h-18.4v-27.6h-18.4v27.6h-18.4v-64.3c0-15.2,12.4-27.6,27.6-27.6s27.6,12.4,27.6,27.6v64.3Z"/>
  <path class="st0" d="M249.7,226.4c-5.1,0-9.2,4.1-9.2,9.2v18.4h18.4v-18.4c0-5.1-4.1-9.2-9.2-9.2Z"/>
</svg>