<?xml version="1.0" encoding="UTF-8"?>
<svg id="_레이어_1" data-name="레이어_1" xmlns="http://www.w3.org/2000/svg" version="1.1" viewBox="0 0 383.65852 366.01197">
  <!-- Generator: Adobe Illustrator 29.3.0, SVG Export Plug-In . SVG Version: 2.1.0 Build 146)  -->
  <g>
    <path d="M342.53774,135.31296c-14.51999,18.035-29.543,36.703-44.69199,55.73801-3.01501,3.76599-4.668,8.43399-4.69501,13.254-.047,23.649-.57001,47.27399-1.57803,70.875-.69501,14.43799-15.33597,25.94901-28.22296,21.793-21.13303-6.80801-42.75002-14.35101-64.67203-22.371-4.40199-1.61301-9.22998-1.61301-13.63199,0-21.946,8.01999-43.5,15.56299-64.67201,22.371-12.88699,4.172-27.51199-7.35501-28.22299-21.793-.99998-23.60101-1.52699-47.226-1.57799-70.88301-.02701-4.81599-1.68402-9.48399-4.69501-13.24599-15.149-19.035-30.172-37.703-44.69199-55.73801-8.94501-11.02699-2.75003-27.285,11.60199-31.85199,23.371-7.336,46.67599-14.793,69.81999-22.14001,4.668-1.492,8.715-4.48499,11.50401-8.51199,13.99599-20.14801,27.82401-40.418,41.12898-60.57001,8.17599-12.40601,25.05099-12.40601,33.226,0,13.30502,20.15201,27.13301,40.418,41.12202,60.57001,2.79597,4.02701,6.847,7.01999,11.519,8.51199,23.14499,7.34702,46.44901,14.80402,69.82001,22.14001,14.35995,4.55899,20.55496,20.825,11.60999,31.85199h0ZM342.53774,135.31296" style="fill: #f9973e;"/>
    <path d="M15.61175,237.94995c-7.69904-.06699-14.21902-5.69199-15.41803-13.293-1.19901-7.60599,3.27002-14.961,10.57401-17.39899l20.80502-6.75c4.039-1.57001,8.547-1.40601,12.465.45299,3.914,1.86,6.89,5.25,8.226,9.375s.914,8.61801-1.16801,12.418c-2.08197,3.80099-5.63998,6.57901-9.83597,7.672l-20.80402,6.75002c-1.56302.51199-3.19901.77399-4.84399.77399h0ZM15.61175,237.94995" style="fill: #fca84c;"/>
    <path d="M368.11175,237.94995c-1.64499.00699-3.28101-.246-4.84399-.75l-20.793-6.74998c-4.19104-1.09401-7.75003-3.87099-9.832-7.67201-2.082-3.80499-2.504-8.297-1.168-12.418,1.336-4.125,4.31299-7.51599,8.22696-9.375,3.91803-1.86,8.42603-2.024,12.465-.453l20.78903,6.75c7.26901,2.46101,11.70697,9.80101,10.508,17.37901-1.19598,7.57799-7.68002,13.19099-15.35199,13.28899h0ZM368.11175,237.94995" style="fill: #fca84c;"/>
    <path d="M95.72073,48.34796c-5.047.01602-9.79298-2.39801-12.75-6.48401l-12.75-17.625c-4.496-7.02798-2.73399-16.336,4.01601-21.23499,6.746-4.89801,16.145-3.68701,21.43001,2.76199l12.75,17.625c3.44901,4.785,3.937,11.09799,1.25699,16.35602-2.67499,5.25699-8.07001,8.57797-13.968,8.60098h.015ZM95.72073,48.34796" style="fill: #fca84c;"/>
    <path d="M288.00976,48.33597c-5.89801-.02301-11.293-3.34302-13.96802-8.60101-2.67999-5.258-2.19199-11.57401,1.25797-16.35999l12.75-17.60901c5.28903-6.44901,14.68301-7.66,21.42905-2.76199,6.75,4.89899,8.51199,14.207,4.01999,21.23499l-12.75,17.60901c-2.961,4.07797-7.69598,6.492-12.73898,6.48801h0ZM288.00976,48.33597" style="fill: #fca84c;"/>
  </g>
  <path d="M191.86175,366.01197c-8.69902,0-15.75-7.05099-15.75-15.75v-20.68301c.44901-8.35999,7.35498-14.91098,15.72699-14.91098,8.371,0,15.28101,6.55099,15.726,14.91098v20.71402c-.015,8.668-7.03499,15.69598-15.70299,15.71899h0ZM191.86175,366.01197" style="fill: #fca84c;"/>
  <path d="M289.90872,90.47696l-28.793-9.15601c-4.66797-1.496-8.71098-4.48798-11.50397-8.51199-13.98801-20.15201-27.81601-40.418-41.121-60.57001-8.17599-12.40601-25.05099-12.40601-33.22702,0-13.30399,20.15201-27.13597,40.422-41.129,60.57001-2.79298,4.02701-6.83899,7.02402-11.511,8.51199-23.14899,7.34702-46.44998,14.80402-69.82098,22.14001-14.355,4.56699-20.55,20.825-11.601,31.85199,14.519,18.035,29.543,36.703,44.69099,55.73801,3.02,3.758,4.68399,8.42599,4.71899,13.24599,0,11.21901.129,22.43401.39101,33.63701,93.59299-.39798,172.69501-62.332,198.90598-147.457h0ZM289.90872,90.47696" style="fill: #fca84c;"/>
  <metadata>
    <sfw xmlns="http://ns.adobe.com/SaveForWeb/1.0/">
      <slices/>
      <sliceSourceBounds x="114.14" y="212.63" width="383.66" height="366.01" bottomLeftOrigin="true"/>
    </sfw>
  </metadata>
</svg>