<?xml version="1.0" encoding="UTF-8"?>
<svg id="_레이어_1" xmlns="http://www.w3.org/2000/svg" version="1.1" viewBox="0 0 128 160.4">
  <!-- Generator: Adobe Illustrator 29.1.0, SVG Export Plug-In . SVG Version: 2.1.0 Build 142)  -->
  <defs>
    <style>
      .st0 {
        fill: #e2e2e2;
        fill-rule: evenodd;
      }
    </style>
  </defs>
  <path class="st0" d="M27.5,75.3c-1.5,1.5-3.2,2.7-5.2,3.6-1.9.8-4.1,1.3-6.2,1.3s-4.2-.4-6.2-1.2c-2-.8-3.8-2-5.3-3.5s-2.7-3.3-3.5-5.3c-.7-1.9-1.1-4-1.1-6.1s.5-4.2,1.3-6.2,2.1-3.7,3.6-5.2L52.9,4.7c3-3,7.1-4.7,11.3-4.7s8.3,1.7,11.3,4.7l48,48c2.9,3,4.5,7.1,4.5,11.3s-1.7,8.2-4.7,11.2-7,4.6-11.2,4.7c-4.2,0-8.2-1.6-11.3-4.5l-36.7-36.7-36.7,36.7h0Z"/>
  <path class="st0" d="M27.5,75.3"/>
  <path class="st0" d="M27.5,155.5c-1.5,1.5-3.2,2.7-5.2,3.6-1.9.8-4.1,1.3-6.2,1.3s-4.2-.4-6.2-1.2-3.8-2-5.3-3.5-2.7-3.3-3.5-5.3c-.7-1.9-1.1-4-1.1-6.2s.5-4.2,1.3-6.2,2.1-3.7,3.6-5.2l48-48c3-3,7.1-4.7,11.3-4.7s8.3,1.7,11.3,4.7l48,48c2.9,3,4.5,7.1,4.5,11.3s-1.7,8.2-4.7,11.2-7,4.6-11.2,4.7c-4.2,0-8.2-1.6-11.3-4.5l-36.7-36.7-36.7,36.7h0Z"/>
  <path class="st0" d="M27.5,155.5"/>
</svg>