<?xml version="1.0" encoding="UTF-8"?>
<svg id="_레이어_1" data-name="레이어_1" xmlns="http://www.w3.org/2000/svg" version="1.1" viewBox="0 0 128 80.2">
  <!-- Generator: Adobe Illustrator 29.1.0, SVG Export Plug-In . SVG Version: 2.1.0 Build 142)  -->
  <defs>
    <style>
      .st0 {
        fill: #4f4e9f;
        fill-rule: evenodd;
      }
    </style>
  </defs>
  <path class="st0" d="M27.5,75.3c-1.5,1.5-3.2,2.7-5.2,3.6-1.9.8-4.1,1.3-6.2,1.3-2.1,0-4.2-.4-6.2-1.2-2-.8-3.8-2-5.3-3.5-1.5-1.5-2.7-3.3-3.5-5.3C.4,68.3,0,66.2,0,64.1c0-2.1.5-4.2,1.3-6.2.8-2,2.1-3.7,3.6-5.2L52.9,4.7c3-3,7.1-4.7,11.3-4.7s8.3,1.7,11.3,4.7l48,48c2.9,3,4.5,7.1,4.5,11.3,0,4.2-1.7,8.2-4.7,11.2-3,3-7,4.6-11.2,4.7-4.2,0-8.2-1.6-11.3-4.5l-36.7-36.7-36.7,36.7Z"/>
  <path class="st0" d="M27.5,75.3"/>
</svg>