<?xml version="1.0" encoding="UTF-8"?>
<svg id="_레이어_1" xmlns="http://www.w3.org/2000/svg" version="1.1" viewBox="0 0 13.1 13.1">
  <!-- Generator: Adobe Illustrator 29.1.0, SVG Export Plug-In . SVG Version: 2.1.0 Build 142)  -->
  <defs>
    <style>
      .st0 {
        fill: #222;
      }
    </style>
  </defs>
  <path class="st0" d="M11.1,0H2.1C.9,0,0,.9,0,2.1v9c0,1.1.9,2.1,2.1,2.1h9c1.1,0,2.1-.9,2.1-2.1V2.1c0-1.1-.9-2.1-2.1-2.1h0ZM4.9,1.1h3.4v3.2c0,0,0,.2-.2.2h-3c0,0-.2,0-.2-.2,0,0,0-3.2,0-3.2ZM12,11.1c0,.5-.4.9-.9.9H2.1c-.5,0-.9-.4-.9-.9V2.1c0-.5.4-.9.9-.9h1.7v3.2c0,.7.6,1.3,1.3,1.3h3c.7,0,1.3-.6,1.3-1.3V1.1h1.7c.5,0,.9.4.9.9v9h0ZM5.6,9.6c0,.3-.3.6-.6.6h-1.5c-.3,0-.6-.3-.6-.6s.3-.6.6-.6h1.5c.3,0,.6.3.6.6h0Z"/>
</svg>