<?xml version="1.0" encoding="UTF-8"?>
<svg id="_레이어_1" data-name="레이어_1" xmlns="http://www.w3.org/2000/svg" version="1.1" viewBox="0 0 287.8 330">
  <!-- Generator: Adobe Illustrator 29.1.0, SVG Export Plug-In . SVG Version: 2.1.0 Build 142)  -->
  <defs>
    <style>
      .st0 {
        fill-rule: evenodd;
      }

      .st0, .st1 {
        fill: #fff;
        stroke: #fff;
        stroke-miterlimit: 10;
        stroke-width: 2px;
      }
    </style>
  </defs>
  <path class="st0" d="M125,1c-42,0-76,34-76,76s34,76,76,76,76-34,76-76S167,1,125,1h0ZM73,77c0-28.7,23.3-52,52-52s52,23.3,52,52-23.3,52-52,52-52-23.3-52-52h0ZM73,77"/>
  <path class="st1" d="M77,177C35,177,1,211,1,253s34,76,76,76h86.4c6.6,0,12-5.4,12-12s-5.4-12-12-12h-86.4c-28.7,0-52-23.3-52-52s23.3-52,52-52h86.4c6.6,0,12-5.4,12-12s-5.4-12-12-12h-86.4ZM77,177"/>
  <path class="st1" d="M283.3,231.4c4.7-4.7,4.7-12.3,0-17-4.7-4.7-12.3-4.7-17,0l-25.5,25.5-25.5-25.5c-4.7-4.7-12.3-4.7-17,0-4.7,4.7-4.7,12.3,0,17l25.5,25.5-25.5,25.5c-4.7,4.7-4.7,12.3,0,17,4.7,4.7,12.3,4.7,17,0l25.5-25.5,25.5,25.5c4.7,4.7,12.3,4.7,17,0,4.7-4.7,4.7-12.3,0-17l-25.5-25.5,25.5-25.5ZM283.3,231.4"/>
</svg>