<?xml version="1.0" encoding="UTF-8"?>
<svg id="_레이어_1" data-name="레이어_1" xmlns="http://www.w3.org/2000/svg" version="1.1" viewBox="0 0 21.9 24.4">
  <!-- Generator: Adobe Illustrator 29.2.0, SVG Export Plug-In . SVG Version: 2.1.0 Build 108)  -->
  <defs>
    <style>
      .st0 {
        fill: #222;
        fill-rule: evenodd;
      }
    </style>
  </defs>
  <path class="st0" d="M10.9,1.9c-1.6,0-3.2.6-4.4,1.8-1.2,1.2-1.8,2.7-1.8,4.4s1.2,4.6,2.6,6.5c.7.9,1.5,1.7,2.2,2.2.3.3.6.5.9.6.3.1.4.1.5.1s.2,0,.5-.1c.3-.1.6-.3.9-.6.7-.5,1.5-1.3,2.2-2.2,1.5-1.9,2.6-4.3,2.6-6.5v-.4c0-1.5-.7-2.9-1.8-4-1.2-1.2-2.7-1.8-4.4-1.8h0ZM18.9,9h0v-.9c0-2.1-.8-4.2-2.3-5.7-1.5-1.5-3.6-2.4-5.7-2.4s-4.2.8-5.7,2.4c-1.5,1.5-2.4,3.6-2.4,5.7s1.4,5.6,3,7.6c.8,1,1.7,1.9,2.5,2.6.4.3.8.6,1.2.8.4.2.8.3,1.3.3s.9-.1,1.3-.3c.4-.2.8-.5,1.2-.8.8-.6,1.7-1.5,2.5-2.6,1.4-1.8,2.7-4.2,3-6.7h0ZM18.9,9"/>
  <path class="st0" d="M7.3,8.1c0-2,1.6-3.6,3.6-3.6s3.6,1.6,3.6,3.6-1.6,3.6-3.6,3.6-3.6-1.6-3.6-3.6h0ZM10.9,6.3c-1,0-1.8.8-1.8,1.8s.8,1.8,1.8,1.8,1.8-.8,1.8-1.8-.8-1.8-1.8-1.8h0ZM10.9,6.3"/>
  <path class="st0" d="M6.8,13.8c.1.5-.1,1-.6,1.2-1.4.4-2.5,1-3.3,1.6-.7.6-1,1.3-1,1.8,0,.8.7,1.8,2.4,2.7,1.7.8,4,1.4,6.7,1.4s5-.5,6.7-1.4c1.7-.9,2.4-1.9,2.4-2.7s-.3-1.2-1.1-1.8c-.7-.6-1.9-1.2-3.3-1.6-.5-.1-.8-.7-.6-1.2.1-.5.7-.8,1.2-.6,1.6.5,3,1.1,4,2,1,.9,1.7,2,1.7,3.3,0,1.9-1.5,3.4-3.4,4.4-2,1-4.6,1.6-7.5,1.6s-5.5-.6-7.5-1.6c-1.9-1-3.4-2.4-3.4-4.4s.7-2.4,1.7-3.2c1-.9,2.4-1.5,4-2,.5-.1,1,.1,1.2.6h0ZM6.8,13.8"/>
</svg>