<?xml version="1.0" encoding="UTF-8"?>
<svg id="Outline" xmlns="http://www.w3.org/2000/svg" version="1.1" viewBox="0 0 512 512">
  <!-- Generator: Adobe Illustrator 29.1.0, SVG Export Plug-In . SVG Version: 2.1.0 Build 142)  -->
  <defs>
    <style>
      .st0 {
        fill: #222;
      }
    </style>
  </defs>
  <path class="st0" d="M149.3,0h-64C38.2,0,0,38.2,0,85.3v64c0,47.1,38.2,85.3,85.3,85.3h64c47.1,0,85.3-38.2,85.3-85.3v-64C234.7,38.2,196.5,0,149.3,0ZM192,149.3c0,23.6-19.1,42.7-42.7,42.7h-64c-23.6,0-42.7-19.1-42.7-42.7v-64c0-23.6,19.1-42.7,42.7-42.7h64c23.6,0,42.7,19.1,42.7,42.7v64Z"/>
  <path class="st0" d="M426.7,0h-64c-47.1,0-85.3,38.2-85.3,85.3v64c0,47.1,38.2,85.3,85.3,85.3h64c47.1,0,85.3-38.2,85.3-85.3v-64c0-47.1-38.2-85.3-85.3-85.3ZM469.3,149.3c0,23.6-19.1,42.7-42.7,42.7h-64c-23.6,0-42.7-19.1-42.7-42.7v-64c0-23.6,19.1-42.7,42.7-42.7h64c23.6,0,42.7,19.1,42.7,42.7v64Z"/>
  <path class="st0" d="M149.3,277.3h-64c-47.1,0-85.3,38.2-85.3,85.3v64c0,47.1,38.2,85.3,85.3,85.3h64c47.1,0,85.3-38.2,85.3-85.3v-64c0-47.1-38.2-85.3-85.3-85.3ZM192,426.7c0,23.6-19.1,42.7-42.7,42.7h-64c-23.6,0-42.7-19.1-42.7-42.7v-64c0-23.6,19.1-42.7,42.7-42.7h64c23.6,0,42.7,19.1,42.7,42.7v64Z"/>
  <path class="st0" d="M426.7,277.3h-64c-47.1,0-85.3,38.2-85.3,85.3v64c0,47.1,38.2,85.3,85.3,85.3h64c47.1,0,85.3-38.2,85.3-85.3v-64c0-47.1-38.2-85.3-85.3-85.3ZM469.3,426.7c0,23.6-19.1,42.7-42.7,42.7h-64c-23.6,0-42.7-19.1-42.7-42.7v-64c0-23.6,19.1-42.7,42.7-42.7h64c23.6,0,42.7,19.1,42.7,42.7v64Z"/>
</svg>