<?xml version="1.0" encoding="UTF-8"?>
<svg id="_레이어_1" data-name="레이어_1" xmlns="http://www.w3.org/2000/svg" version="1.1" viewBox="0 0 383.99197 352.2745">
  <!-- Generator: Adobe Illustrator 29.3.0, SVG Export Plug-In . SVG Version: 2.1.0 Build 146)  -->
  <path d="M237.23,45.23901c0,24.98398-20.254,45.24197-45.23801,45.24197s-45.23799-20.258-45.23799-45.24197S167.007,0,191.99199,0s45.23801,20.254,45.23801,45.23901h0ZM237.23,45.23901" style="fill: #fca84c;"/>
  <g>
    <path d="M90.48,114.44899c0,24.985-20.25401,45.239-45.24199,45.239-24.98401,0-45.23801-20.254-45.23801-45.239s20.254-45.23799,45.23801-45.23799c24.98798,0,45.24199,20.254,45.24199,45.23799h0ZM90.48,114.44899" style="fill: #fca84c;"/>
    <path d="M383.99197,114.44899c0,24.985-20.25397,45.239-45.23801,45.239-24.98898,0-45.24295-20.254-45.24295-45.239s20.25397-45.23799,45.24295-45.23799c24.98404,0,45.23801,20.254,45.23801,45.23799h0ZM383.99197,114.44899" style="fill: #f9973e;"/>
    <path d="M167.386,123.70299c-12.45299,28.88301-25.5,57.75-38.10899,85.957-8.78902,19.864-33.90602,21.96901-45.75002,5.336-8.77299-12.375-17.25-24.347-25.38699-35.82799-9.33199-13.39-32.304-1.668-30.60899,14.446,4.5,39.839,13.26898,80.886,24.84,124.08501,3.578,13.086,15.511,24.547,27.82799,26.38699,74.144,10.918,149.48802,10.918,223.63298,0,12.31604-1.84,24.246-13.30099,27.82401-26.38699,11.57404-43.19901,20.34802-84.246,24.84-124.08501,1.69501-16.114-21.26996-27.836-30.59796-14.446-8.10104,11.48099-16.61301,23.45299-25.39401,35.82799-11.86798,16.63301-36.98499,14.528-45.75-5.336-12.61801-28.21399-25.668-57.07399-38.10999-85.957-10.44101-24.11699-38.85501-24.11699-49.25801,0h0ZM167.386,123.70299" style="fill: #f9973e;"/>
  </g>
  <path d="M253.261,206.407c-12.16801-27.172-24.68301-54.93001-36.65601-82.70401-10.40199-24.11699-38.81599-24.11699-49.21899,0-12.45299,28.88301-25.5,57.75-38.10899,85.957-8.78902,19.864-33.90602,21.96901-45.75002,5.336-8.77299-12.375-17.25-24.347-25.38699-35.82799-9.33199-13.39-32.304-1.668-30.60899,14.446,3.121,27.85898,8.371,56.31599,15.18701,85.679,15.60599,3.63699,31.57896,5.46899,47.60597,5.457,63.40602.05899,123.38701-28.78101,162.93701-78.343h0ZM253.261,206.407" style="fill: #fca84c;"/>
  <metadata>
    <sfw xmlns="http://ns.adobe.com/SaveForWeb/1.0/">
      <slices/>
      <sliceSourceBounds x="114.1" y="219.86" width="383.99" height="352.27" bottomLeftOrigin="true"/>
    </sfw>
  </metadata>
</svg>