<?xml version="1.0" encoding="UTF-8"?>
<svg id="_레이어_1" xmlns="http://www.w3.org/2000/svg" version="1.1" viewBox="0 0 154.1 128.7">
  <!-- Generator: Adobe Illustrator 29.1.0, SVG Export Plug-In . SVG Version: 2.1.0 Build 142)  -->
  <defs>
    <style>
      .st0 {
        fill: #222;
      }
    </style>
  </defs>
  <path class="st0" d="M98.3,0h-59.1C0,0,0,23.6,0,64.4s0,64.4,39.2,64.4h59.1c28.3,0,55.8-42.5,55.8-64.4S126.5,0,98.3,0ZM98.3,114.5h-59.1c-24,0-24.9-6.7-24.9-50.1s.9-50.1,24.9-50.1h59.1c20.2,0,41.6,36.3,41.6,50.1s-21.3,50.1-41.6,50.1Z"/>
  <path class="st0" d="M96,81c0,5.3-4.2,9.5-9.5,9.5s-9.5-4.2-9.5-9.5,4.3-9.5,9.5-9.5,9.5,4.3,9.5,9.5h0Z"/>
  <path class="st0" d="M62.8,47.8c0,5.2-4.3,9.5-9.5,9.5s-9.5-4.3-9.5-9.5,4.2-9.5,9.5-9.5,9.5,4.2,9.5,9.5h0Z"/>
  <path class="st0" d="M83.9,40.3l-38,38c-2.9,2.8-3,7.4-.2,10.2,2.8,2.9,7.5,2.8,10.2-.2l38-38c6.2-6.7-3.4-16.3-10.1-10.1h0Z"/>
</svg>