<?xml version="1.0" encoding="UTF-8"?>
<svg id="_레이어_1" data-name="레이어_1" xmlns="http://www.w3.org/2000/svg" version="1.1" viewBox="0 0 39.4 43.9">
  <!-- Generator: Adobe Illustrator 29.1.0, SVG Export Plug-In . SVG Version: 2.1.0 Build 142)  -->
  <defs>
    <style>
      .st0 {
        fill: #222;
      }
    </style>
  </defs>
  <path class="st0" d="M6.8,8.4c0-.9.8-1.7,1.7-1.7h18c.9,0,1.7.8,1.7,1.7s-.8,1.7-1.7,1.7H8.4c-.9,0-1.7-.8-1.7-1.7h0ZM10.7,20.3h-2.3c-.9,0-1.7.8-1.7,1.7s.8,1.7,1.7,1.7h2.3c.9,0,1.7-.8,1.7-1.7s-.8-1.7-1.7-1.7h0ZM8.4,16.9h9c.9,0,1.7-.8,1.7-1.7s-.8-1.7-1.7-1.7h-9c-.9,0-1.7.8-1.7,1.7s.8,1.7,1.7,1.7h0ZM39.4,30.9c0,7.1-5.8,12.9-12.9,12.9s-5.2-.8-7.3-2.3H6.2c-3.4,0-6.2-2.8-6.2-6.2V6.2C0,2.8,2.8,0,6.2,0h22.5c3.4,0,6.2,2.8,6.2,6.2v15c2.8,2.4,4.5,5.9,4.5,9.8h0ZM6.2,38.3h9.6c-1.4-2.1-2.3-4.6-2.3-7.3,0-7.1,5.8-12.9,12.9-12.9s3.5.4,5.1,1V6.2c0-1.5-1.3-2.8-2.8-2.8H6.2c-1.5,0-2.8,1.3-2.8,2.8v29.3c0,1.5,1.3,2.8,2.8,2.8h0ZM36,30.9c0-5.3-4.3-9.6-9.6-9.6s-9.6,4.3-9.6,9.6,4.3,9.6,9.6,9.6,9.6-4.3,9.6-9.6h0ZM36,30.9"/>
  <path class="st0" d="M28.2,27.6v1.6s1.6,0,1.6,0c1,0,1.8.8,1.8,1.8,0,.5-.2.9-.5,1.3s-.8.5-1.3.5h-1.6s0,1.6,0,1.6c0,.5-.2.9-.5,1.3s-.8.5-1.3.5c-1,0-1.8-.8-1.8-1.8v-1.6s-1.6,0-1.6,0c-1,0-1.8-.8-1.8-1.8,0-1,.8-1.8,1.8-1.8h1.6s0-1.6,0-1.6c0-1,.8-1.8,1.8-1.8,1,0,1.8.8,1.8,1.8h0Z"/>
</svg>