<?xml version="1.0" encoding="UTF-8"?>
<svg id="_xF91C_迹_x5F_1" xmlns="http://www.w3.org/2000/svg" version="1.1" viewBox="0 0 171.8 171.8">
  <!-- Generator: Adobe Illustrator 29.1.0, SVG Export Plug-In . SVG Version: 2.1.0 Build 142)  -->
  <defs>
    <style>
      .st0 {
        fill: #fff;
      }
    </style>
  </defs>
  <path class="st0" d="M77,99.3c-.7-9.3-1.2-15.8-1.7-19.4l-5.4-35.3c-.4-2.8-.5-5.2-.5-6.9,0-2.9.8-5.7,2.2-8.3,1.5-2.6,3.5-4.6,6.1-6.1,2.6-1.6,5.3-2.3,8.1-2.3s5.5.8,8.1,2.3c2.7,1.5,4.7,3.6,6.2,6.2s2.2,5.4,2.2,8.3-.3,5.2-.9,8.7c-2.9,16.9-4.8,29.7-5.7,38.6-.4,4.4-.8,9.1-1,14.2h0v.4c0,4.8-4,8.8-8.8,8.8s-8.8-4-8.8-8.8v-.4h0ZM85.9,118.5c4.5,0,8.4,1.6,11.5,4.7s4.8,6.9,4.8,11.4-1.6,8.2-4.8,11.4c-3.2,3.1-7,4.7-11.5,4.7s-8.4-1.6-11.5-4.7c-3.2-3.2-4.8-7-4.8-11.4s1.6-8.2,4.8-11.4c3.2-3.1,7-4.7,11.5-4.7Z"/>
  <path class="st0" d="M85.9,171.8C38.5,171.8,0,133.3,0,85.9S38.5,0,85.9,0s85.9,38.5,85.9,85.9-38.5,85.9-85.9,85.9ZM85.9,12.8C45.6,12.8,12.8,45.6,12.8,85.9s32.8,73.1,73.1,73.1,73.1-32.8,73.1-73.1S126.2,12.8,85.9,12.8Z"/>
</svg>