<?xml version="1.0" encoding="UTF-8"?>
<svg id="_레이어_1" data-name="레이어_1" xmlns="http://www.w3.org/2000/svg" version="1.1" viewBox="0 0 346.8 347">
  <!-- Generator: Adobe Illustrator 29.1.0, SVG Export Plug-In . SVG Version: 2.1.0 Build 142)  -->
  <defs>
    <style>
      .st0 {
        fill: #fff;
      }
    </style>
  </defs>
  <path class="st0" d="M266.2,49.5C262,17.5,240.8,0,205.5,0h-64c-35.3,0-56.5,17.5-60.7,49.5C25,61.5,0,99.6,0,171.9v48.5c0,44.7,9.8,76.2,29.9,96.5,20.1,20.3,51.4,30.1,95.6,30.1h96c44.1,0,75.3-9.8,95.4-29.9,20.2-20.3,30-51.9,29.9-96.7v-48.5c0-72-25-110.3-80.6-122.4ZM239.8,174.6c0,10-2.8,17.4-7.6,20.1-5,2.8-13.2,1.2-22-4.1l-21.1-12.8c-4.4-2.6-10-4-15.6-4s-11.3,1.5-16,4.2l-21.1,12.8c-8.8,5.4-17,6.9-22,4.1-4.8-2.8-7.6-10.1-7.6-20.1V62c0-24.8,10-35,34.5-35h64c24.5,0,34.5,10.1,34.5,35v112.6ZM101.4,218.3c14.1,7.9,31.6,6.3,49.4-4.5l21.2-12.8c.5-.3,2.6-.3,3.2,0l21.1,12.8c10,6.2,20.5,9.5,30.2,9.5s13.3-1.7,19.1-5c13.8-7.7,21.4-23.1,21.4-43.6v-97.3c16.8,4.7,28.8,12.7,37.1,24.5,10.8,15.3,15.8,37.5,15.8,69.9v48.5c0,37.3-7.1,61.8-22.2,77.2-15.1,15.3-39.4,22.5-76.3,22.5h-96c-36.9,0-61.1-7.1-76.3-22.5-15.1-15.3-22.2-39.8-22.2-77.2v-48.5c0-56.3,15.1-83.9,53.2-94.5v97.4c0,20.3,7.6,35.7,21.4,43.5Z"/>
</svg>