<?xml version="1.0" encoding="UTF-8"?>
<svg id="_레이어_1" data-name="레이어_1" xmlns="http://www.w3.org/2000/svg" version="1.1" viewBox="0 0 33.45934 31.6506">
  <!-- Generator: Adobe Illustrator 29.2.1, SVG Export Plug-In . SVG Version: 2.1.0 Build 116)  -->
  <path d="M29.84185,13.38468V4.9728c0-2.74204-2.23076-4.9728-4.9728-4.9728H4.97287C2.23076,0,0,2.23076,0,4.9728v21.705c0,2.74204,2.23076,4.9728,4.97287,4.9728h18.08744c5.73733,0,10.39903-4.66177,10.39903-10.39903,0-3.14727-1.40359-5.95437-3.61749-7.86689h0ZM11.75441,2.71069h6.33303v4.07085c0,.24604-.2074.45344-.45336.45344h-5.42623c-.24604,0-.45344-.2074-.45344-.45344V2.71069ZM4.97287,28.93991c-1.24447,0-2.26218-1.01771-2.26218-2.26211V4.9728c0-1.24439,1.01771-2.26211,2.26218-2.26211h4.07085v4.07085c0,1.74361,1.42051,3.16412,3.16412,3.16412h5.42623c1.74354,0,3.16405-1.42051,3.16405-3.16412V2.71069h4.07093c1.24439,0,2.26211,1.01771,2.26211,2.26211v6.70691c-1.25404-.53543-2.6287-.82724-4.07085-.82724-5.73733,0-10.3991,4.66177-10.3991,10.3991,0,3.05314,1.32638,5.78311,3.4173,7.68834H4.97287ZM23.06031,28.93991c-4.23969,0-7.68841-3.44873-7.68841-7.68834s3.44873-7.68841,7.68841-7.68841,7.68834,3.44873,7.68834,7.68841-3.44873,7.68834-7.68834,7.68834h0ZM27.80878,18.69036c.4148.61984.24361,1.46872-.37851,1.88345l-5.42623,3.61749c-.23397.14962-.48957.22433-.75247.22433-.34966,0-.69705-.13019-.95987-.39552l-1.80874-1.80874c-.52814-.52571-.52814-1.39395,0-1.91966.52571-.52814,1.39395-.52814,1.91966,0l1.01771,1.025,4.50501-3.00501c.61984-.41472,1.45908-.24354,1.88345.37866h0ZM27.80878,18.69036" fill="#fff"/>
</svg>