<?xml version="1.0" encoding="UTF-8"?>
<svg id="_레이어_1" data-name="레이어_1" xmlns="http://www.w3.org/2000/svg" version="1.1" viewBox="0 0 30.4 28.9">
  <!-- Generator: Adobe Illustrator 29.2.0, SVG Export Plug-In . SVG Version: 2.1.0 Build 108)  -->
  <defs>
    <style>
      .st0, .st1 {
        fill: #222;
      }

      .st1 {
        fill-rule: evenodd;
      }
    </style>
  </defs>
  <path class="st1" d="M19.6,2.7c-2.9-.6-5.9-.6-8.8,0h-.7c-3.6.9-6.5,3.7-7.4,7.4-.7,2.9-.7,5.9,0,8.8.9,3.6,3.8,6.4,7.4,7.2h.7c2.9.8,5.9.8,8.8.1h.7c3.6-.9,6.5-3.7,7.4-7.4.7-2.9.7-5.9,0-8.8-.9-3.6-3.8-6.4-7.4-7.2h-.7ZM10.3.5c3.2-.7,6.5-.7,9.7,0h.7c4.5,1.1,8,4.6,9.1,9,.8,3.2.8,6.6,0,9.9-1.1,4.4-4.6,7.8-9.1,8.8h-.7c-3.2.9-6.5.9-9.7.1h-.7c-4.5-1.1-8-4.6-9.1-9-.8-3.2-.8-6.6,0-9.9C1.7,5.1,5.2,1.7,9.7.7h.7ZM10.3.5"/>
  <path class="st0" d="M16.2,12.8c-.4-.8-1.5-.8-2,0l-2,3.7-2-7.4c-.2-.6-.8-.9-1.4-.8-.6.2-.9.8-.8,1.4l.8,3h-1.4c-.6,0-1.1.5-1.1,1.1s.5,1.1,1.1,1.1h2.1l1.3,4.8c.3,1,1.6,1.1,2.1.2l2.4-4.3,2.4,4.3c.5.9,1.8.7,2.1-.2l1.3-4.8h2.1c.6,0,1.1-.5,1.1-1.1s-.5-1.1-1.1-1.1h-1.4l.8-3c.2-.6-.2-1.2-.8-1.4-.6-.2-1.2.2-1.4.8l-2,7.4-2-3.7ZM16.2,12.8"/>
</svg>