<?xml version="1.0" encoding="UTF-8"?>
<svg id="_레이어_1" data-name="레이어_1" xmlns="http://www.w3.org/2000/svg" version="1.1" viewBox="0 0 13.12399 13.12399">
  <!-- Generator: Adobe Illustrator 29.2.1, SVG Export Plug-In . SVG Version: 2.1.0 Build 116)  -->
  <path d="M11.06201,0H2.06201C.92499,0,0,.92499,0,2.06198v9.00003c0,1.13699.92499,2.06198,2.06201,2.06198h9c1.13699,0,2.06198-.92499,2.06198-2.06198V2.06198c0-1.13699-.92499-2.06198-2.06198-2.06198h0ZM4.87399,1.12399h3.37601v3.18802c0,.10199-.086.18799-.18799.18799h-3c-.10202,0-.18802-.086-.18802-.18799V1.12399ZM12,11.06201c0,.51599-.422.93799-.93799.93799H2.06201c-.51602,0-.93802-.422-.93802-.93799V2.06198c0-.51599.422-.93799.93802-.93799h1.68799v3.18802c0,.72296.58902,1.31198,1.31201,1.31198h3c.72296,0,1.31198-.58902,1.31198-1.31198V1.12399h1.68802c.51599,0,.93799.422.93799.93799v9.00003ZM5.62399,9.56201c0,.30899-.25299.56198-.56198.56198h-1.5c-.30902,0-.56201-.25299-.56201-.56198,0-.30902.25299-.56201.56201-.56201h1.5c.30899,0,.56198.25299.56198.56201h0ZM5.62399,9.56201" fill="#fff"/>
</svg>