<?xml version="1.0" encoding="UTF-8"?>
<svg id="_레이어_1" data-name="레이어_1" xmlns="http://www.w3.org/2000/svg" version="1.1" viewBox="0 0 358.5 358.5">
  <!-- Generator: Adobe Illustrator 29.1.0, SVG Export Plug-In . SVG Version: 2.1.0 Build 142)  -->
  <defs>
    <style>
      .st0 {
        fill: #fff;
      }
    </style>
  </defs>
  <path class="st0" d="M168,307c-76.6,0-139-62.4-139-139S91.4,29,168,29s139,62.4,139,139-1.5,23.3-4.3,34.2c9.6,3.1,18.5,7.9,26.2,14.1,4.6-15.3,7.1-31.6,7.1-48.4C336,75.4,260.6,0,168,0S0,75.4,0,168s75.4,168,168,168,33.1-2.5,48.4-7.1c-6.2-7.7-11.1-16.5-14.1-26.2-11,2.8-22.4,4.3-34.2,4.3Z"/>
  <path class="st0" d="M226.3,201.5l22.3-12.2c7.8-4.2,12.7-12.4,12.7-21.3s-4.8-17.1-12.7-21.3l-22.3-12.2c-10.5-5.7-19-14.2-24.8-24.7l-12.2-22.3c-4.3-7.8-12.4-12.6-21.3-12.6s-17,4.8-21.3,12.6l-12.2,22.3c-5.7,10.4-14.3,19-24.8,24.7l-22.3,12.2c-7.8,4.2-12.7,12.4-12.7,21.3s4.8,17.1,12.7,21.3l22.3,12.2c10.5,5.7,19,14.2,24.8,24.7l12.2,22.3c4.3,7.8,12.4,12.6,21.3,12.6s17-4.8,21.3-12.6l12.2-22.3c5.7-10.4,14.3-19,24.8-24.7ZM174.3,211.2l-6.3,11.4-6.3-11.4c-8.6-15.7-21.5-28.5-37.1-37l-11.3-6.2,11.3-6.2c15.7-8.5,28.5-21.3,37.1-37l6.3-11.4,6.3,11.4c8.6,15.7,21.4,28.5,37.1,37l11.3,6.2-11.3,6.2c-15.7,8.5-28.5,21.3-37.1,37Z"/>
  <path class="st0" d="M258.8,288.9c-5.7,0-10.5-4.7-10.4-10.4,0-5.7,4.7-10.5,10.4-10.4h39.4c5.7,0,10.5,4.7,10.4,10.4,0,2.9-1.2,5.5-3.1,7.4s-4.5,3.1-7.4,3.1h-39.4ZM337.6,278.5,358.5,278.5c0,44.2-35.8,80-80,80s-80-35.8-80-80,35.8-80,80-80,80,35.8,80,80ZM337.6,278.5c0-32.6-26.5-59.1-59.1-59.1s-59.1,26.5-59.1,59.1,26.5,59.1,59.1,59.1,59.1-26.5,59.1-59.1h0Z"/>
</svg>