<?xml version="1.0" encoding="UTF-8"?>
<svg id="_레이어_1" data-name="레이어_1" xmlns="http://www.w3.org/2000/svg" version="1.1" viewBox="0 0 51.14522 51.13383">
  <!-- Generator: Adobe Illustrator 29.7.1, SVG Export Plug-In . SVG Version: 2.1.1 Build 8)  -->
  <path d="M43.59888,20.42884c-.19922-2.11298-.72192-4.12231-2.57361-5.28931l-.55493-2.65338h.63123c.97485,0,1.78369-.80878,1.78369-1.78369,0-.97498-.80884-1.78375-1.78369-1.78375h-1.37732l-.5719-2.7348C38.53394,3.13953,37.13062,0,31.63648,0h-12.12964C14.03712,0,12.63379,3.11573,11.99158,6.1839l-.57214,2.7348h-1.37769c-.97485,0-1.78381.80878-1.78381,1.78375,0,.97491.80896,1.78369,1.78381,1.78369h.63135l-.55151,2.63654c-1.87451,1.16425-2.40161,3.18274-2.60156,5.30615l-.97559,10.48871c-.14221,1.45044.35718,2.90155,1.33203,3.97162.99878,1.09387,2.44983,1.73621,3.94849,1.73621h3.23413c3.1394,0,3.78174-1.95056,4.13818-2.99683l.35718-1.04633c.38037-1.11768.38037-1.14148,1.59326-1.14148h8.82349q1.21289,0,1.59326,1.14148l.35718,1.04633c.35645,1.04626.99878,2.99683,4.13818,2.99683h3.23413c1.49866,0,2.9491-.61853,3.94788-1.7124.97546-1.07013,1.47473-2.52118,1.33191-3.97162l-.97485-10.51251ZM13.96583,14.10328l1.47412-7.15875c.47559-2.28314,1.04639-3.35327,4.04297-3.35327h12.12988c3.02039,0,3.56738,1.07013,4.04297,3.35327l1.49854,7.15875h-.57764c-.0061,0-.01135-.00061-.01758-.00061H14.55982c-.00623,0-.01147.00061-.01758.00061h-.57642ZM40.60218,32.48707c-.33264.38025-.80872.5708-1.30823.5708h-3.23413c-.30945,0-.5-.02393-.54761-.02393-.0708-.09515-.14221-.33264-.1897-.54688l-.35718-1.07025c-.61841-1.85504-1.49805-3.54352-4.94653-3.54352h-8.82349c-3.78174,0-4.51917,2.25928-4.97095,3.59125l-.35645,1.04633c-.07153.19043-.14282.47552-.11902.47552-.0238,0-.16663.07147-.64221.07147h-3.23474c-.49939,0-.97498-.21375-1.30774-.5708-.33325-.33282-.47607-.78516-.42847-1.23688l.97559-10.51184c.17358-1.9353.27563-2.91333,2.72485-3.06757h23.4939c2.44885.15424,2.55103,1.13226,2.72522,3.06757l.97473,10.51184c.02393.45172-.11841.90405-.42786,1.23688Z" style="fill: #fff;"/>
  <path d="M20.38697,21.00068h-5.18457c-.97473,0-1.78369.80896-1.78369,1.78375,0,.97498.80896,1.78375,1.78369,1.78375h5.18457c.99878,0,1.78381-.80878,1.78381-1.78375,0-.97479-.80872-1.78375-1.78381-1.78375Z" style="fill: #fff;"/>
  <path d="M35.917,21.00068h-5.18457c-.97498,0-1.78369.80896-1.78369,1.78375,0,.97498.80872,1.78375,1.78369,1.78375h5.18457c.97534,0,1.78369-.80878,1.78369-1.78375,0-.97479-.80835-1.78375-1.78369-1.78375Z" style="fill: #fff;"/>
  <path d="M25.57166,35.67475c-.97498,0-1.78381.80878-1.78381,1.78375v2.3783c0,.97498.80884,1.78375,1.78381,1.78375s1.78369-.80878,1.78369-1.78375v-2.3783c0-.97498-.80872-1.78375-1.78369-1.78375Z" style="fill: #fff;"/>
  <path d="M25.57166,45.18805c-.97498,0-1.78381.80878-1.78381,1.78375v2.3783c0,.97498.80884,1.78375,1.78381,1.78375s1.78369-.80878,1.78369-1.78375v-2.3783c0-.97498-.80872-1.78375-1.78369-1.78375Z" style="fill: #fff;"/>
  <path d="M4.59534,38.10065c-.97559-.23737-1.92664.35718-2.16467,1.30823L.05225,48.92212c-.2373.95166.35718,1.92664,1.30835,2.16412.14282.0238.28564.04761.42786.04761.80872,0,1.52234-.54706,1.73621-1.35522l2.3783-9.51324c.23792-.95178-.35657-1.92664-1.30762-2.16473Z" style="fill: #fff;"/>
  <path d="M51.09156,48.92096l-2.3783-9.51331c-.23816-.97479-1.21301-1.54559-2.16418-1.30762-.97546.23755-1.54614,1.21313-1.30811,2.16412l2.3783,9.51331c.21375.80878.92725,1.35577,1.73621,1.35577.14282,0,.28503-.0238.42798-.04755.97473-.23816,1.54553-1.21295,1.30811-2.16473Z" style="fill: #fff;"/>
</svg>