<?xml version="1.0" encoding="UTF-8"?>
<svg id="_레이어_1" data-name="레이어_1" xmlns="http://www.w3.org/2000/svg" version="1.1" viewBox="0 0 273.46799 337.97213">
  <!-- Generator: Adobe Illustrator 29.3.0, SVG Export Plug-In . SVG Version: 2.1.0 Build 146)  -->
  <path d="M266.7705,115.07876c-4.92999-7.203-7.254-15.879-6.586-24.582,1.18799-15.77301-7.418-30.65601-21.67599-37.5-7.871-3.78101-14.21899-10.129-18-18-6.84-14.258-21.73003-22.85901-37.50002-21.668-8.707.66-17.37901-1.664-24.59001-6.59399-13.06599-8.93301-30.27699-8.93301-43.34299,0-7.207,4.92999-15.87901,7.254-24.58601,6.59399-15.78198-1.203-30.68398,7.39899-37.53499,21.668-3.77802,7.875-10.129,14.22299-18,18-14.27,6.85199-22.87199,21.754-21.668,37.535.65999,8.707-1.661,17.379-6.586,24.586-8.93399,13.067-8.93399,30.278,0,43.34399,4.90599,7.19901,7.215,15.85101,6.554,24.53902-1.20302,15.78099,7.403,30.68399,21.668,37.53899,7.875,3.77299,14.22299,10.125,18,18,6.83598,14.285,21.743,22.91,37.539,21.711,8.70399-.66,17.37498,1.664,24.58199,6.59399,13.067,8.92902,30.27802,8.92902,43.34402,0,7.211-4.92999,15.883-7.254,24.59399-6.59399,15.76898,1.19501,30.65598-7.40601,37.5-21.66801,3.77701-7.87099,10.12897-14.21898,18-17.99998,14.297-6.84399,22.922-21.77299,21.703-37.58199-.668-8.70702,1.65601-17.37901,6.586-24.58601,8.92999-13.062,8.92999-30.269,0-43.336h0ZM266.7705,115.07876" style="fill: #f9973e;"/>
  <path d="M232.62246,49.44976c-5.17996-3.746-9.34396-8.72601-12.11395-14.492-6.84-14.258-21.73003-22.85901-37.50002-21.668-8.707.66-17.37901-1.664-24.59001-6.59-13.06599-8.93301-30.27699-8.93301-43.34299,0-7.207,4.92599-15.87901,7.25-24.58601,6.59-15.78198-1.19901-30.68398,7.40201-37.53499,21.668-3.77802,7.875-10.129,14.22699-18,18-14.27,6.85199-22.87199,21.758-21.668,37.539.65999,8.703-1.661,17.375-6.586,24.582-8.93399,13.06999-8.93399,30.27699,0,43.34399,4.91399,7.211,7.22598,15.879,6.554,24.57802-.16,2.15999-.14001,4.33199.05901,6.48799,7.254.75,14.543,1.129,21.83598,1.133,91.617.008,169.42998-59.05501,197.47298-141.172h0ZM232.62246,49.44976" style="fill: #fca84c;"/>
  <path d="M209.71551,125.10278c-7.03503,8.73398-14.30804,17.78098-21.65202,26.99998-1.453,1.82399-2.24599,4.086-2.24998,6.418,0,11.44899-.25002,22.894-.75,34.328-.33601,6.99599-7.422,12.57799-13.66402,10.558-10.23799-3.293-20.69899-6.953-31.336-10.836-2.129-.78101-4.46898-.78101-6.59799,0-10.636,3.883-21.097,7.543-31.33601,10.836-6.23799,2.01999-13.32799-3.56201-13.66399-10.558-.5-11.43001-.75-22.875-.75-34.33601-.00801-2.32799-.79999-4.59-2.25-6.40999-7.343-9.21901-14.617-18.26601-21.65201-26.99998-4.33598-5.34003-1.32799-13.22302,5.625-15.43802,11.31599-3.547,22.605-7.16,33.81599-10.715,2.26201-.72601,4.22302-2.17599,5.58202-4.125,6.75-9.75,13.49998-19.586,19.91798-29.34702,1.71902-2.80099,4.76601-4.504,8.04703-4.504,3.28497,0,6.33199,1.703,8.04698,4.504,6.44499,9.75,13.149,19.582,19.92201,29.33902,1.35199,1.957,3.31198,3.41098,5.57799,4.133,11.21501,3.55499,22.50002,7.168,33.81999,10.715,6.88303,2.215,9.88303,10.09799,5.54703,15.43802h0ZM209.71551,125.10278" style="fill: #fff;"/>
  <path d="M115.04348,266.80575c-7.211-4.914-15.88199-7.22699-24.58199-6.55499-15.785,1.207-30.69101-7.39801-37.539-21.66801-3.43301-7.16798-9.004-13.09398-15.94501-16.96498-15.383,31.957-23.10603,40.33256-33.30901,70.75856-2.66003,8.25,5.07098,17.92599,12.52798,14.85199,11.722-4.63699,24.32001-9.81699,37.28101-15.164,1.55499-.64899,3.308-.64499,4.85899.01102,1.55099.65698,2.774,1.91498,3.39101,3.48099,5.168,13.035,10.183,25.69501,15,37.35199,3,7.5,15.29298,6.34302,19.39398-1.32098,13.29703-25.621,18.63705-25.91057,31.51605-59.18056-4.5-1.09399-8.765-2.98801-12.59402-5.60101h0ZM115.04348,266.80575" style="fill: #dd4247;"/>
  <path d="M261.77373,287.9034c-10.203-30.43301-9.91323-34.33667-25.30422-66.29365-6.94101,3.86401-12.51501,9.778-15.961,16.938-6.84,14.258-21.72604,22.85901-37.50002,21.664-8.707-.66-17.37901,1.668-24.59001,6.59399-3.81999,2.60901-8.07799,4.50702-12.56998,5.60101,12.84798,33.26999,10.18322,29.08664,23.45623,54.70764,4.10201,7.664,16.418,8.81299,19.39496,1.32098,4.81604-11.65698,9.832-24.31699,15-37.35199.61703-1.56601,1.83905-2.82401,3.39005-3.48099,1.55096-.65601,3.30496-.66,4.85995-.01102,12.96005,5.34702,25.55801,10.5,37.28101,15.164,7.47205,3.07401,15.203-6.578,12.54303-14.85199h0ZM261.77373,287.9034" style="fill: #dd4247;"/>
  <metadata>
    <sfw xmlns="http://ns.adobe.com/SaveForWeb/1.0/">
      <slices/>
      <sliceSourceBounds x="168.27" y="250.03" width="273.47" height="337.97" bottomLeftOrigin="true"/>
    </sfw>
  </metadata>
</svg>