<?xml version="1.0" encoding="UTF-8"?>
<svg id="Layer_1" xmlns="http://www.w3.org/2000/svg" version="1.1" viewBox="0 0 343 343.1">
  <!-- Generator: Adobe Illustrator 29.1.0, SVG Export Plug-In . SVG Version: 2.1.0 Build 142)  -->
  <defs>
    <style>
      .st0 {
        fill: #2b64af;
      }
    </style>
  </defs>
  <path class="st0" d="M327.7,254.4l-82.9-82.9,82.9-82.9c20.2-20.2,20.3-53.1,0-73.4-20.3-20.3-53.1-20.3-73.4,0l-82.9,82.9L88.6,15.3c-20.2-20.2-53.1-20.3-73.4,0-20.3,20.3-20.3,53.1,0,73.4l82.9,82.9L15.2,254.4c-20.2,20.2-20.3,53.1,0,73.4,20.3,20.3,53.1,20.3,73.4,0l82.9-82.9,82.9,82.9c20.2,20.2,53.1,20.3,73.4,0,20.3-20.3,20.3-53.1,0-73.4h0Z"/>
</svg>