<?xml version="1.0" encoding="UTF-8"?>
<svg id="Isolation_Mode" xmlns="http://www.w3.org/2000/svg" version="1.1" viewBox="0 0 288 332">
  <!-- Generator: Adobe Illustrator 29.1.0, SVG Export Plug-In . SVG Version: 2.1.0 Build 142)  -->
  <defs>
    <style>
      .st0 {
        fill: #fff;
      }
    </style>
  </defs>
  <path class="st0" d="M126,0C83,0,48,35,48,78s35,78,78,78,78-35,78-78S169,0,126,0ZM126,128c-27.6,0-50-22.4-50-50s22.4-50,50-50,50,22.4,50,50-22.4,50-50,50Z"/>
  <path class="st0" d="M78,204h86.4c7.7,0,14-6.3,14-14s-6.3-14-14-14h-86.4C35,176,0,211,0,254s35,78,78,78h86.4c7.7,0,14-6.3,14-14s-6.3-14-14-14h-86.4c-27.6,0-50-22.4-50-50s22.4-50,50-50Z"/>
  <path class="st0" d="M267.3,203.9c-16.5-11.3-38.2-11.3-54.7,0-23.7,16.3-27.8,49.8-8.6,71.4l31.1,35h0c2.6,3,7.1,3,9.7,0l31.1-35c19.2-21.6,15.1-55-8.6-71.4ZM239.9,269.4c-14.5,0-26.3-11.8-26.3-26.3s11.8-26.3,26.3-26.3,26.3,11.8,26.3,26.3-11.8,26.3-26.3,26.3Z"/>
</svg>