<?xml version="1.0" encoding="UTF-8"?>
<svg id="_레이어_1" data-name="레이어_1" xmlns="http://www.w3.org/2000/svg" version="1.1" viewBox="0 0 320 320">
  <!-- Generator: Adobe Illustrator 29.1.0, SVG Export Plug-In . SVG Version: 2.1.0 Build 142)  -->
  <defs>
    <style>
      .st0 {
        fill: #43baec;
        fill-rule: evenodd;
      }
    </style>
  </defs>
  <path class="st0" d="M160,320C71.6,320,0,248.4,0,160S71.6,0,160,0s160,71.6,160,160-71.6,160-160,160h0ZM160,32c-70.7,0-128,57.3-128,128s15.4,69.7,40,93c13-26.6,40.3-45,72-45h40c29.5,0,54.8,17.7,65.9,43.1,23.5-23.2,38.1-55.4,38.1-91.1,0-70.7-57.3-128-128-128h0ZM223.1,271.4c-3.9-18-19.9-31.4-39.1-31.4h-40c-21,0-38.9,13.5-45.4,32.3,18.2,10,39.1,15.7,61.4,15.7s44.5-6,63.1-16.6h0ZM160,192c-35.3,0-64-28.7-64-64s28.7-64,64-64,64,28.7,64,64-28.7,64-64,64h0ZM160,96c-17.7,0-32,14.3-32,32s14.3,32,32,32,32-14.3,32-32-14.3-32-32-32h0ZM160,96"/>
</svg>