<?xml version="1.0" encoding="UTF-8"?>
<svg id="_레이어_1" data-name="레이어_1" xmlns="http://www.w3.org/2000/svg" version="1.1" viewBox="0 0 281.89613 322.55441">
  <!-- Generator: Adobe Illustrator 29.3.0, SVG Export Plug-In . SVG Version: 2.1.0 Build 146)  -->
  <path d="M266.28102,277.49542c-1.082,1.85999-3.121,3.05899-5.28101,3.05899h-37.5l-10.73801,37.621c-.70703,2.578-3.07098,4.35901-5.76199,4.379-2.16,0-4.19901-1.14099-5.21901-3.05899l-43.14-77.703c-1.77399-2.98001-.375-7.008,2.69899-8.39801l58.14003-26.76196c2.758-1.25803,6-.29703,7.62198,2.28094l39,62.46103c1.13602,1.85999,1.19901,4.19998.17902,6.121h0ZM266.28102,277.49542" style="fill: #009dd9;"/>
  <path d="M123.84,236.99542c.539,1.55899.35902,3.297-.481,4.797l-43.14,77.703c-2.32399,4.625-9.79298,3.68799-10.98099-1.32001l-10.73801-37.621H21c-4.59.121-7.63701-5.336-5.09801-9.17999l39-62.46103c1.61801-2.57797,4.86-3.53897,7.61801-2.28094l58.14,26.76196c1.5.71899,2.64099,1.98001,3.17999,3.60101h0ZM123.84,236.99542" style="fill: #009dd9;"/>
  <path d="M271.50002,164.76199c-5.76199,5.218-7.98004,13.5-5.578,20.93701,2.69901,8.582,1.67999,18.00002-2.82001,25.80099-4.5,7.80101-12.12198,13.37901-20.94199,15.30099-7.67999,1.67902-13.67999,7.67902-15.35901,15.35901-3.53101,18.047-23.71901,29.64499-41.10201,23.76199-7.5-2.40201-15.71901-.18399-20.937,5.578-6.121,6.66-14.76201,10.5-23.76199,10.5s-17.64102-3.84-23.76201-10.5c-5.218-5.76199-13.49998-7.98001-20.937-5.578-8.58202,2.69901-18,1.67999-25.80099-2.82001-7.80101-4.5-13.37901-12.12198-15.30101-20.94199-1.679-7.67999-7.679-13.67999-15.35899-15.35901-18.04701-3.53099-29.64502-23.71899-23.75801-41.10199,2.39801-7.43701.17999-15.71901-5.582-20.93701-6.65999-6.12099-10.5-14.76199-10.5-23.76199s3.84001-17.64101,10.5-23.76199c5.76199-5.218,7.98001-13.5,5.57802-20.93701-2.69901-8.582-1.68001-18,2.81999-25.80099s12.12199-13.379,20.942-15.30099c7.67999-1.67902,13.67999-7.67902,15.35899-15.35901,3.53101-18.047,23.71899-29.64499,41.10201-23.758,7.5,2.39801,15.71899.17999,20.937-5.582,6.12099-6.66,14.76201-10.5,23.76201-10.5s17.64099,3.84,23.76199,10.5c5.27299,5.78101,13.601,7.98801,20.937,5.578,17.37102-5.867,37.58202,5.69901,41.10201,23.76199,1.67902,7.67999,7.67902,13.67999,15.35901,15.35901,8.82001,1.922,16.44199,7.5,20.94199,15.30099s5.51901,17.21899,2.82001,25.80099c-2.40204,7.43701-.18399,15.71901,5.578,20.93701,13.85199,12.18399,13.87097,35.34,0,47.52399h0ZM271.50002,164.76199" style="fill: #ffb133;"/>
  <path d="M216.00002,192c-.79703,31.65599-47.207,31.64799-48.00002,0,.79701-31.65601,47.21098-31.64799,48.00002,0h0ZM216.00002,192" style="fill: #fff;"/>
  <path d="M200.76201,106.73801l-94.02399,94.024c-17.28102,16.20697-41.85902-8.17601-25.49602-25.50401-.00398.004,94.01999-94.01999,94.01999-94.01999,17.3-16.285,41.851,8.246,25.50002,25.5h0ZM200.76201,106.73801" style="fill: #fff;"/>
  <path d="M90.00002,114c-31.65602-.797-31.64801-47.211,0-48,31.65601.797,31.64799,47.207,0,48h0ZM90.00002,114" style="fill: #fff;"/>
  <metadata>
    <sfw xmlns="http://ns.adobe.com/SaveForWeb/1.0/">
      <slices/>
      <sliceSourceBounds x="156" y="271.45" width="281.9" height="322.55" bottomLeftOrigin="true"/>
    </sfw>
  </metadata>
</svg>