<?xml version="1.0" encoding="UTF-8"?>
<svg id="_레이어_1" data-name="레이어_1" xmlns="http://www.w3.org/2000/svg" version="1.1" viewBox="0 0 347 342.3">
  <!-- Generator: Adobe Illustrator 29.1.0, SVG Export Plug-In . SVG Version: 2.1.0 Build 142)  -->
  <defs>
    <style>
      .st0 {
        fill: #fff;
        stroke: #fff;
        stroke-miterlimit: 10;
        stroke-width: 3px;
      }
    </style>
  </defs>
  <g>
    <path class="st0" d="M63.8,178c-19.8,0-37.9-9.1-49.8-24.9C2.2,137.4-1.5,117.5,4,98.5l15.5-53.7C26.9,19.3,50.6,1.5,77.2,1.5h66.1l-17.8,123.2c-4.4,30.4-30.9,53.3-61.6,53.3h0ZM77.2,25.5c-15.9,0-30.2,10.7-34.6,26l-15.5,53.7c-3.4,11.7-1.1,23.9,6.2,33.6,7.3,9.7,18.4,15.3,30.6,15.3,18.9,0,35.2-14.1,37.9-32.8l13.9-95.8h-38.3ZM77.2,25.5"/>
    <path class="st0" d="M173.5,178c-20.1,0-39.2-8.7-52.4-24-13.2-15.2-19.1-35.4-16.2-55.3L119,1.5h109l14.1,97.3c2.9,19.9-3,40.1-16.2,55.3-13.2,15.2-32.3,24-52.4,24h0ZM139.8,25.5l-11.1,76.7c-1.9,13,2,26.2,10.6,36.2,8.6,9.9,21.1,15.7,34.3,15.7s25.7-5.7,34.3-15.7c8.6-9.9,12.5-23.1,10.6-36.2l-11.1-76.7h-67.5,0ZM139.8,25.5"/>
    <path class="st0" d="M283.2,178c-30.7,0-57.2-22.9-61.6-53.3L203.8,1.5h66.1c26.5,0,50.2,17.8,57.6,43.3l15.6,53.7c5.5,19,1.8,38.9-10,54.7-11.9,15.8-30,24.9-49.8,24.9h0ZM231.5,25.5l13.9,95.8c2.7,18.7,19,32.8,37.9,32.8s23.3-5.6,30.6-15.3c7.3-9.7,9.5-22,6.2-33.6l-15.5-53.7c-4.4-15.3-18.7-26-34.6-26h-38.3ZM231.5,25.5"/>
  </g>
  <path class="st0" d="M233.6,340.8h-120.1c-27.4,0-53.5-11.7-71.7-32.2-18.2-20.5-26.8-47.8-23.6-75l11.1-74.3,23.8,2.8-11.1,74.3c-2.4,20.4,4.1,40.9,17.7,56.3,13.6,15.3,33.2,24.2,53.8,24.2h120.1c20.5,0,40.2-8.8,53.8-24.2,13.7-15.3,20.1-35.8,17.7-56.3l-11.1-74.3,23.8-2.8,11.1,74.3c3.2,27.2-5.4,54.5-23.6,75-18.2,20.5-44.4,32.2-71.8,32.2h0ZM233.6,340.8"/>
</svg>