<?xml version="1.0" encoding="UTF-8"?>
<svg id="_레이어_1" data-name="레이어_1" xmlns="http://www.w3.org/2000/svg" version="1.1" viewBox="0 0 384 384.00032">
  <!-- Generator: Adobe Illustrator 29.3.0, SVG Export Plug-In . SVG Version: 2.1.0 Build 146)  -->
  <g>
    <path d="M192,.00028C85.965.00028,0,85.93428,0,192.0003s85.965,192.00002,192,192.00002,192-85.98804,192-192.00002S298.035.00028,192,.00028h0ZM192,.00028" style="fill: #ffb133;"/>
    <path d="M.17999,184.00428v15.94501c1.26099,31.65999,10.38199,62.504,26.535,89.76199,20.547,6.539,41.97998,9.85901,63.539,9.84,115.42599,0,208.996-93.571,208.996-208.996.01999-21.78198-3.367-43.43399-10.043-64.168C259.75,9.05528,226.17999-.05871,192,.00028,88.63698.00028,4.35898,81.66029.17999,184.00428H.17999ZM.17999,184.00428" style="fill: #f8c358;"/>
  </g>
  <g>
    <path d="M144.68908,135.21803c0-13.80462-11.19-24.99571-24.99571-24.99571-13.80016,0-24.99125,11.19108-24.99125,24.99571,0,13.80124,11.19108,24.99125,24.99125,24.99125,13.8057,0,24.99571-11.19,24.99571-24.99125Z" style="fill: #512a12;"/>
    <path d="M269.65862,110.22233c-13.8057,0-24.99571,11.19108-24.99571,24.99571,0,13.80124,11.19,24.99125,24.99571,24.99125,13.80016,0,24.99118-11.19,24.99118-24.99125,0-13.80462-11.19102-24.99571-24.99118-24.99571Z" style="fill: #512a12;"/>
    <path d="M194.67603,285.17876c-34.4529,0-62.48254-28.02965-62.48254-62.48254h-24.99571c0,48.23206,39.24173,87.47717,87.47825,87.47717s87.47818-39.24511,87.47818-87.47717h-24.99564c0,34.4529-28.02971,62.48254-62.48254,62.48254Z" style="fill: #512a12;"/>
  </g>
  <metadata>
    <sfw xmlns="http://ns.adobe.com/SaveForWeb/1.0/">
      <slices/>
      <sliceSourceBounds x="114" y="204" width="384" height="384" bottomLeftOrigin="true"/>
    </sfw>
  </metadata>
</svg>