<?xml version="1.0" encoding="UTF-8"?>
<svg id="_레이어_1" data-name="레이어_1" xmlns="http://www.w3.org/2000/svg" version="1.1" viewBox="0 0 383.80957 383.80167">
  <!-- Generator: Adobe Illustrator 29.3.0, SVG Export Plug-In . SVG Version: 2.1.0 Build 146)  -->
  <g>
    <path d="M371.18375,122.24083c-6.35901-9.043-14.48404-19.67999-25.05899-31.918-14.91,15.375-38.48404,15.43301-53.30002.65601-14.77798-14.81601-14.715-38.38998.66-53.30099-12.25003-10.57401-22.883-18.69901-31.922-25.05801-25.30499-17.543-63.61301-16.57401-88.48401,1.52301-15.196,10.875-60.05501,50.55099-83.985,74.94901-24.39799,23.92999-64.07399,68.797-74.94899,83.98499-18.09802,24.871-19.07001,63.17201-1.52301,88.48401,6.36298,9.043,14.48401,19.68002,25.05801,31.918,14.90999-15.375,38.48499-15.43301,53.30498-.65601,14.77301,14.81601,14.71899,38.39801-.66,53.30099,12.23801,10.57401,22.879,18.69901,31.91801,25.05801,25.30399,17.543,63.617,16.57401,88.48399-1.52301,15.19499-10.875,60.05501-50.55099,83.98402-74.94901,24.39896-23.92999,64.07495-68.797,74.94995-83.98497,18.10504-24.87102,19.07404-63.17203,1.52304-88.48402h0ZM371.18375,122.24083" style="fill: #4193d2;"/>
    <path d="M303.52372,176.50284c22.867-22.86801,39.25003-49.74699,49.21103-78.368-2.09399-2.52701-4.28503-5.129-6.60199-7.81201-14.91,15.375-38.48404,15.43301-53.30402.65601-14.77399-14.81601-14.71503-38.38998.65997-53.30099-12.246-10.57401-22.87897-18.69901-31.91797-25.05801-25.30499-17.543-63.617-16.57401-88.48502,1.52301-15.19499,10.875-60.05399,50.55099-83.98399,74.94901-24.39799,23.92999-64.07399,68.797-74.94899,83.98499-1.05099,1.44501-2.039,2.93701-2.97702,4.46901,81.11401,79.964,211.68002,79.62801,292.35599-1.05101l-.008.00801ZM303.52372,176.50284" style="fill: #48a4df;"/>
  </g>
  <path d="M123.97674,158.46683c-10.703-.39799-19.51599,3.15701-26.625,10.72301-7.07399,7.52299-10.492,17.035-10.47299,28.35899.032,11.317,3.72299,21.043,11.26601,29.12201,7.62898,8.168,16.78499,12.26901,27.47299,12.429,10.67899.15601,19.86699-3.57001,27.47198-11.101,7.688-7.69601,11.46901-16.957,11.30901-27.87901-.14799-10.918-4.30498-20.55499-12.44099-28.92599-7.88301-8.10899-17.22701-12.375-27.96901-12.72701h-.01199ZM136.14074,210.47884c-2.91,2.961-6.308,4.274-10.14,4.05901-3.87199-.25801-7.44199-2.10201-10.786-5.64101-3.14001-3.32401-4.746-7.019-4.882-11.05501-.17999-4.07399,1.132-7.54599,3.86301-10.39,2.73-2.84799,5.992-4.14499,9.84-3.85199,3.847.289,7.355,2.08202,10.50699,5.36699,3.278,3.42201,5.07101,7.149,5.356,11.192.285,4.043-.97701,7.476-3.76599,10.32001h.008ZM136.14074,210.47884" style="fill: #fff;"/>
  <path d="M186.71073,110.93184c-2.15999-9.992-14.63599-14.34-21.38197-7.59702l-.11803.117c-2.769,2.76901-3.85498,6.746-2.972,10.82401,11.02701,50.34801,21.19501,101.813,32.19102,150.31601,1.5,6.60599,8.297,11.11398,15.17998,10.16098,6.88701-.95398,11.20702-6.98099,9.65202-13.59799-11.25803-48.61299-21.54703-100.043-32.55801-150.207l.00699-.01599ZM186.71073,110.93184" style="fill: #fff;"/>
  <path d="M298.11771,186.04883c-.246-10.96399-4.36395-20.67499-12.539-29.04599-7.922-8.106-17.40295-12.28601-28.49295-12.54001-11.05402-.29199-20.37103,3.36-27.82002,10.817-7.44501,7.44501-11.02299,16.769-10.797,27.84001.215,11.06999,4.403,20.58598,12.53902,28.59698,8.21898,8.09801,17.87097,12.29701,28.785,12.653,10.918.35101,20.08597-3.114,27.48898-10.547,7.51501-7.55099,11.08997-16.80899,10.84302-27.76598l-.00705-.00803ZM269.96876,196.08484c-2.90204,2.918-6.34399,4.179-10.26505,3.929-3.96896-.289-7.67996-2.15201-11.21498-5.668-3.30498-3.3-5.047-6.953-5.24998-10.929-.24602-4.02,1.08199-7.43001,3.894-10.25,2.76598-2.778,6.188-4.02,10.149-3.817,3.96497.285,7.56601,2.067,10.80402,5.34,3.375,3.40199,5.22299,7.133,5.55099,11.16.332,4.028-.89001,7.43799-3.67599,10.235h.008ZM269.96876,196.08484" style="fill: #fff;"/>
  <metadata>
    <sfw xmlns="http://ns.adobe.com/SaveForWeb/1.0/">
      <slices/>
      <sliceSourceBounds x="114.19" y="204.1" width="383.81" height="383.8" bottomLeftOrigin="true"/>
    </sfw>
  </metadata>
</svg>