<?xml version="1.0" encoding="UTF-8"?>
<svg id="_레이어_1" xmlns="http://www.w3.org/2000/svg" version="1.1" viewBox="0 0 356.6 283.4">
  <!-- Generator: Adobe Illustrator 29.1.0, SVG Export Plug-In . SVG Version: 2.1.0 Build 142)  -->
  <defs>
    <style>
      .st0 {
        fill: #222;
      }
    </style>
  </defs>
  <path class="st0" d="M86.9,173.7h36.6c7.6,0,13.7-6.1,13.7-13.7s-6.1-13.7-13.7-13.7h-36.6c-7.6,0-13.7,6.1-13.7,13.7s6.1,13.7,13.7,13.7Z"/>
  <path class="st0" d="M288,0H68.6C30.7,0,0,30.7,0,68.6h0v146.3c0,37.8,30.7,68.5,68.6,68.6h219.4c37.9,0,68.5-30.7,68.6-68.6V68.6h0c0-37.9-30.7-68.6-68.6-68.6ZM288,27.4h0c22.2,0,40.3,17.6,41.1,39.7v6.1H27.4v-6.1c.8-22,18.9-39.6,41.1-39.7h219.5ZM329.1,214.9c0,22.7-18.4,41.1-41.1,41.1H68.6c-22.7,0-41.1-18.4-41.1-41.1v-114.3h301.7v114.3h-.1Z"/>
</svg>