<?xml version="1.0" encoding="UTF-8"?>
<svg id="_레이어_1" data-name="레이어_1" xmlns="http://www.w3.org/2000/svg" version="1.1" viewBox="0 0 341.48753 382.99117">
  <!-- Generator: Adobe Illustrator 29.3.0, SVG Export Plug-In . SVG Version: 2.1.0 Build 146)  -->
  <g>
    <path d="M284.53497,136.89314c2.98404-3.097,22.00803-22.23799,24.56204-24.91399,5.5,5.29297,10.52396,10.07098,11.23099,10.59,2.44101,1.957,6.35901,2.34,9.02701.67599,1.59796-1.01599,3.67599-2.51599,6.129-4.957,2.44501-2.453,3.94501-4.53101,4.957-6.129,1.664-2.672,1.27396-6.59399-.67599-9.03101-1.13202-1.54297-22.90604-24.02399-25.418-26.39099-2.375-2.51199-24.84705-24.285-26.39001-25.418-2.44598-1.957-6.35999-2.34-9.03104-.67599-1.59799,1.01199-3.67599,2.51199-6.12897,4.957-2.44199,2.453-3.94199,4.53198-4.95703,6.129-1.664,2.668-1.27396,6.59.67505,9.02798.51199.707,5.297,5.73001,10.59,11.23001-2.383,2.27701-21.15601,20.93799-23.90204,23.578l29.332,31.32799ZM284.53497,136.89314" style="fill: #454565;"/>
    <path d="M189.68298,67.55013c-.07397-3.90298-.15598-23.664-.23798-27.11398,10.76999-.203,20.55499-.44901,21.76999-.63602,4.39-.48898,8.68701-4.01199,9.69099-8.34.58601-2.60999,1.164-6.17999,1.17201-11.06299-.00801-4.883-.586-8.453-1.17201-11.06201-1.00398-4.328-5.30099-7.85599-9.69099-8.34-2.668-.414-46.82901-1.117-51.70401-.97699-4.875-.13602-49.03499.56299-51.707.97699-4.38599.48401-8.68298,4.01199-9.687,8.34-.58598,2.60901-1.16399,6.17902-1.17198,11.06201.008,4.883.586,8.453,1.17198,11.06299,1.00401,4.328,5.30101,7.85101,9.687,8.34,1.21503.18701,10.99701.43301,21.774.63602-.082,3.44998-.15599,23.211-.23799,27.11398h60.34299ZM189.68298,67.55013" style="fill: #454565;"/>
  </g>
  <path d="M159.519,63.95614C71.41798,63.95614,0,135.37014,0,223.47514s71.41798,159.51604,159.519,159.51604,159.51598-71.41403,159.51598-159.51604S247.61301,63.95614,159.519,63.95614h0ZM159.519,63.95614" style="fill: #4193d2;"/>
  <path d="M277.41797,116.03014c-29.17599-31.996-71.18797-52.07401-117.89897-52.07401C71.41798,63.95614,0,135.37014,0,223.47514c0,31.07799,8.89401,60.08202,24.26901,84.606,14.76999,3.336,30.13698,5.10901,45.91798,5.10901,111.125,0,201.84801-87.371,207.23097-197.16h0ZM277.41797,116.03014" style="fill: #48a4df;"/>
  <path d="M220.59,208.43615l-69.82501,107.746c-1.605,2.47302-4.355,3.965-7.304,3.965h-5.46899c-5.63699,0-9.78499-5.27701-8.457-10.754l17.203-71.01102h-41.94501c-5.02798,0-8.73099-4.69998-7.54698-9.59l23.28099-96.07399c.84-3.481,3.957-5.93401,7.543-5.93401h48.27c5.02701,0,8.73,4.703,7.54599,9.59399l-14.207,58.60901h43.60602c6.90199,0,11.05499,7.65199,7.30499,13.442v.007ZM220.59,208.43615" style="fill: #fff;"/>
  <metadata>
    <sfw xmlns="http://ns.adobe.com/SaveForWeb/1.0/">
      <slices/>
      <sliceSourceBounds x="135.34" y="204" width="341.49" height="382.99" bottomLeftOrigin="true"/>
    </sfw>
  </metadata>
</svg>