<?xml version="1.0" encoding="UTF-8"?>
<svg id="_레이어_1" data-name="레이어_1" xmlns="http://www.w3.org/2000/svg" version="1.1" viewBox="0 0 14.6 14.6">
  <!-- Generator: Adobe Illustrator 29.2.0, SVG Export Plug-In . SVG Version: 2.1.0 Build 108)  -->
  <defs>
    <style>
      .st0 {
        fill: #222;
        fill-rule: evenodd;
      }
    </style>
  </defs>
  <path class="st0" d="M7.3,1.1c-.7,0-1.4,0-2.2.2-1.9.4-3.3,1.9-3.8,3.8-.3,1.4-.3,2.9,0,4.3.4,1.9,1.9,3.3,3.8,3.8,1.4.3,2.9.3,4.3,0,1.9-.4,3.3-1.9,3.8-3.8.2-.7.2-1.4.2-2.2s.2-.6.6-.6.6.2.6.6c0,.8,0,1.6-.3,2.4-.5,2.3-2.3,4.1-4.6,4.6-1.6.4-3.2.4-4.8,0-2.3-.5-4.1-2.3-4.6-4.6C0,8.1,0,6.5.3,4.9.8,2.6,2.6.8,4.9.3c.8-.2,1.6-.3,2.4-.3s.6.2.6.6-.2.6-.6.6h0ZM7.3,1.1"/>
  <path class="st0" d="M12.2,1.9c-.7,0-1.3.6-1.3,1.3s.6,1.3,1.3,1.3,1.3-.6,1.3-1.3-.6-1.3-1.3-1.3h0ZM9.8,3.2c0-1.3,1.1-2.4,2.4-2.4s2.4,1.1,2.4,2.4-1.1,2.4-2.4,2.4-2.4-1.1-2.4-2.4h0ZM9.8,3.2"/>
</svg>