<?xml version="1.0" encoding="UTF-8"?>
<svg id="_레이어_1" data-name="레이어_1" xmlns="http://www.w3.org/2000/svg" version="1.1" viewBox="0 0 320 320">
  <!-- Generator: Adobe Illustrator 29.1.0, SVG Export Plug-In . SVG Version: 2.1.0 Build 142)  -->
  <defs>
    <style>
      .st0 {
        fill-rule: evenodd;
      }
    </style>
  </defs>
  <path class="st0" d="M160,24.6c-74.8,0-135.4,60.6-135.4,135.4s5.4,43.5,15,62.1c.9,1.7,1.4,3.7,1.4,5.6v51.2h51.2c2,0,3.9.5,5.6,1.4,18.6,9.6,39.7,15,62.1,15,74.8,0,135.4-60.6,135.4-135.4S234.8,24.6,160,24.6h0ZM0,160C0,71.6,71.6,0,160,0s160,71.6,160,160-71.6,160-160,160-49.3-5.9-70.7-16.4H28.7c-6.8,0-12.3-5.5-12.3-12.3v-60.6C5.9,209.3,0,185.3,0,160h0ZM0,160"/>
  <path d="M127.2,160c0,9.1-7.3,16.4-16.4,16.4s-16.4-7.3-16.4-16.4,7.3-16.4,16.4-16.4,16.4,7.3,16.4,16.4h0ZM127.2,160"/>
  <path d="M176.4,160c0,9.1-7.3,16.4-16.4,16.4s-16.4-7.3-16.4-16.4,7.3-16.4,16.4-16.4,16.4,7.3,16.4,16.4h0ZM176.4,160"/>
  <path d="M225.6,160c0,9.1-7.3,16.4-16.4,16.4s-16.4-7.3-16.4-16.4,7.3-16.4,16.4-16.4,16.4,7.3,16.4,16.4h0ZM225.6,160"/>
</svg>