<?xml version="1.0" encoding="UTF-8"?>
<svg id="_레이어_1" data-name="레이어_1" xmlns="http://www.w3.org/2000/svg" version="1.1" viewBox="0 0 384 384.00032">
  <!-- Generator: Adobe Illustrator 29.3.0, SVG Export Plug-In . SVG Version: 2.1.0 Build 146)  -->
  <g>
    <path d="M192,.00028C85.965.00028,0,85.93428,0,192.0003s85.965,192.00002,192,192.00002,192-85.98804,192-192.00002S298.035.00028,192,.00028h0ZM192,.00028" style="fill: #ffb133;"/>
    <path d="M.17999,184.00428v15.94501c1.26099,31.65999,10.38199,62.504,26.535,89.76199,20.547,6.539,41.97998,9.85901,63.539,9.84,115.42599,0,208.996-93.571,208.996-208.996.01999-21.78198-3.367-43.43399-10.043-64.168C259.75,9.05528,226.17999-.05871,192,.00028,88.63698.00028,4.35898,81.66029.17999,184.00428H.17999ZM.17999,184.00428" style="fill: #f8c358;"/>
  </g>
  <path d="M268.09396,220.07429h-79.90298c-12.60899,0-22.836-10.21501-22.855-22.82401v-122.80499c-.10899-6.13303,2.25-12.05002,6.547-16.42502s10.172-6.84,16.30501-6.84c6.13202,0,12.007,2.465,16.30402,6.84,4.297,4.375,6.65298,10.29199,6.543,16.42502v99.922h57.05896c12.621,0,22.85504,10.231,22.85504,22.85199s-10.23404,22.85501-22.85504,22.85501h0ZM268.09396,220.07429" style="fill: #fff;"/>
  <metadata>
    <sfw xmlns="http://ns.adobe.com/SaveForWeb/1.0/">
      <slices/>
      <sliceSourceBounds x="114" y="204" width="384" height="384" bottomLeftOrigin="true"/>
    </sfw>
  </metadata>
</svg>