<?xml version="1.0" encoding="UTF-8"?>
<svg id="_레이어_1" xmlns="http://www.w3.org/2000/svg" version="1.1" xmlns:xlink="http://www.w3.org/1999/xlink" viewBox="0 0 320 349.5">
  <!-- Generator: Adobe Illustrator 29.1.0, SVG Export Plug-In . SVG Version: 2.1.0 Build 142)  -->
  <defs>
    <style>
      .st0 {
        fill: #222;
      }

      .st1 {
        clip-path: url(#clippath);
      }
    </style>
    <clipPath id="clippath">
      <path class="st0" d="M13.8,28.8L214.9,0c1.1-.2,2.3,0,3.4.2,1.1.3,2.1.9,3,1.6.9.8,1.6,1.7,2,2.7.5,1,.7,2.2.7,3.3v333.5c0,1.1-.2,2.3-.7,3.3s-1.2,2-2,2.7c-.9.8-1.9,1.3-3,1.6-1.1.3-2.2.4-3.4.2l-201.2-28.7c-3.8-.5-7.3-2.4-9.8-5.4C1.4,312.1,0,308.4,0,304.5V44.6C0,40.7,1.4,37,3.9,34.1c2.5-2.9,6-4.8,9.8-5.4h.1ZM32,58.5v232.5l160,22.9V35.7L32,58.5ZM240,286.8h48V62.8h-48V30.8h64c4.2,0,8.3,1.7,11.3,4.7s4.7,7.1,4.7,11.3v256c0,4.2-1.7,8.3-4.7,11.3s-7.1,4.7-11.3,4.7h-64v-32ZM131.2,174.8l44.8,64h-38.4l-25.6-36.6-25.6,36.6h-38.4l44.8-64-44.8-64h38.4l25.6,36.6,25.6-36.6h38.4l-44.8,64h0Z"/>
    </clipPath>
  </defs>
  <path class="st0" d="M13.8,28.8L214.9,0c1.1-.2,2.3,0,3.4.2,1.1.3,2.1.9,3,1.6.9.8,1.6,1.7,2,2.7.5,1,.7,2.2.7,3.3v333.5c0,1.1-.2,2.3-.7,3.3s-1.2,2-2,2.7c-.9.8-1.9,1.3-3,1.6-1.1.3-2.2.4-3.4.2l-201.2-28.7c-3.8-.5-7.3-2.4-9.8-5.4C1.4,312.1,0,308.4,0,304.5V44.6C0,40.7,1.4,37,3.9,34.1c2.5-2.9,6-4.8,9.8-5.4h.1ZM32,58.5v232.5l160,22.9V35.7L32,58.5ZM240,286.8h48V62.8h-48V30.8h64c4.2,0,8.3,1.7,11.3,4.7s4.7,7.1,4.7,11.3v256c0,4.2-1.7,8.3-4.7,11.3s-7.1,4.7-11.3,4.7h-64v-32ZM131.2,174.8l44.8,64h-38.4l-25.6-36.6-25.6,36.6h-38.4l44.8-64-44.8-64h38.4l25.6,36.6,25.6-36.6h38.4l-44.8,64h0Z"/>
  <g>
    <path class="st0" d="M13.8,28.8L214.9,0c1.1-.2,2.3,0,3.4.2,1.1.3,2.1.9,3,1.6.9.8,1.6,1.7,2,2.7.5,1,.7,2.2.7,3.3v333.5c0,1.1-.2,2.3-.7,3.3s-1.2,2-2,2.7c-.9.8-1.9,1.3-3,1.6-1.1.3-2.2.4-3.4.2l-201.2-28.7c-3.8-.5-7.3-2.4-9.8-5.4C1.4,312.1,0,308.4,0,304.5V44.6C0,40.7,1.4,37,3.9,34.1c2.5-2.9,6-4.8,9.8-5.4h.1ZM32,58.5v232.5l160,22.9V35.7L32,58.5ZM240,286.8h48V62.8h-48V30.8h64c4.2,0,8.3,1.7,11.3,4.7s4.7,7.1,4.7,11.3v256c0,4.2-1.7,8.3-4.7,11.3s-7.1,4.7-11.3,4.7h-64v-32ZM131.2,174.8l44.8,64h-38.4l-25.6-36.6-25.6,36.6h-38.4l44.8-64-44.8-64h38.4l25.6,36.6,25.6-36.6h38.4l-44.8,64h0Z"/>
    <g class="st1">
      <rect class="st0" y="-.2" width="320.2" height="349.9"/>
    </g>
  </g>
</svg>