<?xml version="1.0" encoding="UTF-8"?>
<svg id="_레이어_1" xmlns="http://www.w3.org/2000/svg" version="1.1" xmlns:xlink="http://www.w3.org/1999/xlink" viewBox="0 0 79 79">
  <!-- Generator: Adobe Illustrator 29.1.0, SVG Export Plug-In . SVG Version: 2.1.0 Build 142)  -->
  <defs>
    <style>
      .st0 {
        fill: none;
      }

      .st1 {
        fill: #222;
      }

      .st2 {
        fill: #e3e3e2;
      }

      .st3 {
        clip-path: url(#clippath);
      }
    </style>
    <clipPath id="clippath">
      <rect class="st0" x="16.6" y="24.1" width="45.8" height="26.9"/>
    </clipPath>
  </defs>
  <path class="st2" d="M39.5,0C17.7,0,0,17.7,0,39.5s17.7,39.5,39.5,39.5,39.5-17.7,39.5-39.5S61.3,0,39.5,0ZM39.5,76c-20.1,0-36.5-16.4-36.5-36.5S19.4,3,39.5,3s36.5,16.4,36.5,36.5-16.4,36.5-36.5,36.5Z"/>
  <g class="st3">
    <path class="st1" d="M36,25.5c-.2.2-.4.5-.6.7l-17.3,17.3c-1.7,1.7-1.7,4.4,0,6.1s4.4,1.7,6.1,0l14.9-14.9,15,15c1.7,1.7,4.4,1.7,6.1,0,.8-.8,1.3-1.9,1.3-3.1s-.4-2.2-1.3-3.1l-17.4-17.4c-.2-.3-.4-.5-.6-.7-.9-.9-2-1.3-3.1-1.3s-2.3.4-3.1,1.3h0Z"/>
  </g>
</svg>