<?xml version="1.0" encoding="UTF-8"?>
<svg id="_레이어_1" xmlns="http://www.w3.org/2000/svg" version="1.1" viewBox="0 0 13.1 13.1">
  <!-- Generator: Adobe Illustrator 29.1.0, SVG Export Plug-In . SVG Version: 2.1.0 Build 142)  -->
  <defs>
    <style>
      .st0 {
        fill: #222;
      }
    </style>
  </defs>
  <path class="st0" d="M12.9,6.5C12.1.4,11.3,0,6.6,0S1,.4.2,6.5c-.4,2.7-.2,4.2.7,5.2,1,1.2,2.9,1.4,5.7,1.4s4.7-.2,5.7-1.4c.9-1,1.1-2.5.7-5.2h0ZM11.4,11c-.7.8-2.4,1-4.9,1s-4.1-.2-4.8-1c-.6-.7-.7-2-.4-4.3C2.1,1.1,2.3,1.1,6.6,1.1s4.5,0,5.3,5.6c.3,2.3.2,3.6-.4,4.3h-.1Z"/>
  <path class="st0" d="M8.4,2.6c-.3,0-.6.2-.6.6,0,1.8-2.6,1.8-2.6,0s-1.1-.8-1.1,0c0,3.2,4.9,3.2,4.9,0s-.2-.6-.6-.6h0Z"/>
</svg>