<?xml version="1.0" encoding="UTF-8"?>
<svg id="_레이어_1" data-name="레이어_1" xmlns="http://www.w3.org/2000/svg" version="1.1" viewBox="0 0 280 280">
  <!-- Generator: Adobe Illustrator 29.2.0, SVG Export Plug-In . SVG Version: 2.1.0 Build 108)  -->
  <defs>
    <style>
      .st0 {
        fill-rule: evenodd;
      }

      .st0, .st1 {
        fill: #232323;
      }
    </style>
  </defs>
  <g>
    <path class="st0" d="M78.3.3c-4.9-.3-10.8-.3-17.9-.3h-.8c-7.1,0-13.1,0-17.9.3-5.1.3-9.9,1.1-14.5,3C16.4,7.8,7.8,16.4,3.3,27.2c-1.9,4.6-2.7,9.4-3,14.5-.3,4.9-.3,10.8-.3,17.9v.8c0,7.1,0,13.1.3,17.9.3,5.1,1.1,9.9,3,14.5,4.5,10.8,13,19.3,23.8,23.8,4.6,1.9,9.4,2.7,14.5,3,4.9.3,10.8.3,17.9.3h.8c7.1,0,13.1,0,17.9-.3,5.1-.3,9.9-1.1,14.5-3,10.8-4.5,19.3-13,23.8-23.8,1.9-4.6,2.7-9.4,3-14.5.3-4.9.3-10.8.3-17.9v-.8c0-7.1,0-13.1-.3-17.9-.3-5.1-1.1-9.9-3-14.5-4.5-10.8-13-19.3-23.8-23.8-4.6-1.9-9.4-2.7-14.5-3h0ZM36.3,25.5c1.2-.5,3.1-1,7-1.2,4-.3,9.1-.3,16.7-.3s12.7,0,16.7.3c3.9.3,5.7.7,7,1.2,4.9,2,8.8,5.9,10.8,10.8.5,1.2,1,3.1,1.2,7,.3,4,.3,9.1.3,16.7s0,12.7-.3,16.7c-.3,3.9-.7,5.7-1.2,7-2,4.9-5.9,8.8-10.8,10.8-1.2.5-3.1,1-7,1.2-4,.3-9.1.3-16.7.3s-12.7,0-16.7-.3c-3.9-.3-5.7-.7-7-1.2-4.9-2-8.8-5.9-10.8-10.8-.5-1.2-1-3.1-1.2-7-.3-4-.3-9.1-.3-16.7s0-12.7.3-16.7c.3-3.9.7-5.7,1.2-7,2-4.9,5.9-8.8,10.8-10.8h0ZM36.3,25.5"/>
    <path class="st1" d="M232,12c0-6.6-5.4-12-12-12s-12,5.4-12,12v36h-36c-6.6,0-12,5.4-12,12s5.4,12,12,12h36v36c0,6.6,5.4,12,12,12s12-5.4,12-12v-36h36c6.6,0,12-5.4,12-12s-5.4-12-12-12h-36V12ZM232,12"/>
  </g>
  <path class="st0" d="M78.3,160.3c-4.9-.3-10.8-.3-17.9-.3h-.8c-7.1,0-13.1,0-17.9.3-5.1.3-9.9,1.1-14.5,3-10.8,4.5-19.3,13-23.8,23.8-1.9,4.6-2.7,9.4-3,14.5-.3,4.9-.3,10.8-.3,17.9v.8c0,7.1,0,13,.3,17.9.3,5.1,1.1,9.9,3,14.5,4.5,10.8,13,19.3,23.8,23.8,4.6,1.9,9.4,2.7,14.5,3,4.9.3,10.8.3,17.9.3h.8c7.1,0,13.1,0,17.9-.3,5.1-.3,9.9-1.1,14.5-3,10.8-4.5,19.3-13,23.8-23.8,1.9-4.6,2.7-9.4,3-14.5.3-4.9.3-10.8.3-17.9v-.8c0-7.1,0-13-.3-17.9-.3-5.1-1.1-9.9-3-14.5-4.5-10.8-13-19.3-23.8-23.8-4.6-1.9-9.4-2.7-14.5-3h0ZM36.3,185.5c1.2-.5,3.1-1,7-1.2,4-.3,9.1-.3,16.7-.3s12.7,0,16.7.3c3.9.3,5.7.7,7,1.2,4.9,2,8.8,5.9,10.8,10.8.5,1.2,1,3.1,1.2,7,.3,4,.3,9.1.3,16.7s0,12.7-.3,16.7c-.3,3.9-.7,5.7-1.2,7-2,4.9-5.9,8.8-10.8,10.8-1.2.5-3.1,1-7,1.2-4,.3-9.1.3-16.7.3s-12.7,0-16.7-.3c-3.9-.3-5.7-.7-7-1.2-4.9-2-8.8-5.9-10.8-10.8-.5-1.2-1-3.1-1.2-7-.3-4-.3-9.1-.3-16.7s0-12.7.3-16.7c.3-3.9.7-5.7,1.2-7,2-4.9,5.9-8.8,10.8-10.8h0ZM36.3,185.5"/>
  <path class="st0" d="M238.3,160.3c-4.9-.3-10.8-.3-17.9-.3h-.8c-7.1,0-13,0-17.9.3-5.1.3-9.9,1.1-14.5,3-10.8,4.5-19.3,13-23.8,23.8-1.9,4.6-2.7,9.4-3,14.5-.3,4.9-.3,10.8-.3,17.9v.8c0,7.1,0,13,.3,17.9.3,5.1,1.1,9.9,3,14.5,4.5,10.8,13,19.3,23.8,23.8,4.6,1.9,9.4,2.7,14.5,3,4.9.3,10.8.3,17.9.3h.8c7.1,0,13,0,17.9-.3,5.1-.3,9.9-1.1,14.5-3,10.8-4.5,19.3-13,23.8-23.8,1.9-4.6,2.7-9.4,3-14.5.3-4.9.3-10.8.3-17.9v-.8c0-7.1,0-13-.3-17.9-.3-5.1-1.1-9.9-3-14.5-4.5-10.8-13-19.3-23.8-23.8-4.6-1.9-9.4-2.7-14.5-3h0ZM196.3,185.5c1.2-.5,3.1-1,7-1.2,4-.3,9.1-.3,16.7-.3s12.7,0,16.7.3c3.9.3,5.7.7,7,1.2,4.9,2,8.8,5.9,10.8,10.8.5,1.2,1,3.1,1.2,7,.3,4,.3,9.1.3,16.7s0,12.7-.3,16.7c-.3,3.9-.7,5.7-1.2,7-2,4.9-5.9,8.8-10.8,10.8-1.2.5-3.1,1-7,1.2-4,.3-9.1.3-16.7.3s-12.7,0-16.7-.3c-3.9-.3-5.7-.7-7-1.2-4.9-2-8.8-5.9-10.8-10.8-.5-1.2-1-3.1-1.2-7-.3-4-.3-9.1-.3-16.7s0-12.7.3-16.7c.3-3.9.7-5.7,1.2-7,2-4.9,5.9-8.8,10.8-10.8h0ZM196.3,185.5"/>
</svg>