<?xml version="1.0" encoding="UTF-8"?>
<svg id="_레이어_1" data-name="레이어_1" xmlns="http://www.w3.org/2000/svg" version="1.1" viewBox="0 0 324 324">
  <!-- Generator: Adobe Illustrator 29.2.0, SVG Export Plug-In . SVG Version: 2.1.0 Build 108)  -->
  <defs>
    <style>
      .st0, .st1 {
        fill: #222;
      }

      .st1 {
        fill-rule: evenodd;
      }
    </style>
  </defs>
  <path class="st0" d="M204,36c6.6,0,12-5.4,12-12s-5.4-12-12-12h-48.7c-29.4,0-52.4,0-70.7,2-18.6,2-33.8,6.2-46.7,15.6-7.8,5.7-14.7,12.5-20.4,20.4-9.4,12.9-13.6,28-15.6,46.7-2,18.3-2,41.3-2,70.7v1.4c0,29.4,0,52.4,2,70.7,2,18.7,6.2,33.8,15.6,46.7,5.7,7.8,12.5,14.7,20.4,20.4,12.9,9.4,28,13.6,46.7,15.6,18.3,2,41.3,2,70.7,2h1.5c29.4,0,52.4,0,70.7-2,18.7-2,33.8-6.2,46.7-15.6,7.8-5.7,14.7-12.5,20.4-20.4,9.4-12.9,13.6-28,15.6-46.7,2-18.3,2-41.3,2-70.7v-48.7c0-6.6-5.4-12-12-12s-12,5.4-12,12v48c0,30.3,0,52-1.8,68.8-1.8,16.6-5.2,27-11.1,35.1-4.2,5.8-9.3,10.9-15,15-8.1,5.9-18.5,9.3-35.1,11.1-16.8,1.8-38.6,1.8-68.8,1.8s-52,0-68.8-1.8c-16.6-1.8-27-5.2-35.1-11.1-5.8-4.2-10.9-9.3-15-15-5.9-8.1-9.3-18.5-11.1-35.1-1.8-16.8-1.8-38.6-1.8-68.8s0-52,1.8-68.8c1.8-16.6,5.2-27,11.1-35.1,4.2-5.8,9.3-10.9,15-15,8.1-5.9,18.5-9.3,35.1-11.1,16.8-1.8,38.6-1.8,68.8-1.8h48ZM204,36"/>
  <path class="st0" d="M65.2,208.4c-2.9,5.9-.5,13.1,5.5,16.1,5.9,2.9,13.1.5,16.1-5.5l23.4-47.6c7.2-14.8,28.5-14,34.8,1.2,14.1,34.4,62.2,36,78.5,2.7l23.4-47.6c2.9-5.9.5-13.1-5.5-16.1-5.9-2.9-13.1-.5-16.1,5.5l-23.4,47.6c-7.2,14.8-28.5,14-34.8-1.2-14.1-34.4-62.2-36-78.5-2.7l-23.4,47.6ZM65.2,208.4"/>
  <path class="st1" d="M244,40c0,22.1,17.9,40,40,40s40-17.9,40-40S306.1,0,284,0s-40,17.9-40,40h0ZM268,40c0,8.8,7.2,16,16,16s16-7.2,16-16-7.2-16-16-16-16,7.2-16,16h0ZM268,40"/>
</svg>