<?xml version="1.0" encoding="UTF-8"?>
<svg id="_레이어_1" data-name="레이어_1" xmlns="http://www.w3.org/2000/svg" version="1.1" viewBox="0 0 12.4 15.6">
  <!-- Generator: Adobe Illustrator 29.1.0, SVG Export Plug-In . SVG Version: 2.1.0 Build 142)  -->
  <defs>
    <style>
      .st0 {
        fill: #fff;
        fill-rule: evenodd;
        stroke: #fff;
        stroke-miterlimit: 10;
        stroke-width: .2px;
      }
    </style>
  </defs>
  <path class="st0" d="M4.1,13.7c.2-.2.6-.2.8,0,.8.8,1.9.8,2.6,0,.2-.2.6-.2.8,0,.2.2.2.6,0,.8-1.2,1.3-3.1,1.4-4.3,0-.2-.2-.2-.6,0-.8h0ZM4.1,13.7"/>
  <path class="st0" d="M2.1,2.1C3,.9,4.3.1,6.2.1s3.2.8,4.1,2c.9,1.1,1.3,2.5,1.3,3.6s0,.6,0,.7c0,0,0,0,0,.1,0,.2,0,.3,0,.4,0,.2.1.5.6,1.4,0,0,0,0,0,0,.3.8.2,1.5-.1,2.1-.4.6-.9,1-1.6,1.3-1.3.6-3,.9-4.2.9s-2.9-.3-4.2-.9c-.6-.3-1.2-.8-1.6-1.3-.4-.6-.4-1.4-.1-2.1,0,0,0,0,0,0,.4-.9.5-1.2.6-1.4,0,0,0-.2,0-.4,0,0,0,0,0-.1,0-.2,0-.4,0-.7,0-1.1.4-2.5,1.3-3.6h0ZM3,2.8c-.7.9-1,2-1,2.9s0,.5,0,.7c0,0,0,0,0,.1,0,.2,0,.4,0,.6,0,.4-.3.8-.6,1.7h0c-.2.5-.1.9,0,1.2.2.3.6.6,1.1.9,1.1.5,2.6.8,3.7.8s2.6-.3,3.7-.8c.5-.3.9-.6,1.1-.9.2-.3.2-.7,0-1.2h0c-.4-.9-.6-1.3-.6-1.7,0-.2,0-.4,0-.6,0,0,0,0,0-.1,0-.2,0-.4,0-.7,0-.9-.3-2-1-2.9-.7-.9-1.7-1.5-3.2-1.5s-2.5.7-3.2,1.5h0ZM3,2.8"/>
</svg>