<?xml version="1.0" encoding="UTF-8"?>
<svg id="_레이어_1" data-name="레이어_1" xmlns="http://www.w3.org/2000/svg" version="1.1" viewBox="0 0 367.22226 384.00327">
  <!-- Generator: Adobe Illustrator 29.3.0, SVG Export Plug-In . SVG Version: 2.1.0 Build 146)  -->
  <path d="M290.43726,37.08125c12.65201,5.81299,25.172,11.965,37.246,18.34,23.48801,12.32001,37.52396,37.258,38.121,62.09799,1.53101,49.65201,1.53101,99.3,0,148.953-.59705,24.84702-14.633,49.77701-38.121,62.09702-38.664,20.47699-81.11301,37.98099-119.96902,51.383-15.74599,5.39499-32.72198,5.39499-48.47198,0-38.86002-13.39401-81.30901-30.89798-119.97299-51.383-23.496-12.32001-37.52301-37.25702-38.121-62.09702C-.38275,216.81924-.38275,167.17124,1.14825,117.51923c.59799-24.84399,14.625-49.77798,38.121-62.09799C77.93324,34.95225,120.37524,17.44825,159.24225,4.04624c15.75-5.39499,32.72198-5.39499,48.47198,0,11.645,4.043,23.539,8.383,35.57799,13.07001l47.153,19.965h-.00797ZM290.43726,37.08125" style="fill: #faab48;"/>
  <path d="M288.20322,92.47227c0-20.89502-3.09796-41.06302-8.84399-60.07803l-36.07401-15.27798c-12.03198-4.68701-23.93398-9.02701-35.57797-13.07001-6.52798-2.23401-13.254-3.52701-20.02798-3.90601h-8.42203c-6.77299.379-13.5,1.67902-20.02299,3.90601-38.85899,13.40201-81.30099,30.90601-119.96498,51.383C15.77325,67.74924,1.74625,92.68723,1.14825,117.52625c-1.53101,49.65298-1.53101,99.30101,0,148.95398.14798,6.367,1.19098,12.73401,3.043,18.89001,23.67999,9.40601,49.5,14.586,76.53099,14.586,114.59401,0,207.48802-92.894,207.48802-207.48398h-.00705ZM288.20322,92.47227" style="fill: #f8c358;"/>
  <path d="M290.43726,37.08125c-49.99603,16.172-108.547,37.465-167.60202,63.91-11.601,5.17599-19.40999,16.55099-19.82399,29.008-.922,28.47299-1.19899,57.918-.832,86.981.047,3.97202-4.769,5.625-7.207,2.496-6.23801-7.98901-12.35899-15.914-18.31599-23.72301-.96501-1.26601-2.653-1.61301-3.97301-.81599-4.63699,2.75699-9.19499,5.48-13.664,8.168-2.508,1.49199-5.59-.49701-5.605-3.586-.149-28.96501.578-58.02,2.125-86.17601.65199-11.879,8.10501-23.05499,19.125-28.46899,56.64-27.97601,117.06599-50.828,168.62097-67.742,0,0,20.91003,7.17999,47.15204,19.965v-.01599ZM290.43726,37.08125" style="fill: #fff;"/>
  <path d="M281.24222,212.04224c-47.48097,0-85.98097,38.5-85.98097,85.98099,0,47.48401,38.5,85.98004,85.98097,85.98004,47.48404,0,85.98004-38.49603,85.98004-85.98004,0-47.48099-38.496-85.98099-85.98004-85.98099h0ZM281.24222,212.04224" style="fill: #454565;"/>
  <path d="M315.32425,310.60825h-35.78503c-5.65295,0-10.23099-4.582-10.23099-10.23001v-54.98401c0-5.65298,4.58603-10.22699,10.23099-10.22699,5.64804,0,10.23004,4.582,10.23004,10.22699v44.746h25.55499c5.65198,0,10.23001,4.582,10.23001,10.23001,0,5.64899-4.586,10.23099-10.23001,10.23099v.00702ZM315.32425,310.60825" style="fill: #fff;"/>
  <metadata>
    <sfw xmlns="http://ns.adobe.com/SaveForWeb/1.0/">
      <slices/>
      <sliceSourceBounds x="122.52" y="204" width="367.22" height="384" bottomLeftOrigin="true"/>
    </sfw>
  </metadata>
</svg>