<?xml version="1.0" encoding="UTF-8"?>
<svg id="Layer_2" xmlns="http://www.w3.org/2000/svg" version="1.1" viewBox="0 0 183.7 183.7">
  <!-- Generator: Adobe Illustrator 29.1.0, SVG Export Plug-In . SVG Version: 2.1.0 Build 142)  -->
  <defs>
    <style>
      .st0 {
        fill: #fff;
      }

      .st1 {
        fill: #5f41e0;
      }
    </style>
  </defs>
  <circle class="st1" cx="91.8" cy="91.8" r="91.8"/>
  <path class="st0" d="M129.8,111.9l-20.1-20.1,20.1-20.1c5.6-5.6,6.1-14.2,1.2-19.1-4.9-4.9-13.5-4.4-19.1,1.2l-20.1,20.1-20.1-20.1c-5.6-5.6-14.2-6.1-19.1-1.2-4.9,4.9-4.4,13.5,1.2,19.1l20.1,20.1-20.1,20.1c-5.6,5.6-6.1,14.2-1.2,19.1,4.9,4.9,13.5,4.4,19.1-1.2l20.1-20.1,20.1,20.1c5.6,5.6,14.2,6.1,19.1,1.2,4.9-4.9,4.4-13.5-1.2-19.1Z"/>
</svg>