<?xml version="1.0" encoding="UTF-8"?>
<svg id="_레이어_1" data-name="레이어_1" xmlns="http://www.w3.org/2000/svg" version="1.1" viewBox="0 0 384.28371 383.34618">
  <!-- Generator: Adobe Illustrator 29.3.0, SVG Export Plug-In . SVG Version: 2.1.0 Build 146)  -->
  <path d="M99.75864,360.7607c21.02399-21.01999,21.02399-55.22299,0-76.23401-21.01901-21.02399-55.21902-21.02399-76.23401,0-15,15-20.90302,38.22601-22.785,59.26901-1.74301,19.48099.13199,35.125.203,35.785.32001,2.98499,3.18698,3.65298,3.67899,3.742.047.008.09003.01599.14502.01599,1.207.043,18.43399.38699,23.742-16.39099,1.14899-3.621,2.582-6.52301,4.15598-8.84702,3.47302-5.125,11.47702-2.035,10.59003,4.086-1.22202,8.461,1.85999,15.203,3.75,18.414.742,1.258,2.17599,1.93301,3.61697,1.715,18.01202-2.75,36.49301-8.92197,49.13301-21.56699l.00401.01199ZM99.75864,360.7607" style="fill: #faab48;"/>
  <path d="M383.9346,33.56169c-1.117-18.72299-14.48801-32.10199-33.20697-33.211-63.578-3.789-134.43401,23.17599-189.69202,78.42599l-14.73799,14.73801c-5.308,5.30801-10.35098,10.76901-15.133,16.34399h-46.464c-9.864.38202-18.59399,6.06601-23.52,14.414l-27.31599,54.62901c-.758,1.89801-1.13702,3.79599-1.51202,6.06999,0,7.207,6.06601,13.27301,13.27301,13.27301h34.53201c-4.47299,15.075-1.489,29.89499,8.082,39.465l58.31999,58.32001c9.57002,9.57098,24.39799,12.55499,39.46501,8.086v34.52798c0,7.207,6.06999,13.285,13.27701,13.27701,2.27698-.383,4.16798-.758,6.06598-1.51599l54.62903-27.31601c8.34799-4.93399,14.043-13.65601,14.418-23.51901v-46.461c5.57895-4.78598,11.03195-9.82501,16.34-15.13701l14.73895-14.73798c55.26105-55.25801,82.21405-126.11,78.42502-189.688l.01599.01599ZM320.29764,141.90469c-21.51501,21.51601-56.39801,21.51601-77.91801,0-21.515-21.519-21.515-56.40199,0-77.91801,21.52-21.51498,56.403-21.51498,77.91801,0,21.51999,21.51602,21.51999,56.39902,0,77.91801h0ZM320.29764,141.90469" style="fill: #4193d2;"/>
  <path d="M366.34064,132.78369c13.539-32.96098,19.508-67.02699,17.59396-99.222-1.117-18.72299-14.48801-32.10199-33.20697-33.211-63.578-3.789-134.43401,23.17599-189.69202,78.42599l-14.73799,14.73801c-5.308,5.30801-10.35098,10.76901-15.133,16.34399h-46.464c-8.571.328-16.274,4.67102-21.383,11.26904,3.261,3.76599,6.66,7.44896,10.23799,11.02696,80.82001,80.821,211.71101,81.024,292.79301.62201l-.008.00699ZM242.37962,63.98668c21.52-21.51498,56.403-21.51498,77.91801,0,21.51999,21.51602,21.51999,56.39902,0,77.91801-21.51501,21.51601-56.39801,21.51601-77.91801,0-21.515-21.519-21.515-56.40199,0-77.91801h0ZM242.37962,63.98668" style="fill: #48a4df;"/>
  <metadata>
    <sfw xmlns="http://ns.adobe.com/SaveForWeb/1.0/">
      <slices/>
      <sliceSourceBounds x="113.94" y="204.33" width="384.28" height="383.35" bottomLeftOrigin="true"/>
    </sfw>
  </metadata>
</svg>