<?xml version="1.0" encoding="UTF-8"?>
<svg id="_레이어_1" xmlns="http://www.w3.org/2000/svg" version="1.1" viewBox="0 0 126.6 133.4">
  <!-- Generator: Adobe Illustrator 29.1.0, SVG Export Plug-In . SVG Version: 2.1.0 Build 142)  -->
  <defs>
    <style>
      .st0 {
        fill: #222;
        fill-rule: evenodd;
      }
    </style>
  </defs>
  <path class="st0" d="M36.4,0c2.8,0,5.1,2.3,5.1,5.1v1.7c.3,0,.6,0,.9-.2,13.8-3.3,28.1-3.3,41.8,0,.3,0,.6,0,.9.2v-1.7c0-2.8,2.3-5.1,5.1-5.1s5.1,2.3,5.1,5.1v5.5c14.4,7.1,25.1,20.6,28.8,36.9,3.2,14,3.2,28.6,0,42.6-4.6,20.2-20.1,36.1-40,40.9-13.8,3.3-28.1,3.3-41.8,0-19.9-4.8-35.3-20.7-40-40.9-3.2-14-3.2-28.6,0-42.6,3.7-16.3,14.4-29.7,28.8-36.9v-5.5c0-2.8,2.3-5.1,5.1-5.1h.2ZM31.3,22.4c-9.3,6.1-16.2,15.9-18.9,27.3-2.9,12.5-2.9,25.5,0,38.1,3.8,16.5,16.4,29.3,32.4,33.2,12.2,3,24.8,3,37,0,16-3.8,28.6-16.6,32.4-33.2,2.9-12.5,2.9-25.5,0-38.1-2.6-11.5-9.6-21.2-18.9-27.3,0,2.8-2.4,5.1-5.1,5.1s-5.1-2.3-5.1-5.1v-4.9c-1.1-.4-2.2-.7-3.3-.9-12.2-2.9-24.8-2.9-37,0-1.1.2-2.2.6-3.3.9v4.9c0,2.8-2.3,5.1-5.1,5.1s-5.1-2.2-5.1-5.1h0Z"/>
  <path class="st0" d="M83.8,53.1c2.6,2.2,2.9,6.1.7,8.7l-21,24.7c-1.2,1.4-2.8,2.2-4.6,2.2s-3.5-.7-4.7-2l-12-13.2c-2.3-2.5-2.1-6.4.4-8.8,2.5-2.3,6.4-2.1,8.8.4l7.2,8,16.4-19.3c2.2-2.6,6.1-2.9,8.7-.7h.1Z"/>
</svg>