<?xml version="1.0" encoding="UTF-8"?>
<svg id="Isolation_Mode" xmlns="http://www.w3.org/2000/svg" version="1.1" viewBox="0 0 303.9 332">
  <!-- Generator: Adobe Illustrator 29.1.0, SVG Export Plug-In . SVG Version: 2.1.0 Build 142)  -->
  <defs>
    <style>
      .st0 {
        fill: #fff;
      }
    </style>
  </defs>
  <path class="st0" d="M126,156c43,0,78-35,78-78S169,0,126,0,48,35,48,78s35,78,78,78ZM126,28c27.6,0,50,22.4,50,50s-22.4,50-50,50-50-22.4-50-50,22.4-50,50-50Z"/>
  <path class="st0" d="M78,204h86.4c7.7,0,14-6.3,14-14s-6.3-14-14-14h-86.4C35,176,0,211,0,254s35,78,78,78h86.4c7.7,0,14-6.3,14-14s-6.3-14-14-14h-86.4c-27.6,0-50-22.4-50-50s22.4-50,50-50Z"/>
  <path class="st0" d="M289.9,243.9h-34s0-34,0-34c0-3.7-1.5-7.3-4.1-9.9s-6.2-4.1-9.9-4.1h0c-7.7,0-14,6.3-14,14v34s-34,0-34,0h0c-3.7,0-7.3,1.5-9.9,4.1-2.6,2.6-4.1,6.2-4.1,9.9,0,3.7,1.5,7.3,4.1,9.9s6.2,4.1,9.9,4.1h34v34c0,7.7,6.3,14,14,14h0c3.7,0,7.3-1.5,9.9-4.1,2.6-2.6,4.1-6.2,4.1-9.9v-34h34c7.7,0,14-6.3,14-14,0-7.7-6.3-14-14-14Z"/>
</svg>