<?xml version="1.0" encoding="UTF-8"?>
<svg id="_레이어_1" data-name="레이어_1" xmlns="http://www.w3.org/2000/svg" version="1.1" viewBox="0 0 383.99997 384.00003">
  <!-- Generator: Adobe Illustrator 29.3.0, SVG Export Plug-In . SVG Version: 2.1.0 Build 146)  -->
  <path d="M191.99998,0C85.957,0,0,85.965,0,192.00002s85.965,192.00002,191.99998,192.00002,191.99998-85.96503,191.99998-192.00002S298.035,0,191.99998,0h0ZM191.99998,0" style="fill: #e03757;"/>
  <path d="M0,191.992v.01599c0,35.578,9.69098,68.88699,26.55798,97.453,20.414,6.72299,42.22302,10.35901,64.88301,10.35901,114.59,0,207.485-92.89401,207.485-207.48801,0-23.31601-3.85999-45.73401-10.95703-66.66C259.73401,9.34399,226.95699,0,191.99998,0,85.965,0,0,85.957,0,191.992h0ZM0,191.992" style="fill: #f04760;"/>
  <path d="M191.99998,305.11301l-18.211-12.92902c-18.27-13.72299-29.57799-22.32498-43.94901-35.39899-13.73898-12.51901-29.15999-27.894-38.60999-46.32001,0-.008-4.726-10.05099-6.879-18.66-1.339-5.88699-1.972-12.075-1.70702-18.62099,1.77-35.26601,32.51201-67.41801,64.317-69.25002,7.69501-.35999,14.94902,1.117,21.64,4.10501,3.989,1.785,7.77802,4.10901,11.30902,6.89102l12.08199,10.28098,12.082-10.28098c9.465-7.45303,20.67999-11.57803,32.94902-11.00403,31.80899,1.84,62.55099,33.98401,64.32095,69.25.26105,6.54701-.36795,12.73401-1.711,18.621.01505,0-2.76199,11.25-6.879,18.66-9.44901,18.42999-24.85995,33.80899-38.60196,46.32001-4.88303,4.43399-9.33601,8.30899-13.83601,12.047-8.785,7.297-17.77701,14.06699-30.11299,23.35199l-18.21101,12.93701h.008ZM191.99998,305.11301" style="fill: #fff;"/>
  <metadata>
    <sfw xmlns="http://ns.adobe.com/SaveForWeb/1.0/">
      <slices/>
      <sliceSourceBounds x="114.09" y="204" width="384" height="384" bottomLeftOrigin="true"/>
    </sfw>
  </metadata>
</svg>