<?xml version="1.0" encoding="UTF-8"?>
<svg id="Layer_1" xmlns="http://www.w3.org/2000/svg" version="1.1" viewBox="0 0 512 512">
  <!-- Generator: Adobe Illustrator 29.1.0, SVG Export Plug-In . SVG Version: 2.1.0 Build 142)  -->
  <defs>
    <style>
      .st0 {
        fill: #fff;
      }
    </style>
  </defs>
  <path class="st0" d="M497,192.7c-12.2-14-29.8-22.1-48.4-22.1h-1.8C436.2,74.8,354.7,0,256,0S75.8,74.8,65.2,170.7h-1.2c-18.6,0-36.2,8-48.3,22.1S-2,225.3.6,243.7l22.6,158.4c9,62.7,63.4,109.9,126.7,109.9h212.7c63.3,0,117.8-47.3,126.7-109.9l22.6-158.4c2.6-18.4-2.9-37-15-51h0ZM256,42.7c75.1,0,137.4,55.7,147.8,128H108.2c10.4-72.3,72.7-128,147.8-128ZM469.8,237.7l-22.6,158.4c-6,41.8-42.3,73.3-84.5,73.3h-212.7c-42.2,0-78.5-31.5-84.5-73.3l-22.6-158.4c-.9-6.2.9-12.2,5-17,4.1-4.8,9.8-7.4,16.1-7.4h384.7c6.3,0,12,2.6,16.1,7.4,4.1,4.8,5.9,10.8,5,17h0ZM277.3,277.3v128c0,11.8-9.5,21.3-21.3,21.3s-21.3-9.5-21.3-21.3v-128c0-11.8,9.5-21.3,21.3-21.3s21.3,9.5,21.3,21.3ZM384,277.3v128c0,11.8-9.5,21.3-21.3,21.3s-21.3-9.5-21.3-21.3v-128c0-11.8,9.5-21.3,21.3-21.3s21.3,9.5,21.3,21.3ZM170.7,277.3v128c0,11.8-9.5,21.3-21.3,21.3s-21.3-9.5-21.3-21.3v-128c0-11.8,9.5-21.3,21.3-21.3s21.3,9.5,21.3,21.3Z"/>
</svg>