<?xml version="1.0" encoding="UTF-8"?>
<svg id="_레이어_1" data-name="레이어_1" xmlns="http://www.w3.org/2000/svg" version="1.1" viewBox="0 0 383.95002 384.01341">
  <!-- Generator: Adobe Illustrator 29.3.0, SVG Export Plug-In . SVG Version: 2.1.0 Build 146)  -->
  <g>
    <path d="M373.49615,84.94338c-5.64099-6.082-13.53903-9.57098-21.832-9.64499h-23.28104c.203-9.96899.172-18.172-.13297-22.63702-1.254-23.55399-17.57404-43.45297-52.37503-47.78098-55.51999-6.48801-111.60898-6.48801-167.12898,0-34.793,4.328-51.09799,24.21899-52.371,47.78098-.30099,4.5-.33998,12.66803-.13699,22.63702h-23.92598c-8.289.078-16.17902,3.56699-21.81601,9.64499C3.34814,92.40038-.45285,103.05638.04312,114.18538c.789,18.81601,2.71503,37.56602,5.75803,56.15201v.153c6.31598,36,33.75,68.65201,63.894,76.04597,7.485,1.71503,15.05499,3.04303,22.67999,3.97702,11.02301,16.14099,26.332,31.92599,41.34001,39.80899,14.129,6.64401,33.03499,14.25,58.59698,14.40201,25.567-.16,44.47301-7.76199,58.60602-14.40201,15-7.89499,30.367-23.73099,41.39801-39.90701,7.371-.92197,14.69196-2.21396,21.92999-3.879,30.11301-7.39397,57.578-40.07797,63.89099-76.04597v-.153c3.047-18.58598,4.96802-37.336,5.76102-56.15201.547-11.129-3.254-21.785-10.40201-29.242h0ZM76.49614,218.86539c-19.16399-4.688-38.24998-28.563-42.63701-53.25-2.836-17.446-4.629-35.04001-5.36298-52.696-.17203-3.93701,1.215-6.85501,2.57397-8.25.31702-.40201.75-.69501,1.24203-.84h24.96898c.93001,18.11798,2.379,36.368,4.23801,47.11398,3.05899,20.68301,10.5,51.23401,15.48898,68.06201l-.383-.09001-.129-.04999ZM350.05816,165.61539c-4.34305,24.57399-23.332,48.35899-42.42502,53.164,4.99997-16.86801,12.38602-47.25,15.43301-67.88701,1.85995-10.75,3.31699-29.004,4.246-47.117h24.32895c.49203.14401.92505.43701,1.246.84,1.35501,1.42502,2.74603,4.34302,2.57001,8.25003-.73099,17.68298-2.52298,35.30399-5.35901,52.76898l-.03995-.019ZM350.05816,165.61539" style="fill: #ea802a;"/>
    <path d="M92.37514,250.51338c11.02301,16.14099,26.332,31.92599,41.34001,39.80899,14.129,6.64401,33.03499,14.25,58.59698,14.40201,25.567-.16,44.47301-7.76199,58.60602-14.40201,15-7.89499,30.367-23.73099,41.39801-39.90701,6.203-9.97198,11.34799-20.56598,15.35196-31.60498,5.00403-16.867,12.39005-47.25,15.43704-67.89099,1.85999-10.746,3.31296-29,4.24295-47.11301l1.035-28.5c.203-9.96899.172-18.172-.12497-22.63702-1.26199-23.56198-17.58203-43.46097-52.38303-47.78897-55.51999-6.48801-111.60898-6.48801-167.12898,0-34.793,4.328-51.09799,24.21899-52.371,47.78098-.30099,4.5-.33998,12.66803-.13699,22.63702l1.043,28.5c.93001,18.121,2.379,36.36699,4.23801,47.11299,3.05899,20.688,10.5,51.235,15.48898,68.063,0,.039,4.19901,14.371,15.367,31.539h0ZM92.37514,250.51338" style="fill: #f9973e;"/>
    <path d="M108.74614,4.88039c-34.793,4.328-51.09799,24.21899-52.371,47.78098-.30099,4.5-.33998,12.66803-.13699,22.63702l1.043,28.5c.93001,18.121,2.379,36.36699,4.23801,47.11299,3.05899,20.688,10.5,51.235,15.48898,68.063,0,0,4.19901,14.371,15.367,31.5,2.85501,4.18002,6,8.336,9.35101,12.34,110.08598-5.69901,197.58601-96.797,197.58601-208.336.01199-15.23801-1.64401-30.43399-4.93301-45.31699-5.98801-2.121-12.19504-3.57001-18.50403-4.31201-55.51999-6.47699-111.60898-6.465-167.12898.03101h0ZM108.74614,4.88039" style="fill: #fca84c;"/>
  </g>
  <path d="M261.23016,342.80239c-6.19104-1.543-12.49203-2.582-18.84703-3.10501-8.09399-.793-14.19899-7.70398-13.989-15.832.082-3,.875-21.14499.981-24.95398-24.10201,7.73898-50.02,7.73898-74.121,0,.10501,3.80899.89803,21.92999.98003,24.95398.215,8.125-5.89403,15.035-13.98402,15.82401-6.356.52701-12.65999,1.57001-18.84799,3.11301-14.52701,3.68799-18.472,10.16-18.953,18.117.481,7.957,4.42599,14.42999,18.953,18.11398,14.02399,3.81601,38.64099,4.85101,68.90999,4.98004,30.278-.12903,54.89102-1.16403,68.91803-4.98004,14.52798-3.69199,18.465-10.15698,18.94995-18.11398-.48495-7.965-4.42197-14.40601-18.94995-18.117h0ZM261.23016,342.80239" style="fill: #ea802a;"/>
  <path d="M224.46513,207.76338c-9.504-3.05901-19.21498-6.457-29.086-10.06599-1.981-.72701-4.15599-.72701-6.13699,0-9.86699,3.60899-19.57401,7.00699-29.082,10.06599-5.793,1.867-12.375-3.31599-12.69099-9.80901-.457-10.62099-.69199-21.25-.70699-31.89-.01602-2.168-.76202-4.26599-2.11403-5.957-6.80798-8.56299-13.56599-16.965-20.101-25.07799-4.01999-4.957-1.23499-12.278,5.25-14.33202,10.5-3.30099,21-6.65298,31.40201-9.961,2.10199-.668,3.922-2.01999,5.17599-3.832,6.293-9.06299,12.51201-18.17999,18.49602-27.25,1.59398-2.59799,4.42598-4.18399,7.47299-4.18399,3.04999,0,5.879,1.586,7.476,4.18399,6,9.07001,12.19899,18.18701,18.49199,27.25,1.25403,1.81201,3.07501,3.164,5.17603,3.832,10.40997,3.30801,20.88698,6.66,31.40298,9.961,6.44897,2.05402,9.242,9.37502,5.24997,14.33202-6.53197,8.11299-13.28996,16.5-20.09796,25.07799-1.36301,1.69101-2.10901,3.793-2.117,5.96501,0,10.63199-.235,21.261-.703,31.88199-.38301,6.481-6.97701,11.66101-12.75801,9.80901h0ZM224.46513,207.76338" style="fill: #fff;"/>
  <metadata>
    <sfw xmlns="http://ns.adobe.com/SaveForWeb/1.0/">
      <slices/>
      <sliceSourceBounds x="114" y="204" width="383.95" height="384.01" bottomLeftOrigin="true"/>
    </sfw>
  </metadata>
</svg>