<?xml version="1.0" encoding="UTF-8"?>
<svg id="_레이어_1" data-name="레이어_1" xmlns="http://www.w3.org/2000/svg" version="1.1" viewBox="0 0 14.6 14.6">
  <!-- Generator: Adobe Illustrator 29.2.0, SVG Export Plug-In . SVG Version: 2.1.0 Build 108)  -->
  <defs>
    <style>
      .st0 {
        fill: #222;
        fill-rule: evenodd;
      }
    </style>
  </defs>
  <path class="st0" d="M9.5,1.4c-1.4-.3-2.9-.3-4.3,0-1.9.4-3.3,1.9-3.8,3.8-.3,1.4-.3,2.9,0,4.3.4,1.9,1.9,3.3,3.8,3.8,1.4.3,2.9.3,4.3,0,1.9-.4,3.3-1.9,3.8-3.8.3-1.4.3-2.9,0-4.3-.4-1.9-1.9-3.3-3.8-3.8h0ZM4.9.3c1.6-.4,3.2-.4,4.8,0,2.3.5,4.1,2.3,4.6,4.6.4,1.6.4,3.2,0,4.8-.5,2.3-2.3,4.1-4.6,4.6-1.6.4-3.2.4-4.8,0-2.3-.5-4.1-2.3-4.6-4.6C0,8.1,0,6.5.3,4.9.8,2.6,2.6.8,4.9.3h0ZM7.3,4.8c-.8,0-1.4.6-1.4,1.4s.2.9.6,1.2c.2.1.3.4.2.6l-.5,1.6c0,.1,0,.3.2.3h1.8c.1,0,.3-.1.2-.3l-.5-1.6c0-.2,0-.5.2-.6.4-.2.6-.7.6-1.2,0-.8-.6-1.4-1.4-1.4h0ZM4.8,6.1c0-1.4,1.1-2.5,2.5-2.5s2.5,1.1,2.5,2.5-.3,1.4-.8,1.8l.4,1.3c.3.9-.4,1.8-1.3,1.8h-1.8c-.9,0-1.6-.9-1.3-1.8l.4-1.3c-.5-.5-.8-1.1-.8-1.8h0ZM4.8,6.1"/>
</svg>