<?xml version="1.0" encoding="UTF-8"?>
<svg id="Layer_1" xmlns="http://www.w3.org/2000/svg" version="1.1" viewBox="0 0 898.6 630.4">
  <!-- Generator: Adobe Illustrator 29.1.0, SVG Export Plug-In . SVG Version: 2.1.0 Build 142)  -->
  <g>
    <path d="M797.2,353.1v277.3h49c8.2,0,14.8-6.7,14.8-14.8v-219.9h22.7c8.2,0,14.8-6.6,14.8-14.8v-42.6h-86.5c-8.2,0-14.8,6.6-14.8,14.8Z"/>
    <path d="M324.6,353.1v277.3h49c8.2,0,14.8-6.7,14.8-14.8v-219.9h22.7c8.2,0,14.8-6.6,14.8-14.8v-42.6h-86.5c-8.2,0-14.8,6.6-14.8,14.8Z"/>
    <path d="M146,338.3C65.5,338.3,0,403.8,0,484.4s65.5,146.1,146,146.1,146-65.5,146-146.1-65.5-146-146-146ZM146,565.2c-44.5,0-80.8-36.3-80.8-80.8s36.2-80.8,80.8-80.8,80.8,36.2,80.8,80.8-36.2,80.8-80.8,80.8Z"/>
    <path d="M707.3,353.1v100.1h-67v-114.9h-42.6c-8.2,0-14.8,6.6-14.8,14.8v100.1h-67v-114.9h-42.6c-8.2,0-14.8,6.6-14.8,14.8v206.3c0,39.2,31.8,71,71,71h164.2c39.2,0,71-31.8,71-71v-221.1h-42.6c-8.2,0-14.8,6.6-14.8,14.8ZM710,530c-18.1,35.7-53.1,55.4-98.4,55.4s-80.3-19.7-98.4-55.4c-4.8-9.5-1-21.1,8.5-26,9.5-4.8,21.2-1,26,8.5,14.3,28.2,42.7,34.2,63.9,34.2s49.6-5.9,63.9-34.2c4.8-9.6,16.5-13.3,26-8.5,9.5,4.8,13.3,16.5,8.5,26Z"/>
  </g>
  <g>
    <path d="M679.5,199.1c-25.9,0-47,21-47,47s21,47,47,47,47-21,47-47-21-47-47-47Z"/>
    <path d="M701.5,100.1v-42.7h-122.7c-39.2,0-71,31.8-71,71v163.7h42.6c8.2,0,14.8-6.7,14.8-14.8v-138.8c0-13.1,10.6-23.7,23.7-23.7h97.8c8.2,0,14.8-6.6,14.8-14.8Z"/>
    <path d="M404.3,0h-161.2c-39.2,0-71,31.7-71,71v221.1h42.6c8.2,0,14.8-6.7,14.8-14.8V81.1c0-13.1,10.6-23.7,23.7-23.7h41.8v234.7h42.6c8.2,0,14.8-6.7,14.8-14.8V57.4h41.8c13.1,0,23.7,10.6,23.7,23.7v211h42.6c8.2,0,14.8-6.7,14.8-14.8V71c0-39.2-31.8-71-71-71Z"/>
  </g>
</svg>