<?xml version="1.0" encoding="UTF-8"?>
<svg id="Layer_1" xmlns="http://www.w3.org/2000/svg" version="1.1" viewBox="0 0 703.5 137.1">
  <!-- Generator: Adobe Illustrator 29.1.0, SVG Export Plug-In . SVG Version: 2.1.0 Build 142)  -->
  <path d="M656.2,6.9v129.6h22.9c3.8,0,6.9-3.1,6.9-6.9V26.8h10.6c3.8,0,6.9-3.1,6.9-6.9V0h-40.4c-3.8,0-6.9,3.1-6.9,6.9Z"/>
  <path d="M237.2,93.1c-12.1,0-22,9.8-22,22s9.8,22,22,22,22-9.8,22-22-9.8-22-22-22h0Z"/>
  <path d="M435.3,6.9v129.6h22.9c3.8,0,6.9-3.1,6.9-6.9V26.8h10.6c3.8,0,6.9-3.1,6.9-6.9V0h-40.4c-3.8,0-6.9,3.1-6.9,6.9Z"/>
  <path d="M247.5,46.8v-19.9h-57.3c-18.3,0-33.2,14.9-33.2,33.2v76.5h19.9c3.8,0,6.9-3.1,6.9-6.9v-64.9c0-6.1,5-11.1,11.1-11.1h45.7c3.8,0,6.9-3.1,6.9-6.9h0Z"/>
  <path d="M351.8,0c-37.6,0-68.3,30.6-68.3,68.3s30.6,68.3,68.3,68.3,68.3-30.6,68.3-68.3S389.4,0,351.8,0ZM351.8,106c-20.8,0-37.8-16.9-37.8-37.8s16.9-37.7,37.8-37.7,37.8,16.9,37.8,37.7-16.9,37.8-37.8,37.8Z"/>
  <path d="M614.1,6.9v46.8h-31.3V0h-19.9c-3.8,0-6.9,3.1-6.9,6.9v46.8h-31.3V0h-19.9c-3.8,0-6.9,3.1-6.9,6.9v96.4c0,18.3,14.9,33.2,33.2,33.2h76.8c18.3,0,33.2-14.9,33.2-33.2V0h-19.9c-3.8,0-6.9,3.1-6.9,6.9h-.2ZM615.4,89.6c-8.5,16.7-24.8,25.9-46,25.9s-37.5-9.2-46-25.9c-2.3-4.4-.5-9.9,4-12.1,4.5-2.3,9.9-.5,12.2,4,6.7,13.2,19.9,16,29.9,16s23.2-2.8,29.9-16c2.3-4.5,7.7-6.2,12.2-4,4.5,2.3,6.2,7.7,4,12.1h-.2Z"/>
  <path d="M108.6,0H33.2C14.9,0,0,14.8,0,33.2v103.4h19.9c3.8,0,6.9-3.1,6.9-6.9V37.9c0-6.1,5-11.1,11.1-11.1h19.5v109.7h19.9c3.8,0,6.9-3.1,6.9-6.9V26.8h19.5c6.1,0,11.1,5,11.1,11.1v98.7h19.9c3.8,0,6.9-3.1,6.9-6.9V33.2c.2-18.4-14.7-33.2-33-33.2Z"/>
</svg>