<?xml version="1.0" encoding="UTF-8"?>
<svg id="Layer_1" xmlns="http://www.w3.org/2000/svg" version="1.1" viewBox="0 0 703.5 188.5">
  <!-- Generator: Adobe Illustrator 29.1.0, SVG Export Plug-In . SVG Version: 2.1.0 Build 142)  -->
  <defs>
    <style>
      .st0 {
        fill: #fff;
      }
    </style>
  </defs>
  <g>
    <path class="st0" d="M656.2,6.9v129.6h22.9c3.8,0,6.9-3.1,6.9-6.9V26.8h10.6c3.8,0,6.9-3.1,6.9-6.9V0h-40.4c-3.8,0-6.9,3.1-6.9,6.9Z"/>
    <path class="st0" d="M237.2,93.1c-12.1,0-22,9.8-22,22s9.8,22,22,22,22-9.8,22-22-9.8-22-22-22h0Z"/>
    <path class="st0" d="M435.3,6.9v129.6h22.9c3.8,0,6.9-3.1,6.9-6.9V26.8h10.6c3.8,0,6.9-3.1,6.9-6.9V0h-40.4c-3.8,0-6.9,3.1-6.9,6.9Z"/>
    <path class="st0" d="M247.5,46.8v-19.9h-57.3c-18.3,0-33.2,14.9-33.2,33.2v76.5h19.9c3.8,0,6.9-3.1,6.9-6.9v-64.9c0-6.1,5-11.1,11.1-11.1h45.7c3.8,0,6.9-3.1,6.9-6.9h0Z"/>
    <path class="st0" d="M351.8,0c-37.6,0-68.3,30.6-68.3,68.3s30.6,68.3,68.3,68.3,68.3-30.6,68.3-68.3S389.4,0,351.8,0ZM351.8,106c-20.8,0-37.8-16.9-37.8-37.8s16.9-37.7,37.8-37.7,37.8,16.9,37.8,37.7-16.9,37.8-37.8,37.8Z"/>
    <path class="st0" d="M614.1,6.9v46.8h-31.3V0h-19.9c-3.8,0-6.9,3.1-6.9,6.9v46.8h-31.3V0h-19.9c-3.8,0-6.9,3.1-6.9,6.9v96.4c0,18.3,14.9,33.2,33.2,33.2h76.8c18.3,0,33.2-14.9,33.2-33.2V0h-19.9c-3.8,0-6.9,3.1-6.9,6.9h-.2ZM615.4,89.6c-8.5,16.7-24.8,25.9-46,25.9s-37.5-9.2-46-25.9c-2.3-4.4-.5-9.9,4-12.1,4.5-2.3,9.9-.5,12.2,4,6.7,13.2,19.9,16,29.9,16s23.2-2.8,29.9-16c2.3-4.5,7.7-6.2,12.2-4,4.5,2.3,6.2,7.7,4,12.1h-.2Z"/>
    <path class="st0" d="M108.6,0H33.2C14.9,0,0,14.8,0,33.2v103.4h19.9c3.8,0,6.9-3.1,6.9-6.9V37.9c0-6.1,5-11.1,11.1-11.1h19.5v109.7h19.9c3.8,0,6.9-3.1,6.9-6.9V26.8h19.5c6.1,0,11.1,5,11.1,11.1v98.7h19.9c3.8,0,6.9-3.1,6.9-6.9V33.2c.2-18.4-14.7-33.2-33-33.2Z"/>
  </g>
  <g>
    <path class="st0" d="M187.6,176.8c0-6.7,5-11.6,11.6-11.6s9.7,3.3,10.9,8h-3c-.9-3.1-3.8-5.3-7.8-5.3s-8.8,3.7-8.8,8.9,3.7,8.9,8.8,8.9,7.2-2.4,8.1-5.6h3c-1,4.6-5.2,8.3-11.1,8.3s-11.6-4.9-11.6-11.6h0Z"/>
    <path class="st0" d="M217.2,176.8c0-6.7,5-11.6,11.7-11.6s11.7,4.9,11.7,11.6-5,11.6-11.7,11.6-11.7-4.9-11.7-11.6ZM237.7,176.8c0-5.2-3.7-8.9-8.8-8.9s-8.8,3.7-8.8,8.9,3.7,8.9,8.8,8.9,8.8-3.7,8.8-8.9Z"/>
    <path class="st0" d="M251.1,165.8l8.6,15.1,8.6-15.1h2.6v22.1h-2.9v-16.3l-7.1,12.6h-2.1l-7.1-12.6v16.3h-2.9v-22.1h2.6,0Z"/>
    <path class="st0" d="M282.2,165.8l8.6,15.1,8.6-15.1h2.6v22.1h-2.9v-16.3l-7.1,12.6h-2.1l-7.1-12.6v16.3h-2.9v-22.1h2.6,0Z"/>
    <path class="st0" d="M313.3,165.8v12.6c0,4.4,2.6,7.4,6.8,7.4s6.7-3,6.7-7.4v-12.6h2.9v12.6c0,6.1-3.8,10.1-9.6,10.1s-9.7-4-9.7-10.1v-12.6h2.9,0Z"/>
    <path class="st0" d="M341.1,165.8l13.4,17.2v-17.4h2.9v22.1h-2.8l-13.4-17.2v17.4h-2.9v-22.1h2.8Z"/>
    <path class="st0" d="M369.2,188h-2.9v-22.1h2.9v22.1h0Z"/>
    <path class="st0" d="M377.1,176.8c0-6.7,5-11.6,11.6-11.6s9.7,3.3,10.9,8h-3c-.9-3.1-3.8-5.3-7.8-5.3s-8.8,3.7-8.8,8.9,3.7,8.9,8.8,8.9,7.2-2.4,8.1-5.6h3c-1,4.6-5.2,8.3-11.1,8.3s-11.6-4.9-11.6-11.6h0Z"/>
    <path class="st0" d="M420.7,182.5h-10.7l-2.2,5.5h-3.1l9.1-22.1h3.1l9.1,22.1h-3.2l-2.2-5.5h0ZM419.7,179.9l-4.3-10.7-4.3,10.7h8.6Z"/>
    <path class="st0" d="M439.1,168.4v19.5h-2.9v-19.5h-8v-2.6h18.8v2.6h-8Z"/>
    <path class="st0" d="M457.6,188h-2.9v-22.1h2.9v22.1h0Z"/>
    <path class="st0" d="M465.5,176.8c0-6.7,5-11.6,11.7-11.6s11.7,4.9,11.7,11.6-5,11.6-11.7,11.6-11.7-4.9-11.7-11.6ZM486,176.8c0-5.2-3.7-8.9-8.8-8.9s-8.8,3.7-8.8,8.9,3.7,8.9,8.8,8.9,8.8-3.7,8.8-8.9Z"/>
    <path class="st0" d="M499.6,165.8l13.4,17.2v-17.4h2.9v22.1h-2.8l-13.4-17.2v17.4h-2.9v-22.1h2.8Z"/>
  </g>
</svg>