<?xml version="1.0" encoding="UTF-8"?>
<svg id="Layer_1" xmlns="http://www.w3.org/2000/svg" version="1.1" viewBox="0 0 265.2 264.7">
  <!-- Generator: Adobe Illustrator 29.1.0, SVG Export Plug-In . SVG Version: 2.1.0 Build 142)  -->
  <defs>
    <style>
      .st0 {
        fill: #fff;
      }

      .st1 {
        fill: #aeaeae;
      }
    </style>
  </defs>
  <path class="st0" d="M132.6,264.7C59.5,264.7,0,205.4,0,132.4S59.5,0,132.6,0s132.6,59.4,132.6,132.4-59.5,132.4-132.6,132.4ZM132.6,97.9c-19,0-34.5,15.4-34.5,34.4s15.5,34.4,34.5,34.4,34.5-15.4,34.5-34.4-15.5-34.4-34.5-34.4Z"/>
  <path class="st1" d="M132.6,17c-63.8,0-115.6,51.7-115.6,115.4s51.8,115.4,115.6,115.4,115.6-51.6,115.6-115.4S196.4,17,132.6,17ZM132.6,183.8c-28.5,0-51.5-23-51.5-51.4s23.1-51.4,51.5-51.4,51.5,23,51.5,51.4-23.1,51.4-51.5,51.4Z"/>
</svg>