<?xml version="1.0" encoding="UTF-8"?>
<svg id="Layer_1" xmlns="http://www.w3.org/2000/svg" version="1.1" viewBox="0 0 265.20001 264.70001">
  <!-- Generator: Adobe Illustrator 29.7.1, SVG Export Plug-In . SVG Version: 2.1.1 Build 8)  -->
  <path d="M132.60001,264.70001C59.5,264.70001,0,205.39999,0,132.39999S59.5,0,132.60001,0s132.60001,59.4,132.60001,132.39999-59.5,132.39999-132.60001,132.39999v-.09998ZM132.60001,97.9c-19,0-34.5,15.4-34.5,34.4s15.5,34.40001,34.5,34.40001,34.5-15.39999,34.5-34.39999-15.5-34.4-34.5-34.4v-.00002Z" style="fill: #fff;"/>
  <path d="M132.60001,17c-63.8,0-115.6,51.7-115.6,115.39999s51.8,115.39999,115.6,115.39999,115.60001-51.60001,115.60001-115.39999S196.39999,17,132.60001,17ZM132.60001,183.8c-28.5,0-51.5-23-51.5-51.40001s23.1-51.4,51.5-51.4,51.5,23,51.5,51.4-23.10001,51.39999-51.5,51.39999v.00002Z" style="fill: #92c29c;"/>
</svg>