<?xml version="1.0" encoding="UTF-8"?>
<svg id="_레이어_1" data-name="레이어_1" xmlns="http://www.w3.org/2000/svg" version="1.1" viewBox="0 0 11.6 11.6">
  <!-- Generator: Adobe Illustrator 29.1.0, SVG Export Plug-In . SVG Version: 2.1.0 Build 142)  -->
  <defs>
    <style>
      .st0 {
        fill: #e9e9e9;
      }
    </style>
  </defs>
  <path class="st0" d="M5.8,0C1.5,0,0,1.5,0,5.8s1.6,5.8,5.8,5.8,5.8-1.6,5.8-5.8S10.1,0,5.8,0h0ZM1.1,5.8C1.1,2.2,2.2,1.1,5.8,1.1s4.6,1,4.7,4.1c-3.1,0-5.9,2-7.1,4.8,0,0,0,0,0,.1-1.7-.5-2.3-1.8-2.3-4.4h0ZM5.8,10.5c-.4,0-.9,0-1.3,0,1.1-2.4,3.4-4,6-4-.1,3.1-1.3,4.1-4.7,4.1h0ZM5.8,10.5"/>
  <path class="st0" d="M5,3.9c0,.5-.4.9-.9.9s-.9-.4-.9-.9.4-.9.9-.9.9.4.9.9h0ZM5,3.9"/>
</svg>