<?xml version="1.0" encoding="UTF-8"?>
<svg id="_레이어_1" data-name="레이어_1" xmlns="http://www.w3.org/2000/svg" version="1.1" viewBox="0 0 1550 249.4">
  <!-- Generator: Adobe Illustrator 29.1.0, SVG Export Plug-In . SVG Version: 2.1.0 Build 142)  -->
  <defs>
    <style>
      .st0 {
        fill: #fac945;
      }

      .st1 {
        fill: #e3e3e2;
      }
    </style>
  </defs>
  <path class="st0" d="M881.7,75l-57.1-8.3-25.5-51.7c-9.9-20-38.4-20-48.2,0l-25.5,51.7-57.1,8.3c-22,3.2-30.8,30.3-14.9,45.8l41.3,40.2-9.7,56.8c-3.8,22,19.3,38.7,39,28.3l51-26.8,51,26.8c19.7,10.3,42.8-6.4,39-28.3l-9.7-56.8,41.3-40.2c15.9-15.5,7.1-42.6-14.9-45.8h0ZM880.5,104.3"/>
  <path class="st0" d="M559,75l-57.1-8.3-25.5-51.7c-9.9-20-38.4-20-48.2,0l-25.5,51.7-57.1,8.3c-22,3.2-30.8,30.3-14.9,45.8l41.3,40.2-9.7,56.8c-3.8,22,19.3,38.7,39,28.3l51-26.8,51,26.8c19.7,10.3,42.8-6.4,39-28.3l-9.7-56.8,41.3-40.2c15.9-15.5,7.1-42.6-14.9-45.8h0ZM557.8,104.3"/>
  <path class="st1" d="M1526.9,75l-57.1-8.3-25.5-51.7c-9.9-20-38.4-20-48.2,0l-25.5,51.7-57.1,8.3c-22,3.2-30.8,30.3-14.9,45.8l41.3,40.2-9.7,56.8c-3.8,22,19.3,38.7,39,28.3l51-26.8,51,26.8c19.7,10.3,42.8-6.4,39-28.3l-9.7-56.8,41.3-40.2c15.9-15.5,7.1-42.6-14.9-45.8h0ZM1525.8,104.3"/>
  <path class="st1" d="M1204.3,75l-57.1-8.3-25.5-51.7c-9.9-20-38.4-20-48.2,0l-25.5,51.7-57.1,8.3c-22,3.2-30.8,30.3-14.9,45.8l41.3,40.2-9.7,56.8c-3.8,22,19.3,38.7,39,28.3l51-26.8,51,26.8c19.7,10.3,42.8-6.4,39-28.3l-9.7-56.8,41.3-40.2c15.9-15.5,7.1-42.6-14.9-45.8h0ZM1203.1,104.3"/>
  <path class="st0" d="M236.4,75l-57.1-8.3-25.5-51.7c-9.9-20-38.4-20-48.2,0l-25.5,51.7-57.1,8.3c-22,3.2-30.8,30.3-14.9,45.8l41.3,40.2-9.7,56.8c-3.8,22,19.3,38.7,39,28.3l51-26.8,51,26.8c19.7,10.3,42.8-6.4,39-28.3l-9.7-56.8,41.3-40.2c15.9-15.5,7.1-42.6-14.9-45.8h0ZM235.2,104.3"/>
</svg>